<svg width="100" height="100" viewBox="0 0 100 100" fill="none" xmlns="http://www.w3.org/2000/svg">
<ellipse cx="43.5676" cy="70.9575" rx="21.2788" ry="18.1648" transform="rotate(5.11264 43.5676 70.9575)" fill="#D9E2FF"/>
<path d="M54.8442 15.7778C55.7495 14.4868 57.7058 14.9204 57.9809 16.4731L67.102 67.9666C67.3263 69.2328 66.215 70.3387 64.991 70.0674L25.8437 61.3899C24.6196 61.1186 24.0797 59.6466 24.8181 58.5938L54.8442 15.7778Z" fill="#FFA48F"/>
<circle cx="28.9216" cy="74.9559" r="2.86974" transform="rotate(16.6066 28.9216 74.9559)" fill="#AABFFF"/>
<circle cx="47.9772" cy="76.66" r="2.86974" transform="rotate(16.6066 47.9772 76.66)" fill="#AABFFF"/>
<path d="M32.5732 71.5381L32.6657 70.5042" stroke="#303030" stroke-width="3" stroke-linecap="round" stroke-linejoin="round"/>
<path d="M44.9795 72.6484L45.072 71.6146" stroke="#303030" stroke-width="3" stroke-linecap="round" stroke-linejoin="round"/>
<path d="M41.6916 76.531L41.6126 76.5466C39.4227 76.9786 37.1557 76.7912 35.0664 76.0055L34.9911 75.9771" stroke="#6B6B6B" stroke-width="1.5" stroke-linecap="round" stroke-linejoin="round"/>
<path d="M55.0099 21.7C57.5893 22.5859 60.3909 21.2351 61.2675 18.6828C62.144 16.1306 60.7636 13.3434 58.1841 12.4576C55.6047 11.5717 52.8031 12.9225 51.9265 15.4747C51.05 18.027 52.4305 20.8141 55.0099 21.7Z" fill="white"/>
<path d="M54.3952 23.6304L54.8392 22.307M51.5425 21.7445L52.5916 20.8266M50.0082 18.7059L51.387 18.4341M50.2108 15.3236L51.5445 15.7718M52.0891 12.5055L53.0217 13.5524M55.1409 11.0078L55.4256 12.3738M58.5537 11.2281L58.1109 12.5481M61.4076 13.1105L60.3573 14.0319M62.9407 16.1527L61.5618 16.4245M62.7381 19.535L61.4043 19.0869M60.8597 22.3531L59.9284 21.3028M57.8044 23.8495L57.5233 22.4848" stroke="#678CFF" stroke-width="1.5" stroke-miterlimit="10" stroke-linecap="round"/>
</svg>
