<svg width="25" height="24" viewBox="0 0 25 24" fill="none" xmlns="http://www.w3.org/2000/svg">
<path fill-rule="evenodd" clip-rule="evenodd" d="M22.2925 8.80768C22.276 8.80768 22.2629 8.794 22.2635 8.77757C22.2663 8.69815 22.2677 8.61844 22.2677 8.53846C22.2677 4.09894 17.9002 0.5 12.5126 0.5C7.12492 0.5 2.75738 4.09894 2.75738 8.53846C2.75738 8.82508 2.77558 9.10819 2.81109 9.38706V16.4036C2.81109 16.5679 2.7706 16.7297 2.69321 16.8746L1.54285 19.029C1.18716 19.6951 1.66983 20.5 2.42497 20.5H22.7076C23.4627 20.5 23.9454 19.6951 23.5897 19.029L22.4393 16.8746C22.3619 16.7297 22.3214 16.5679 22.3214 16.4036V8.83663C22.3214 8.82064 22.3085 8.80768 22.2925 8.80768Z" fill="#CFCFCF"/>
<circle cx="12.7573" cy="21" r="3" fill="#B8B8B8"/>
</svg>
