<svg width="360" height="378" viewBox="0 0 360 378" fill="none" xmlns="http://www.w3.org/2000/svg">
<rect width="360" height="378" fill="#C19191"/>
<rect width="360" height="378" fill="url(#paint0_linear_1608_8322)" fill-opacity="0.3"/>
<rect x="32.6153" y="199.526" width="61.1124" height="36.0674" rx="5.25" transform="rotate(-19.5574 32.6153 199.526)" fill="#93716A" stroke="#5D4040" stroke-width="1.5"/>
<rect x="42.053" y="206.939" width="47.6471" height="19.6723" rx="5.25" transform="rotate(-19.5574 42.053 206.939)" fill="#C8AFAA" stroke="#5D4040" stroke-width="1.5"/>
<circle cx="57.3709" cy="186.245" r="9.68539" transform="rotate(-19.5574 57.3709 186.245)" fill="#7E5E57" stroke="#5D4040" stroke-width="1.5"/>
<circle cx="46.5454" cy="195.258" r="4.81554" transform="rotate(-19.5574 46.5454 195.258)" fill="#7E5E57" stroke="#5D4040" stroke-width="1.5"/>
<circle cx="74.5017" cy="184.589" r="6.90262" transform="rotate(-19.5574 74.5017 184.589)" fill="#7E5E57" stroke="#5D4040" stroke-width="1.5"/>
<path d="M231.843 230.144C233.965 231.835 237.099 231.212 238.413 228.838C239.321 227.197 241.679 227.197 242.587 228.838C243.901 231.212 247.035 231.835 249.157 230.144C250.624 228.976 252.804 229.879 253.014 231.742C253.32 234.439 255.976 236.214 258.584 235.464C260.387 234.945 262.055 236.613 261.536 238.416C260.786 241.024 262.561 243.68 265.258 243.985C267.121 244.196 268.024 246.376 266.856 247.843C265.165 249.965 265.788 253.099 268.162 254.413C269.803 255.321 269.803 257.679 268.162 258.587C265.788 259.901 265.165 263.035 266.856 265.157C268.024 266.624 267.121 268.804 265.258 269.014C262.561 269.32 260.786 271.976 261.536 274.584C262.055 276.387 260.387 278.055 258.584 277.536C255.976 276.786 253.32 278.561 253.014 281.258C252.804 283.121 250.624 284.024 249.157 282.856C247.035 281.165 243.901 281.788 242.587 284.162C241.679 285.803 239.321 285.803 238.413 284.162C237.099 281.788 233.965 281.165 231.843 282.856C230.376 284.024 228.196 283.121 227.985 281.258C227.68 278.561 225.024 276.786 222.416 277.536C220.613 278.055 218.945 276.387 219.464 274.584C220.214 271.976 218.439 269.32 215.742 269.014C213.879 268.804 212.976 266.624 214.144 265.157C215.835 263.035 215.212 259.901 212.838 258.587C211.197 257.679 211.197 255.321 212.838 254.413C215.212 253.099 215.835 249.965 214.144 247.843C212.976 246.376 213.879 244.196 215.742 243.985C218.439 243.68 220.214 241.024 219.464 238.416C218.945 236.613 220.613 234.945 222.416 235.464C225.024 236.214 227.68 234.439 227.985 231.742C228.196 229.879 230.376 228.976 231.843 230.144Z" fill="#715046" stroke="#5D4040" stroke-width="2"/>
<circle cx="228" cy="249" r="3" fill="#8F6C60"/>
<circle cx="234" cy="266" r="3" fill="#8F6C60"/>
<circle cx="258" cy="257" r="3" fill="#8F6C60"/>
<circle cx="242" cy="239" r="2" fill="#8F6C60"/>
<circle cx="225" cy="257" r="2" fill="#8F6C60"/>
<circle cx="225" cy="273" r="2" fill="#8F6C60"/>
<circle cx="255" cy="264" r="2" fill="#8F6C60"/>
<circle cx="246" cy="275" r="2" fill="#8F6C60"/>
<circle cx="260" cy="248" r="1" fill="#8F6C60"/>
<circle cx="244" cy="279" r="1" fill="#8F6C60"/>
<path d="M225.732 88.8209L249.804 73.6972L288.045 79.145L265.553 95.4695L225.732 88.8209Z" fill="#634C49" stroke="#5E4040" stroke-width="1.5" stroke-linecap="round" stroke-linejoin="round"/>
<path d="M265.553 95.4699L225.732 88.8213L231.815 127.792L271.613 134.494L294.127 118.116L288.045 79.1454L265.553 95.4699Z" fill="#634C49" stroke="#5E4040" stroke-width="1.5" stroke-linecap="round" stroke-linejoin="round"/>
<path d="M266.103 98.3154L271.218 131.087" stroke="#5E4040" stroke-width="1.5" stroke-miterlimit="10" stroke-linecap="round"/>
<path d="M18.158 336.172H16.78V341.164H22.24V336.172H20.836V337.628H18.158V336.172ZM17.924 343.088H24.034V343.972H17.95V347.04H25.802V345.896H19.328V344.986H25.438V341.996H17.924V343.088ZM18.158 340.046V338.694H20.836V340.046H18.158ZM24.008 341.528H25.438V339.11H27.05V337.966H25.438V335.652H24.008V341.528ZM32.1494 336.536H28.0934V337.654H30.7974V339.032H28.0934V342.62H28.8734C30.5634 342.62 31.7204 342.581 33.0854 342.334L32.9554 341.216C31.7854 341.424 30.7974 341.489 29.4714 341.502V340.072H32.1494V336.536ZM29.7314 346.91H37.7394V345.766H31.1614V343.426H29.7314V346.91ZM32.5914 339.786H33.7614V343.998H35.1134V335.86H33.7614V338.642H32.5914V339.786ZM36.1014 344.284H37.4274V335.678H36.1014V344.284ZM44.7367 336.64H39.3287V344.466H40.2647C42.3317 344.466 43.8657 344.401 45.6207 344.128L45.4907 342.984C43.9047 343.244 42.5267 343.309 40.7587 343.322V340.956H44.5287V339.838H40.7587V337.784H44.7367V336.64ZM46.4267 347.118H47.8307V341.268H49.5987V340.098H47.8307V335.652H46.4267V347.118ZM59.6381 335.678H58.2341V343.946H59.6381V335.678ZM50.3041 339.292C50.2911 340.982 51.6431 342.165 53.3981 342.152C55.1271 342.165 56.4791 340.982 56.4661 339.292C56.4791 337.615 55.1271 336.419 53.3981 336.432C51.6431 336.419 50.2911 337.615 50.3041 339.292ZM51.6821 339.292C51.6691 338.291 52.4101 337.654 53.3981 337.654C54.3471 337.654 55.0881 338.291 55.0881 339.292C55.0881 340.306 54.3471 340.93 53.3981 340.93C52.4101 340.93 51.6691 340.306 51.6821 339.292ZM52.0461 346.91H59.9501V345.766H53.4761V343.114H52.0461V346.91ZM71.2114 335.652H69.8594V347.118H71.2114V335.652ZM61.6954 344.492H62.4754C64.2174 344.492 65.3614 344.44 66.6614 344.18L66.5314 343.01C65.4134 343.244 64.4384 343.309 63.0734 343.322V338.122H66.0634V337.004H61.6954V344.492ZM65.2834 341.06H67.4934V346.572H68.8194V335.886H67.4934V339.916H65.2834V341.06ZM82.1088 335.652H80.6788V347.144H82.1088V335.652ZM72.9308 340.54C72.9178 343.036 74.1788 344.609 75.9208 344.596C77.6498 344.609 78.9108 343.036 78.9108 340.54C78.9108 338.07 77.6498 336.497 75.9208 336.484C74.1788 336.497 72.9178 338.07 72.9308 340.54ZM74.2828 340.54C74.2828 338.798 74.9458 337.758 75.9208 337.758C76.8828 337.758 77.5458 338.798 77.5588 340.54C77.5458 342.308 76.8828 343.335 75.9208 343.322C74.9458 343.335 74.2828 342.308 74.2828 340.54ZM86.0381 345.09H84.4261L83.7761 348.652H84.9981L86.0381 345.09ZM93.3459 336.484C91.6299 336.497 90.4079 338.07 90.4079 340.54C90.4079 343.036 91.6299 344.609 93.3459 344.596C94.4639 344.609 95.3609 343.946 95.8679 342.802H98.4419V347.144H99.8459V335.652H98.4419V338.07H95.7509C95.2439 337.069 94.3859 336.497 93.3459 336.484ZM91.7599 340.54C91.7599 338.798 92.4099 337.758 93.3459 337.758C94.3079 337.758 94.9449 338.798 94.9579 340.54C94.9449 342.308 94.3079 343.335 93.3459 343.322C92.4099 343.335 91.7599 342.308 91.7599 340.54ZM96.1539 339.24H98.4419V341.658H96.1929C96.2579 341.307 96.2839 340.943 96.2839 340.54C96.2839 340.072 96.2449 339.643 96.1539 339.24ZM111.055 335.652H109.651V339.89H107.675V341.034H109.651V347.144H111.055V335.652ZM101.825 337.81H105.647V339.708H101.877V344.44H102.787C104.763 344.453 106.297 344.388 108.013 344.076L107.883 342.932C106.349 343.205 104.984 343.257 103.281 343.27V340.852H107.025V336.666H101.825V337.81ZM123.175 341.606H112.671V342.724H117.325V344.7H118.729V342.724H123.175V341.606ZM113.945 346.91H122.005V345.766H115.349V343.738H113.945V346.91ZM114.049 340.696H121.797V336.016H120.393V337.316H115.427V336.016H114.049V340.696ZM115.427 339.578V338.356H120.393V339.578H115.427ZM134.384 341.58H123.932V342.698H134.384V341.58ZM124.998 338.356C125.011 339.799 126.636 340.696 129.158 340.696C131.641 340.696 133.266 339.799 133.266 338.356C133.266 336.9 131.641 336.016 129.158 336.016C126.636 336.016 125.011 336.9 124.998 338.356ZM125.206 346.91H133.188V345.766H126.636V343.556H125.206V346.91ZM126.48 338.356C126.467 337.589 127.468 337.147 129.158 337.134C130.809 337.147 131.823 337.589 131.81 338.356C131.823 339.123 130.809 339.539 129.158 339.552C127.468 339.539 126.467 339.123 126.48 338.356ZM141.385 336.484C139.669 336.497 138.447 338.07 138.447 340.54C138.447 343.036 139.669 344.609 141.385 344.596C142.997 344.609 144.167 343.231 144.31 341.008H146.481V347.144H147.885V335.652H146.481V339.89H144.297C144.102 337.797 142.945 336.497 141.385 336.484ZM139.799 340.54C139.799 338.798 140.449 337.758 141.385 337.758C142.347 337.758 142.984 338.798 142.997 340.54C142.984 342.308 142.347 343.335 141.385 343.322C140.449 343.335 139.799 342.308 139.799 340.54ZM159.51 345.766H152.75V343.27H151.32V346.91H159.51V345.766ZM149.734 342.282H150.254C151.177 342.282 151.944 342.282 152.906 342.074L152.776 340.93C152.178 341.06 151.658 341.112 151.112 341.138V337.706H152.698V336.536H149.734V342.282ZM153.27 342.282H153.868C155.298 342.282 156.026 342.256 156.936 342.048L156.806 340.904C156.143 341.073 155.558 341.125 154.674 341.151V337.706H156.494V336.536H153.27V342.282ZM156.052 339.89H157.82V343.972H159.198V335.678H157.82V338.746H156.052V339.89ZM174.311 344.622H169.761V342.23H168.357V344.622H163.833V345.766H174.311V344.622ZM164.249 341.528L164.795 342.646C166.784 342.36 168.305 341.476 169.059 340.215C169.826 341.476 171.347 342.36 173.349 342.646L173.869 341.528C171.373 341.203 169.878 339.89 169.787 338.46H173.375V337.316H169.761V335.834H168.357V337.316H164.743V338.46H168.331C168.227 339.89 166.745 341.203 164.249 341.528ZM184.273 335.912H176.265V337.03H182.895C182.882 337.238 182.882 337.472 182.869 337.719L175.979 337.888L176.135 338.98L182.804 338.694C182.765 339.045 182.713 339.435 182.635 339.864L184.039 339.942C184.286 338.538 184.286 337.472 184.273 336.666V335.912ZM175.069 341.58H185.495V340.462H180.503V339.292H179.099V340.462H175.069V341.58ZM176.291 346.936H184.533V345.87H177.695V345.116H184.221V342.282H176.291V343.374H182.817V344.128H176.291V346.936ZM190.828 336.484H186.772V337.602H189.476V338.85H186.772V342.334H187.552C189.242 342.347 190.399 342.308 191.764 342.048L191.634 340.93C190.464 341.151 189.476 341.216 188.15 341.229V339.864H190.828V336.484ZM187.708 346L188.228 347.066C190.048 346.793 191.465 345.987 192.18 344.869C192.882 345.987 194.299 346.793 196.132 347.066L196.652 346C194.338 345.688 192.882 344.466 192.882 343.166V342.932H191.478V343.166C191.465 344.466 189.996 345.688 187.708 346ZM191.244 339.5H192.44V342.516H193.792V335.886H192.44V338.382H191.244V339.5ZM194.78 343.504H196.106V335.678H194.78V343.504ZM202.765 335.834C200.139 335.834 198.618 336.523 198.605 337.784C198.618 339.084 200.139 339.773 202.765 339.786C205.365 339.773 206.873 339.084 206.873 337.784C206.873 336.523 205.365 335.834 202.765 335.834ZM197.539 341.528H207.991V340.384H197.539V341.528ZM198.761 347.04H207.003V345.948H200.165V345.09H206.691V342.282H198.761V343.348H205.287V344.102H198.761V347.04ZM200.087 337.784C200.087 337.212 200.997 336.874 202.765 336.874C204.52 336.874 205.43 337.212 205.417 337.784C205.43 338.434 204.52 338.72 202.765 338.72C200.997 338.72 200.087 338.434 200.087 337.784ZM220.842 335.652H219.438V347.092H220.842V341.32H222.558V340.15H220.842V335.652ZM211.794 343.972L212.6 345.064C216.409 343.179 217.813 340.215 217.826 336.848H212.418V338.018H216.383C216.11 340.618 214.602 342.568 211.794 343.972ZM227.216 337.732V337.602H229.608V336.458H223.368V337.602H225.786V337.732C225.786 339.266 224.824 340.748 222.978 341.346L223.68 342.464C225.058 342.009 226.02 341.06 226.54 339.851C227.047 340.878 227.957 341.697 229.244 342.1L229.92 341.008C228.126 340.449 227.216 339.123 227.216 337.732ZM224.538 344.934C224.538 346.299 226.02 347.118 228.412 347.118C230.804 347.118 232.26 346.299 232.26 344.934C232.26 343.556 230.804 342.75 228.412 342.75C226.02 342.75 224.538 343.556 224.538 344.934ZM225.942 344.934C225.942 344.232 226.839 343.855 228.412 343.868C229.985 343.855 230.869 344.232 230.882 344.934C230.869 345.636 229.985 346.013 228.412 346C226.839 346.013 225.942 345.636 225.942 344.934ZM230.726 342.49H232.156V339.578H233.768V338.408H232.156V335.652H230.726V342.49ZM243.343 339.084H241.939V340.228H237.415V341.372H247.919V340.228H243.343V339.084ZM237.909 338.694L238.377 339.734C240.483 339.578 242.056 338.85 242.654 337.771C243.265 338.85 244.838 339.578 246.957 339.734L247.399 338.694C245.293 338.551 243.941 337.862 243.655 337.056H246.957V335.964H238.377V337.056H241.653C241.367 337.862 239.989 338.551 237.909 338.694ZM238.377 343.712H246.905V342.646H243.369V341.736H241.939V342.646H238.377V343.712ZM239.131 345.636C239.144 346.65 240.405 347.17 242.641 347.17C244.864 347.17 246.151 346.65 246.151 345.636C246.151 344.661 244.864 344.141 242.641 344.128C240.405 344.141 239.144 344.661 239.131 345.636ZM240.587 345.636C240.587 345.246 241.302 345.09 242.641 345.09C243.993 345.09 244.682 345.246 244.695 345.636C244.682 346.039 243.993 346.234 242.641 346.234C241.302 346.234 240.587 346.039 240.587 345.636ZM251.744 336.484C250.015 336.497 248.754 338.07 248.78 340.54C248.754 343.036 250.015 344.609 251.744 344.596C253.473 344.609 254.721 343.036 254.734 340.54C254.721 338.07 253.473 336.497 251.744 336.484ZM250.132 340.54C250.119 338.798 250.782 337.758 251.744 337.758C252.732 337.758 253.369 338.798 253.382 340.54C253.369 342.308 252.732 343.335 251.744 343.322C250.782 343.335 250.119 342.308 250.132 340.54ZM256.242 347.118H257.646V341.242H259.414V340.072H257.646V335.652H256.242V347.118ZM268.881 335.652H267.503V347.118H268.881V341.398H270.649V340.228H268.881V335.652ZM259.833 338.564H266.619V337.42H263.967V335.808H262.563V337.42H259.833V338.564ZM260.379 341.996C260.366 343.582 261.588 344.687 263.265 344.7C264.916 344.687 266.138 343.582 266.151 341.996C266.138 340.41 264.916 339.292 263.265 339.292C261.588 339.292 260.366 340.41 260.379 341.996ZM261.731 341.996C261.718 341.06 262.368 340.449 263.265 340.462C264.149 340.449 264.786 341.06 264.799 341.996C264.786 342.932 264.149 343.53 263.265 343.53C262.368 343.53 261.718 342.932 261.731 341.996ZM275.463 338.408V336.588H274.059V338.408C274.046 340.618 272.928 342.815 271.017 343.634L271.875 344.83C273.266 344.167 274.254 342.841 274.774 341.229C275.307 342.724 276.282 343.933 277.595 344.544L278.427 343.426C276.581 342.62 275.463 340.514 275.463 338.408ZM279.259 347.144H280.689V335.652H279.259V347.144ZM293.068 340.072H291.352V335.652H289.948V347.092H291.352V341.242H293.068V340.072ZM282.772 344.258H283.734C285.45 344.271 287.283 344.167 289.22 343.764L289.064 342.594C287.335 342.932 285.71 343.075 284.176 343.088V336.77H282.772V344.258ZM304.096 344.57H301.678V341.658C302.562 341.125 303.108 340.319 303.108 339.318C303.108 337.485 301.301 336.276 298.844 336.276C296.361 336.276 294.567 337.485 294.58 339.318C294.567 340.332 295.126 341.151 296.036 341.684V344.57H293.618V345.74H304.096V344.57ZM295.958 339.318C295.945 338.109 297.115 337.394 298.844 337.394C300.534 337.394 301.717 338.109 301.73 339.318C301.717 340.488 300.534 341.229 298.844 341.242C297.115 341.229 295.945 340.488 295.958 339.318ZM297.44 344.57V342.191C297.869 342.282 298.35 342.334 298.844 342.334C299.338 342.334 299.819 342.282 300.248 342.191V344.57H297.44ZM306.777 343.192V343.296H308.285V343.192C308.285 342.23 308.597 341.788 309.325 341.346C310.157 340.852 310.664 340.176 310.677 339.136C310.664 337.641 309.494 336.679 307.765 336.692C306.205 336.679 304.931 337.55 304.879 339.24H306.491C306.53 338.408 307.128 338.005 307.765 337.992C308.454 338.005 309.013 338.46 309.013 339.162C309.013 339.799 308.597 340.228 308.051 340.566C307.258 341.073 306.803 341.567 306.777 343.192ZM306.569 345.116C306.569 345.662 307.024 346.104 307.557 346.104C308.09 346.104 308.545 345.662 308.545 345.116C308.545 344.583 308.09 344.141 307.557 344.128C307.024 344.141 306.569 344.583 306.569 345.116Z" fill="white"/>
<path d="M333.414 168.629C332.138 173.711 318.189 174.593 302.26 170.592C286.332 166.592 274.453 159.23 275.731 154.143L282.491 127.223L340.899 141.891L333.42 168.63L333.414 168.629Z" fill="#7F5A54" stroke="#5E4040" stroke-width="1.5" stroke-miterlimit="10"/>
<path d="M341.633 139.247C342.909 134.166 330.553 126.678 314.038 122.53C297.523 118.383 283.096 119.139 281.819 124.226C281.723 124.609 275.732 145.17 279.021 146.282C281.847 147.24 281.638 143.768 283.788 144.702C285.939 145.636 282.777 153.873 284.971 155.015C287.163 156.163 288.852 146.272 291.844 147.024C294.836 147.775 291.835 158.13 295.711 158.907C299.587 159.683 299.899 146.053 303.382 146.724C307.091 147.433 302.319 158.507 304.977 159.422C307.195 160.189 308.786 152.613 311.126 153.2C313.465 153.788 310.66 162.07 312.934 162.641C316.111 163.439 316.89 154.413 319.433 154.95C321.976 155.487 320.714 161.322 323.048 161.908C325.382 162.494 326.02 154.024 328.496 154.449C330.972 154.873 326.459 166.234 329.361 166.963C330.57 167.267 331.301 162.404 333.214 162.688C333.503 162.729 333.72 162.777 333.886 162.825C334.809 163.101 335.781 162.601 336.015 161.669L341.643 139.256L341.633 139.247Z" fill="#FFD1CA" stroke="#5E4040" stroke-width="1.5" stroke-miterlimit="10"/>
<path d="M337.949 139.784C332.738 141.99 321.905 141.735 309.962 138.736C298.317 135.812 288.836 131.086 285.078 126.774" stroke="#5E4040" stroke-width="1.5" stroke-miterlimit="10" stroke-linecap="round"/>
<g filter="url(#filter0_b_1608_8322)">
<rect x="127" y="70" width="113" height="35" rx="14" fill="#E7D4D4" fill-opacity="0.3"/>
</g>
<path d="M154.448 82.354H149.118V83.472H152.94C152.706 85.136 151.133 86.501 148.468 87.19L149.014 88.282C152.433 87.398 154.448 85.331 154.448 82.354ZM150.366 92.988H157.932V88.594H150.366V92.988ZM151.744 91.87V89.712H156.554V91.87H151.744ZM156.528 88.1H157.932V81.678H156.528V88.1ZM170.103 90.596H165.527V88.36H168.907V82.406H167.503V84.304H162.173V82.406H160.769V88.36H164.149V90.596H159.625V91.74H170.103V90.596ZM162.173 87.216V85.422H167.503V87.216H162.173ZM179.909 81.678H178.479V88.49H179.909V85.63H181.521V84.46H179.909V81.678ZM171.277 83.394H175.151V84.538H171.303V87.996H172.239C174.501 88.009 175.996 87.944 177.699 87.632L177.569 86.514C175.996 86.774 174.644 86.839 172.707 86.852V85.604H176.529V82.25H171.277V83.394ZM172.473 92.988H179.909V88.984H172.473V92.988ZM173.851 91.844V90.102H178.531V91.844H173.851ZM195.672 90.622H191.122V88.23H189.718V90.622H185.194V91.766H195.672V90.622ZM185.61 87.528L186.156 88.646C188.145 88.36 189.666 87.476 190.42 86.215C191.187 87.476 192.708 88.36 194.71 88.646L195.23 87.528C192.734 87.203 191.239 85.89 191.148 84.46H194.736V83.316H191.122V81.834H189.718V83.316H186.104V84.46H189.692C189.588 85.89 188.106 87.203 185.61 87.528ZM205.633 81.912H197.625V83.03H204.255C204.242 83.238 204.242 83.472 204.229 83.719L197.339 83.888L197.495 84.98L204.164 84.694C204.125 85.045 204.073 85.435 203.995 85.864L205.399 85.942C205.646 84.538 205.646 83.472 205.633 82.666V81.912ZM196.429 87.58H206.855V86.462H201.863V85.292H200.459V86.462H196.429V87.58ZM197.651 92.936H205.893V91.87H199.055V91.116H205.581V88.282H197.651V89.374H204.177V90.128H197.651V92.936ZM217.18 81.652H215.802V89.452H217.18V81.652ZM208.236 83.524H212.136V84.72H208.262V88.256H209.25C211.59 88.256 213.098 88.191 214.84 87.892L214.684 86.748C213.098 87.034 211.72 87.099 209.64 87.112V85.812H213.54V82.38H208.236V83.524ZM208.886 92L209.432 93.092C211.252 92.806 212.669 92 213.358 90.843C214.047 92 215.464 92.806 217.31 93.092L217.83 92C215.503 91.688 214.086 90.479 214.112 89.114V88.88H212.63V89.114C212.63 90.492 211.2 91.688 208.886 92Z" fill="white"/>
<g filter="url(#filter1_b_1608_8322)">
<rect x="27" y="101" width="75" height="35" rx="14" fill="#E7D4D4" fill-opacity="0.3"/>
</g>
<path d="M57.698 113.718H49.586V114.862H56.294V115.096C56.294 115.681 56.294 116.266 56.268 116.877L49.274 117.15L49.456 118.294L56.203 117.956C56.125 118.762 56.008 119.633 55.774 120.634L57.178 120.764C57.685 118.333 57.685 116.76 57.698 115.096V113.718ZM48.39 122.662H58.842V121.518H48.39V122.662ZM65.2414 113.432H60.0414V114.576H63.8374V115.902H60.0674V119.594H61.0034C63.2134 119.581 64.6044 119.542 66.2034 119.282L66.0734 118.138C64.6434 118.385 63.3694 118.424 61.4714 118.45V116.994H65.2414V113.432ZM61.6274 123.91H69.5314V122.766H63.0314V120.426H61.6274V123.91ZM65.8654 116.682H67.8154V121.102H69.2194V112.678H67.8154V115.512H65.8654V116.682ZM77.0747 113.796H71.6667V114.94H75.6577C75.6057 115.525 75.5147 116.097 75.3587 116.617L71.0687 116.89L71.2507 118.112L74.9037 117.761C74.2017 119.139 72.9797 120.283 70.9907 121.258L71.7447 122.35C76.0217 120.27 77.0617 117.241 77.0747 113.796ZM78.9987 124.118H80.4287V112.652H78.9987V124.118Z" fill="white"/>
<g filter="url(#filter2_b_1608_8322)">
<path fill-rule="evenodd" clip-rule="evenodd" d="M207 184C199.268 184 193 190.268 193 198V205C193 212.732 199.268 219 207 219H277H278H301L292 210V198C292 190.268 285.732 184 278 184H207Z" fill="#E7D4D4" fill-opacity="0.3"/>
</g>
<path d="M224.348 195.652H222.996V207.118H224.348V195.652ZM214.26 203.27L214.416 204.44C215.872 204.427 218.238 204.388 220.058 204.024L219.954 202.984C219.629 203.023 219.291 203.062 218.94 203.101V198.148H219.746V197.004H214.494V198.148H215.3V203.257L214.26 203.27ZM216.548 203.231V198.148H217.64V203.192L216.548 203.231ZM219.46 201.164H220.734V206.546H222.06V195.912H220.734V199.89H219.46V201.164ZM230.019 196.848H225.937V197.992H228.667V199.942H225.963V204.388H226.769C228.199 204.388 229.499 204.349 231.033 204.076L230.929 202.906C229.616 203.153 228.498 203.205 227.315 203.218V201.06H230.019V196.848ZM230.539 200.8H231.813V206.546H233.139V195.886H231.813V199.656H230.539V200.8ZM234.153 207.118H235.479V195.652H234.153V207.118ZM247.339 204.622H242.763V202.75H246.351V201.606H239.513V200.124H246.091V196.432H238.083V197.576H244.713V199.006H238.109V202.75H241.385V204.622H236.861V205.792H247.339V204.622ZM258.574 204.622H253.998V202.75H257.586V201.606H250.748V200.124H257.326V196.432H249.318V197.576H255.948V199.006H249.344V202.75H252.62V204.622H248.096V205.792H258.574V204.622ZM262.893 197.004V196.458H261.541V197.004C261.528 198.148 260.787 199.253 259.279 199.734L259.981 200.774C261.073 200.41 261.827 199.708 262.23 198.811C262.62 199.604 263.296 200.202 264.271 200.514L264.973 199.474C263.608 199.084 262.893 198.109 262.893 197.004ZM259.149 201.32L259.331 202.49C259.942 202.49 260.696 202.477 261.515 202.451V206.234H262.841V202.373C263.634 202.308 264.427 202.217 265.155 202.074L265.051 201.034C263.205 201.294 260.709 201.307 259.149 201.32ZM263.751 204.076H265.701V206.572H267.027V195.86H265.701V202.984H263.751V204.076ZM267.963 207.118H269.289V195.652H267.963V207.118Z" fill="white"/>
<g filter="url(#filter3_b_1608_8322)">
<rect x="115" y="223" width="106" height="35" rx="14" fill="#E7D4D4" fill-opacity="0.3"/>
</g>
<path d="M142.344 235.614V235.016H140.888V235.614C140.875 237.057 139.263 238.513 136.832 238.838L137.404 239.982C139.328 239.683 140.862 238.721 141.616 237.421C142.37 238.721 143.917 239.683 145.854 239.982L146.426 238.838C143.969 238.513 142.357 237.044 142.344 235.614ZM136.39 242.114H140.888V246.118H142.292V242.114H146.842V240.97H136.39V242.114ZM157.479 234.652H156.153V246.118H157.479V234.652ZM147.417 242.868L148.275 243.908C149.354 243.232 150.095 242.023 150.498 240.606C150.888 241.919 151.59 243.024 152.669 243.648L153.501 242.608C151.85 241.672 151.161 239.722 151.161 237.798V237.018H153.007V235.874H147.807V237.018H149.809V237.798C149.796 239.787 149.068 241.854 147.417 242.868ZM152.175 239.8H153.839V245.572H155.165V234.886H153.839V238.656H152.175V239.8ZM172.436 243.622H167.886V241.23H166.482V243.622H161.958V244.766H172.436V243.622ZM162.374 240.528L162.92 241.646C164.909 241.36 166.43 240.476 167.184 239.215C167.951 240.476 169.472 241.36 171.474 241.646L171.994 240.528C169.498 240.203 168.003 238.89 167.912 237.46H171.5V236.316H167.886V234.834H166.482V236.316H162.868V237.46H166.456C166.352 238.89 164.87 240.203 162.374 240.528ZM182.398 234.912H174.39V236.03H181.02C181.007 236.238 181.007 236.472 180.994 236.719L174.104 236.888L174.26 237.98L180.929 237.694C180.89 238.045 180.838 238.435 180.76 238.864L182.164 238.942C182.411 237.538 182.411 236.472 182.398 235.666V234.912ZM173.194 240.58H183.62V239.462H178.628V238.292H177.224V239.462H173.194V240.58ZM174.416 245.936H182.658V244.87H175.82V244.116H182.346V241.282H174.416V242.374H180.942V243.128H174.416V245.936ZM193.945 234.652H192.567V242.452H193.945V234.652ZM185.001 236.524H188.901V237.72H185.027V241.256H186.015C188.355 241.256 189.863 241.191 191.605 240.892L191.449 239.748C189.863 240.034 188.485 240.099 186.405 240.112V238.812H190.305V235.38H185.001V236.524ZM185.651 245L186.197 246.092C188.017 245.806 189.434 245 190.123 243.843C190.812 245 192.229 245.806 194.075 246.092L194.595 245C192.268 244.688 190.851 243.479 190.877 242.114V241.88H189.395V242.114C189.395 243.492 187.965 244.688 185.651 245ZM198.03 235.796H196.288L196.444 242.296H197.874L198.03 235.796ZM196.158 244.116C196.158 244.662 196.613 245.104 197.146 245.104C197.679 245.104 198.134 244.662 198.134 244.116C198.134 243.583 197.679 243.141 197.146 243.128C196.613 243.141 196.158 243.583 196.158 244.116Z" fill="white"/>
<path d="M175.894 153.044C172.123 151.499 168.063 151.736 164.653 153.37C163.367 149.817 160.647 146.797 156.871 145.25C149.792 142.35 141.707 145.735 138.811 152.803C132.516 168.168 147.168 184.192 150.799 185.68C154.783 187.312 178.046 184.322 183.464 171.098C186.361 164.025 182.969 155.943 175.894 153.044Z" fill="#E59689" stroke="#5E4040" stroke-width="1.5" stroke-miterlimit="10"/>
<path d="M149.076 149.781C149.076 149.781 145.003 151.01 143.145 158.27" stroke="#FFC0B8" stroke-width="1.5" stroke-miterlimit="10" stroke-linecap="round"/>
<path d="M142.697 161.979C142.888 162.057 143.105 161.966 143.183 161.775C143.261 161.585 143.17 161.368 142.98 161.29C142.79 161.212 142.572 161.303 142.494 161.493C142.416 161.683 142.507 161.901 142.697 161.979Z" fill="#FFC0B8" stroke="#FFC0B8" stroke-width="1.5" stroke-miterlimit="10" stroke-linecap="round"/>
<path d="M127.664 118.073C122.492 119.86 118.61 123.7 116.621 128.372C112.174 125.93 106.754 125.299 101.575 127.089C91.8664 130.444 86.7179 141.027 90.0679 150.721C97.3497 171.793 126.333 174.951 131.313 173.23C136.777 171.342 157.575 147.695 151.308 129.559C147.956 119.859 137.368 114.72 127.664 118.073Z" fill="#E59689" stroke="#5E4040" stroke-width="1.5" stroke-miterlimit="10"/>
<path d="M97.7359 138.57C97.7359 138.57 94.7189 143.421 99.2863 152.388" stroke="#FFC0B8" stroke-width="1.5" stroke-miterlimit="10" stroke-linecap="round"/>
<path d="M102.124 156.524C102.385 156.434 102.524 156.149 102.434 155.888C102.343 155.627 102.059 155.489 101.798 155.579C101.537 155.669 101.398 155.954 101.488 156.215C101.579 156.476 101.863 156.614 102.124 156.524Z" fill="#FFC0B8" stroke="#FFC0B8" stroke-width="1.5" stroke-miterlimit="10" stroke-linecap="round"/>
<circle cx="246.5" cy="132.5" r="9.75" fill="#6D4B43" stroke="#5D4040" stroke-width="1.5"/>
<defs>
<filter id="filter0_b_1608_8322" x="122" y="65" width="123" height="45" filterUnits="userSpaceOnUse" color-interpolation-filters="sRGB">
<feFlood flood-opacity="0" result="BackgroundImageFix"/>
<feGaussianBlur in="BackgroundImageFix" stdDeviation="2.5"/>
<feComposite in2="SourceAlpha" operator="in" result="effect1_backgroundBlur_1608_8322"/>
<feBlend mode="normal" in="SourceGraphic" in2="effect1_backgroundBlur_1608_8322" result="shape"/>
</filter>
<filter id="filter1_b_1608_8322" x="22" y="96" width="85" height="45" filterUnits="userSpaceOnUse" color-interpolation-filters="sRGB">
<feFlood flood-opacity="0" result="BackgroundImageFix"/>
<feGaussianBlur in="BackgroundImageFix" stdDeviation="2.5"/>
<feComposite in2="SourceAlpha" operator="in" result="effect1_backgroundBlur_1608_8322"/>
<feBlend mode="normal" in="SourceGraphic" in2="effect1_backgroundBlur_1608_8322" result="shape"/>
</filter>
<filter id="filter2_b_1608_8322" x="188" y="179" width="118" height="45" filterUnits="userSpaceOnUse" color-interpolation-filters="sRGB">
<feFlood flood-opacity="0" result="BackgroundImageFix"/>
<feGaussianBlur in="BackgroundImageFix" stdDeviation="2.5"/>
<feComposite in2="SourceAlpha" operator="in" result="effect1_backgroundBlur_1608_8322"/>
<feBlend mode="normal" in="SourceGraphic" in2="effect1_backgroundBlur_1608_8322" result="shape"/>
</filter>
<filter id="filter3_b_1608_8322" x="110" y="218" width="116" height="45" filterUnits="userSpaceOnUse" color-interpolation-filters="sRGB">
<feFlood flood-opacity="0" result="BackgroundImageFix"/>
<feGaussianBlur in="BackgroundImageFix" stdDeviation="2.5"/>
<feComposite in2="SourceAlpha" operator="in" result="effect1_backgroundBlur_1608_8322"/>
<feBlend mode="normal" in="SourceGraphic" in2="effect1_backgroundBlur_1608_8322" result="shape"/>
</filter>
<linearGradient id="paint0_linear_1608_8322" x1="180" y1="0" x2="180" y2="378" gradientUnits="userSpaceOnUse">
<stop/>
<stop offset="1" stop-color="#C5A9A9"/>
</linearGradient>
</defs>
</svg>
