<svg width="40" height="40" viewBox="0 0 40 40" fill="none" xmlns="http://www.w3.org/2000/svg">
<path d="M5.85796 34.1421C-1.95253 26.3316 -1.95253 13.6684 5.85796 5.85786C13.6684 -1.95262 26.3317 -1.95262 34.1422 5.85786C41.9527 13.6684 41.9527 26.3316 34.1422 34.1421C26.3317 41.9526 13.6684 41.9526 5.85796 34.1421Z" fill="#CFCFCF"/>
<path d="M15.1093 13.1057C14.556 12.5525 13.659 12.5525 13.1058 13.1057C12.5526 13.659 12.5526 14.5559 13.1058 15.1092L17.9966 20L13.1058 24.8908C12.5526 25.4441 12.5526 26.341 13.1058 26.8943C13.659 27.4475 14.556 27.4475 15.1093 26.8943L20.0001 22.0035L24.8909 26.8943C25.4442 27.4475 26.3411 27.4475 26.8944 26.8943C27.4476 26.341 27.4476 25.4441 26.8944 24.8908L22.0036 20L26.8944 15.1092C27.4476 14.5559 27.4476 13.659 26.8944 13.1057C26.3411 12.5525 25.4442 12.5525 24.8909 13.1057L20.0001 17.9965L15.1093 13.1057Z" fill="white"/>
</svg>
