<svg width="24" height="24" viewBox="0 0 24 24" fill="none" xmlns="http://www.w3.org/2000/svg">
<path d="M0 12C0 5.37258 5.37258 0 12 0C18.6274 0 24 5.37258 24 12C24 18.6274 18.6274 24 12 24C5.37258 24 0 18.6274 0 12Z" fill="#B8B8B8"/>
<path d="M12.85 7C12.85 6.53056 12.4694 6.15 12 6.15C11.5306 6.15 11.15 6.53056 11.15 7V11.15H7C6.53056 11.15 6.15 11.5306 6.15 12C6.15 12.4694 6.53056 12.85 7 12.85H11.15V17C11.15 17.4694 11.5306 17.85 12 17.85C12.4694 17.85 12.85 17.4694 12.85 17V12.85H17C17.4694 12.85 17.85 12.4694 17.85 12C17.85 11.5306 17.4694 11.15 17 11.15H12.85V7Z" fill="white"/>
</svg>
