<svg width="25" height="24" viewBox="0 0 25 24" fill="none" xmlns="http://www.w3.org/2000/svg">
<path d="M0.757324 12C0.757324 5.37258 6.12991 0 12.7573 0C19.3847 0 24.7573 5.37258 24.7573 12C24.7573 18.6274 19.3847 24 12.7573 24C6.12991 24 0.757324 18.6274 0.757324 12Z" fill="#AABFFF"/>
<path d="M13.6073 7C13.6073 6.53056 13.2268 6.15 12.7573 6.15C12.2879 6.15 11.9073 6.53056 11.9073 7V11.15H7.75732C7.28788 11.15 6.90732 11.5306 6.90732 12C6.90732 12.4694 7.28788 12.85 7.75732 12.85H11.9073V17C11.9073 17.4694 12.2879 17.85 12.7573 17.85C13.2268 17.85 13.6073 17.4694 13.6073 17V12.85H17.7573C18.2268 12.85 18.6073 12.4694 18.6073 12C18.6073 11.5306 18.2268 11.15 17.7573 11.15H13.6073V7Z" fill="white"/>
</svg>
