<svg width="25" height="24" viewBox="0 0 25 24" fill="none" xmlns="http://www.w3.org/2000/svg">
<path d="M0.757324 8.65192C0.757324 8.32436 0.917739 8.01758 1.18674 7.83068L11.9008 0.386692C12.2368 0.153184 12.6813 0.148023 13.0227 0.373664L24.3087 7.83253C24.5888 8.01766 24.7573 8.33102 24.7573 8.66679V23C24.7573 23.5523 24.3096 24 23.7573 24H1.75732C1.20504 24 0.757324 23.5523 0.757324 23V8.65192Z" fill="#FFD5CC"/>
<path d="M4.75732 10.6227C4.75732 10.2846 4.9282 9.96934 5.21153 9.78479L12.0249 5.34678C12.3498 5.13514 12.7678 5.13041 13.0974 5.33464L20.284 9.78739C20.5783 9.96971 20.7573 10.2913 20.7573 10.6374V19C20.7573 19.5523 20.3096 20 19.7573 20H5.75732C5.20504 20 4.75732 19.5523 4.75732 19V10.6227Z" fill="#FFA48F"/>
</svg>
