<svg width="25" height="24" viewBox="0 0 25 24" fill="none" xmlns="http://www.w3.org/2000/svg">
<path d="M12.7573 23L11.1623 21.5123C9.31066 19.7766 7.77982 18.2793 6.56982 17.0204C5.35982 15.7616 4.39732 14.6313 3.68232 13.6295C2.96732 12.6286 2.46792 11.7084 2.18412 10.8692C1.89959 10.03 1.75732 9.17166 1.75732 8.29428C1.75732 6.50136 2.33482 5.00409 3.48982 3.80245C4.64482 2.60082 6.08399 2 7.80732 2C8.76066 2 9.66816 2.20981 10.5298 2.62943C11.3915 3.04905 12.134 3.64033 12.7573 4.40327C13.3807 3.64033 14.1232 3.04905 14.9848 2.62943C15.8465 2.20981 16.754 2 17.7073 2C19.4307 2 20.8698 2.60082 22.0248 3.80245C23.1798 5.00409 23.7573 6.50136 23.7573 8.29428C23.7573 9.17166 23.6154 10.03 23.3316 10.8692C23.0471 11.7084 22.5473 12.6286 21.8323 13.6295C21.1173 14.6313 20.1548 15.7616 18.9448 17.0204C17.7348 18.2793 16.204 19.7766 14.3523 21.5123L12.7573 23Z" fill="#FFD5CC"/>
<path d="M12.7573 19L11.7423 18.079C10.564 17.0045 9.58982 16.0777 8.81982 15.2984C8.04982 14.5191 7.43732 13.8194 6.98232 13.1992C6.52732 12.5796 6.20952 12.01 6.02892 11.4905C5.84786 10.9709 5.75732 10.4396 5.75732 9.89646C5.75732 8.78656 6.12482 7.85967 6.85982 7.1158C7.59482 6.37193 8.51066 6 9.60732 6C10.214 6 10.7915 6.12988 11.3398 6.38965C11.8882 6.64941 12.3607 7.01544 12.7573 7.48774C13.154 7.01544 13.6265 6.64941 14.1748 6.38965C14.7232 6.12988 15.3007 6 15.9073 6C17.004 6 17.9198 6.37193 18.6548 7.1158C19.3898 7.85967 19.7573 8.78656 19.7573 9.89646C19.7573 10.4396 19.667 10.9709 19.4864 11.4905C19.3054 12.01 18.9873 12.5796 18.5323 13.1992C18.0773 13.8194 17.4648 14.5191 16.6948 15.2984C15.9248 16.0777 14.9507 17.0045 13.7723 18.079L12.7573 19Z" fill="#FFA48F"/>
</svg>
