<svg width="25" height="24" viewBox="0 0 25 24" fill="none" xmlns="http://www.w3.org/2000/svg">
<path fill-rule="evenodd" clip-rule="evenodd" d="M9.83692 2.58C9.3724 2.64282 4.09009 1 4.09009 1L2.30389 7.49682C1.32297 9.09376 0.757324 11.9732 0.757324 13.9847C0.757324 19.7837 4.45833 23.4847 10.2573 23.4847H15.2573C21.0563 23.4847 24.7573 19.7837 24.7573 13.9847C24.7573 11.5596 23.9352 8.32657 22.5544 6.54903L21.0288 1C21.0288 1 15.78 2.58745 15.4035 2.54658C15.0271 2.50571 12.7573 2.5 12.7573 2.5C12.7573 2.5 10.3014 2.51718 9.83692 2.58ZM8.72726 8.83141C8.32716 8.7242 7.91591 8.96164 7.8087 9.36174C7.70149 9.76184 7.93893 10.1731 8.33903 10.2803L9.78792 10.6685C10.188 10.7757 10.5993 10.5383 10.7065 10.1382C10.8137 9.73809 10.5762 9.32684 10.1761 9.21963L8.72726 8.83141ZM15.3388 9.21967C14.9387 9.32687 14.7013 9.73813 14.8085 10.1382C14.9157 10.5383 15.327 10.7758 15.7271 10.6686L17.1759 10.2803C17.576 10.1731 17.8135 9.76187 17.7063 9.36177C17.5991 8.96167 17.1878 8.72423 16.7877 8.83144L15.3388 9.21967ZM10.118 12.4591C11.7163 13.5247 13.7986 13.5247 15.3969 12.4591C15.6956 12.26 16.0992 12.3407 16.2983 12.6394C16.4974 12.9381 16.4167 13.3417 16.118 13.5408C14.083 14.8975 11.4319 14.8975 9.3969 13.5408C9.09821 13.3417 9.01749 12.9381 9.21662 12.6394C9.41575 12.3407 9.81932 12.26 10.118 12.4591Z" fill="#FFA48F"/>
</svg>
