<svg width="24" height="24" viewBox="0 0 24 24" fill="none" xmlns="http://www.w3.org/2000/svg">
<path fill-rule="evenodd" clip-rule="evenodd" d="M9.07959 2.58C8.61508 2.64282 3.33276 1 3.33276 1L1.54656 7.49682C0.56565 9.09376 0 11.9732 0 13.9847C0 19.7837 3.70101 23.4847 9.5 23.4847H14.5C20.299 23.4847 24 19.7837 24 13.9847C24 11.5596 23.1779 8.32657 21.7971 6.54903L20.2715 1C20.2715 1 15.0227 2.58745 14.6462 2.54658C14.2697 2.50571 12 2.5 12 2.5C12 2.5 9.54411 2.51718 9.07959 2.58ZM7.75 9C7.33579 9 7 9.33579 7 9.75C7 10.1642 7.33579 10.5 7.75 10.5H9.25C9.66421 10.5 10 10.1642 10 9.75C10 9.33579 9.66421 9 9.25 9H7.75ZM14.75 9C14.3358 9 14 9.33579 14 9.75C14 10.1642 14.3358 10.5 14.75 10.5H16.25C16.6642 10.5 17 10.1642 17 9.75C17 9.33579 16.6642 9 16.25 9H14.75ZM8.63944 13.4592L11.6394 11.4592C11.8578 11.3136 12.1422 11.3136 12.3606 11.4592L15.3606 13.4592C15.6592 13.6583 15.74 14.0619 15.5408 14.3606C15.3417 14.6592 14.9381 14.74 14.6394 14.5408L12 12.7812L9.36056 14.5408C9.06186 14.74 8.6583 14.6592 8.45917 14.3606C8.26004 14.0619 8.34075 13.6583 8.63944 13.4592Z" fill="#B8B8B8"/>
</svg>
