<svg width="504" height="145" viewBox="0 0 504 145" fill="none" xmlns="http://www.w3.org/2000/svg">
<path d="M349.27 41.7644L348.721 30.0186L285.717 32.9991L286.266 44.7449L298.091 44.1959L300.463 94.5126L288.639 95.0617L289.188 106.807L352.192 103.827L351.643 92.0811L339.819 92.6301L337.446 42.3134L349.27 41.7644ZM328.053 93.1988L312.209 93.9439L309.836 43.6272L325.68 42.8821L328.053 93.1988Z" fill="#FF7A5C"/>
<path d="M391.253 63.1776L372.585 63.0011L372.977 21.4692L361.212 21.3516L360.271 121.044L372.036 121.161L372.487 74.7665L391.155 74.943L391.253 63.1776Z" fill="#FF7A5C"/>
<path d="M471.275 30.0455L461.56 71.066L448.241 67.917L445.531 79.3704L458.849 82.5195L448.3 127.07L459.753 129.781L482.709 32.7573L471.275 30.0455Z" fill="#FF7A5C"/>
<path d="M491.808 29.9776L468.347 126.87L479.782 129.639L503.242 32.7464L491.808 29.9776Z" fill="#FF7A5C"/>
<path d="M231.949 58.548L222.615 61.1952L214.811 33.5661L224.145 30.9189L220.949 19.6045L160.219 36.7624L163.416 48.0768L173.024 45.3707L180.829 72.9998L171.22 75.7059L174.416 87.0203L235.146 69.8624L231.949 58.548ZM184.358 42.1549L203.497 36.7428L211.301 64.3719L192.163 69.784L184.358 42.1549Z" fill="black"/>
<path d="M271.971 43.2142L271.442 31.4684L253.637 32.2724L252.559 8.4082L240.813 8.93765L243.401 66.5881L255.167 66.0587L254.166 44.0182L271.971 43.2142Z" fill="black"/>
<path fill-rule="evenodd" clip-rule="evenodd" d="M239.479 86.0799C227.799 86.0799 218.831 95.0233 218.831 105.454C218.831 115.884 227.799 124.827 239.479 124.827C251.159 124.827 260.128 115.884 260.128 105.454C260.128 95.0233 251.159 86.0799 239.479 86.0799ZM207.066 105.454C207.066 87.9863 221.854 74.3145 239.479 74.3145C257.105 74.3145 271.893 87.9863 271.893 105.454C271.893 122.921 257.105 136.593 239.479 136.593C221.854 136.593 207.066 122.921 207.066 105.454Z" fill="black"/>
<path d="M349.27 41.7644L348.721 30.0186L285.717 32.9991L286.266 44.7449L298.091 44.1959L300.463 94.5126L288.639 95.0617L289.188 106.807L352.192 103.827L351.643 92.0811L339.819 92.6301L337.446 42.3134L349.27 41.7644ZM328.053 93.1988L312.209 93.9439L309.836 43.6272L325.68 42.8821L328.053 93.1988Z" fill="#FF7A5C"/>
<path d="M412.45 20.1738L410.646 31.802L438.393 36.1356L436.197 50.1952L408.45 45.8616L407.842 49.7442L406.626 57.4898L403.234 79.2754L401.41 90.9035L413.039 92.7272L440.785 97.0608L442.609 85.4326L414.843 81.099L418.255 59.3134L446.001 63.647L446.374 61.2547L447.825 52.0189L450.021 37.9592L451.825 26.3507L451.845 26.3311L412.45 20.1738Z" fill="#FF7A5C"/>
<path d="M391.253 63.1776L372.585 63.0011L372.977 21.4692L361.212 21.3516L360.271 121.044L372.036 121.161L372.487 74.7665L391.155 74.943L391.253 63.1776Z" fill="#FF7A5C"/>
<path d="M231.949 58.548L222.615 61.1952L214.811 33.5661L224.145 30.9189L220.949 19.6045L160.219 36.7624L163.416 48.0768L173.024 45.3707L180.829 72.9998L171.22 75.7059L174.416 87.0203L235.146 69.8624L231.949 58.548ZM184.358 42.1549L203.497 36.7428L211.301 64.3719L192.163 69.784L184.358 42.1549Z" fill="#678CFF"/>
<path d="M271.971 43.2142L271.442 31.4684L253.637 32.2724L252.559 8.4082L240.813 8.93765L243.401 66.5881L255.167 66.0587L254.166 44.0182L271.971 43.2142Z" fill="#678CFF"/>
<path fill-rule="evenodd" clip-rule="evenodd" d="M239.479 86.0799C227.799 86.0799 218.831 95.0233 218.831 105.454C218.831 115.884 227.799 124.827 239.479 124.827C251.159 124.827 260.128 115.884 260.128 105.454C260.128 95.0233 251.159 86.0799 239.479 86.0799ZM207.066 105.454C207.066 87.9863 221.854 74.3145 239.479 74.3145C257.105 74.3145 271.893 87.9863 271.893 105.454C271.893 122.921 257.105 136.593 239.479 136.593C221.854 136.593 207.066 122.921 207.066 105.454Z" fill="#678CFF"/>
<path d="M17.4881 138.627C11.3098 141.917 4.51512 135.424 7.45536 129.039L46.0374 45.2599C48.1373 40.7 54.0617 39.561 57.6823 43.0211L100.173 83.6276C103.794 87.0876 102.973 93.1045 98.5608 95.4543L17.4881 138.627Z" fill="#FFA48F"/>
<path d="M74.7789 44.0417C89.6772 32.6539 69.0801 16.7123 82.3102 6.04379" stroke="#678CFF" stroke-width="10" stroke-linecap="round"/>
<ellipse cx="103.612" cy="13.7492" rx="7.29814" ry="7.34882" fill="#FF7A5C"/>
<ellipse cx="10.9544" cy="11.03" rx="10.9544" ry="11.03" transform="matrix(0.998552 -0.0537929 0.0530556 0.998592 89.0161 36.9287)" fill="#AABFFF"/>
<path d="M110.91 66.1318C130.577 70.1427 123.279 59.1194 139.486 61.8529" stroke="#FFA48F" stroke-width="10" stroke-linecap="round"/>
<line x1="5" y1="-5" x2="23.2891" y2="-5" transform="matrix(-0.257978 0.966151 -0.96525 -0.26133 125.507 13.7539)" stroke="#FFD5CC" stroke-width="10" stroke-linecap="round"/>
</svg>
