<svg width="95" height="27" viewBox="0 0 95 27" fill="none" xmlns="http://www.w3.org/2000/svg">
<path d="M40.5558 12.9156C40.5558 17.2302 37.4948 20.0579 33.7633 20.0579C31.7227 20.0579 30.2068 19.5988 28.8949 18.174V26.3257H26.3586V6.09397H28.8949V7.62811C30.0245 6.31626 31.781 5.74414 33.7342 5.74414C37.4657 5.74414 40.5558 8.63022 40.5558 12.9156ZM37.9904 12.9448C37.9904 10.2336 36.0081 8.13463 33.501 8.13463C30.9939 8.13463 29.088 10.0295 29.088 12.9448C29.088 15.86 31.2854 17.6675 33.501 17.6675C36.0081 17.6675 37.9904 15.6851 37.9904 12.9448Z" fill="#FF7A5C"/>
<path d="M53.9842 6.33811H56.5204V19.9523H53.9842V17.897C52.7816 19.5368 51.1856 20.3021 48.9991 20.3021C45.4425 20.3021 42.3232 17.2994 42.3232 13.1306C42.3232 8.96182 45.1947 5.98828 49.0429 5.98828C51.0835 5.98828 52.7561 6.50938 53.9842 8.10183V6.33811ZM53.7692 13.1306C53.7692 10.332 51.6228 8.37877 49.349 8.37877C46.871 8.37877 44.8886 10.5652 44.8886 13.1306C44.8886 15.696 46.871 17.9116 49.3781 17.9116C51.8852 17.9116 53.7692 15.9001 53.7692 13.1306Z" fill="#FF7A5C"/>
<path d="M69.453 7.25502L67.9371 8.87298C66.9423 8.1551 65.4009 7.77247 64.2821 8.41018C63.3201 8.95679 62.7334 9.6528 62.369 10.6586C61.9208 11.8939 61.9062 13.6467 61.9062 14.9585V19.9436H59.3408V6.32943H61.9062C61.9062 6.32943 61.9062 7.68866 61.9062 7.69231C62.4455 6.62096 63.9688 6.07435 64.7413 5.92494C66.1588 5.648 68.1631 5.90308 69.4567 7.25866L69.453 7.25502Z" fill="#FF7A5C"/>
<path d="M79.2374 6.22442V8.77525H76.293V20.203H73.7567V8.77525H70.5791V6.22442H73.7567V1.45801H76.293V6.22442H79.2374Z" fill="#FF7A5C"/>
<path d="M91.9114 6.45898H94.6554L86.1939 26.7089H83.5082L86.3688 19.6759L80.8845 6.45898H83.6285L87.7426 16.4947L91.915 6.45898H91.9114Z" fill="#FF7A5C"/>
<path d="M14.8867 9.82136L12.9801 10.3651L11.3859 4.69002L13.2925 4.14627L12.6396 1.82227L0.234619 5.34654L0.887514 7.67054L2.85021 7.11471L4.44439 12.7898L2.4817 13.3456L3.1346 15.6696L15.5396 12.1454L14.8867 9.82136ZM5.16538 6.45417L9.07474 5.34251L10.6689 11.0176L6.75957 12.1293L5.16538 6.45417Z" fill="#678CFF"/>
<path d="M22.8276 7.19413L22.7223 4.76636L19.1824 4.93254L18.968 0L16.6327 0.109432L17.1473 12.0253L19.4865 11.9159L19.2876 7.3603L22.8276 7.19413Z" fill="#678CFF"/>
<path fill-rule="evenodd" clip-rule="evenodd" d="M16.2684 15.1644C13.9048 15.1644 12.09 16.9959 12.09 19.132C12.09 21.268 13.9048 23.0996 16.2684 23.0996C18.632 23.0996 20.4468 21.268 20.4468 19.132C20.4468 16.9959 18.632 15.1644 16.2684 15.1644ZM9.70911 19.132C9.70911 15.5548 12.7017 12.7549 16.2684 12.7549C19.8351 12.7549 22.8277 15.5548 22.8277 19.132C22.8277 22.7091 19.8351 25.509 16.2684 25.509C12.7017 25.509 9.70911 22.7091 9.70911 19.132Z" fill="#678CFF"/>
</svg>
