<svg width="89" height="89" viewBox="0 0 89 89" fill="none" xmlns="http://www.w3.org/2000/svg">
<circle cx="44.5" cy="44.5" r="44.5" fill="#E8E8E8"/>
<ellipse cx="40.8881" cy="62.0614" rx="19.4836" ry="16.6324" transform="rotate(5.11264 40.8881 62.0614)" fill="white"/>
<path d="M50.1176 11.9774C50.9466 10.7953 52.7378 11.1924 52.9897 12.614L61.3413 59.7634C61.5467 60.9228 60.5291 61.9354 59.4083 61.687L23.5636 53.7415C22.4429 53.4931 21.9485 52.1453 22.6246 51.1813L50.1176 11.9774Z" fill="#FFA48F"/>
<circle cx="27.478" cy="65.7218" r="2.62764" transform="rotate(16.6066 27.478 65.7218)" fill="#D9E2FF"/>
<circle cx="44.926" cy="67.2829" r="2.62764" transform="rotate(16.6066 44.926 67.2829)" fill="#D9E2FF"/>
<path d="M30.8213 62.592L30.906 61.6454" stroke="#303030" stroke-width="3" stroke-linecap="round" stroke-linejoin="round"/>
<path d="M42.1812 63.6084L42.2658 62.6618" stroke="#303030" stroke-width="3" stroke-linecap="round" stroke-linejoin="round"/>
<path d="M39.1706 67.1641V67.1641C37.1181 67.5689 34.9934 67.3933 33.0353 66.6569V66.6569" stroke="#6B6B6B" stroke-width="1.5" stroke-linecap="round" stroke-linejoin="round"/>
<path d="M49.8216 17.0265C52.1835 17.8377 54.7487 16.6008 55.5513 14.2639C56.3539 11.927 55.0899 9.37496 52.7281 8.56381C50.3663 7.75266 47.801 8.98954 46.9984 11.3265C46.1958 13.6634 47.4598 16.2154 49.8216 17.0265Z" fill="white"/>
<path d="M49.259 18.7944L49.6655 17.5826M46.647 17.0675L47.6076 16.2271M45.2421 14.2853L46.5046 14.0364M45.4276 11.1884L46.6488 11.5987M47.1475 8.60801L48.0013 9.56655M49.9418 7.23662L50.2024 8.48743M53.0666 7.43837L52.6612 8.64695M55.6798 9.16196L54.7181 10.0056M57.0836 11.9475L55.821 12.1963M56.898 15.0445L55.6768 14.6341M55.1781 17.6248L54.3254 16.6631M52.3806 18.995L52.1232 17.7454" stroke="#678CFF" stroke-width="1.5" stroke-miterlimit="10" stroke-linecap="round"/>
</svg>
