<svg width="25" height="24" viewBox="0 0 25 24" fill="none" xmlns="http://www.w3.org/2000/svg">
<path d="M10.9602 0.897012C11.8598 -0.299005 13.6549 -0.299004 14.5544 0.897013L15.5634 2.23851C16.0557 2.89293 16.8647 3.22805 17.6755 3.11336L19.3376 2.87825C20.8194 2.66864 22.0887 3.93794 21.8791 5.41975L21.644 7.08181C21.5293 7.89261 21.8644 8.70166 22.5188 9.19388L23.8603 10.2029C25.0563 11.1025 25.0563 12.8975 23.8603 13.7971L22.5188 14.8061C21.8644 15.2983 21.5293 16.1074 21.644 16.9182L21.8791 18.5802C22.0887 20.0621 20.8194 21.3314 19.3376 21.1217L17.6755 20.8866C16.8647 20.772 16.0557 21.1071 15.5634 21.7615L14.5544 23.103C13.6549 24.299 11.8598 24.299 10.9602 23.103L9.9512 21.7615C9.45898 21.1071 8.64993 20.772 7.83913 20.8866L6.17708 21.1217C4.69526 21.3314 3.42597 20.0621 3.63558 18.5802L3.87068 16.9182C3.98537 16.1074 3.65025 15.2983 2.99583 14.8061L1.65434 13.7971C0.45832 12.8975 0.45832 11.1025 1.65434 10.2029L2.99583 9.19388C3.65025 8.70166 3.98537 7.89261 3.87068 7.08181L3.63558 5.41975C3.42597 3.93794 4.69526 2.66864 6.17708 2.87825L7.83913 3.11336C8.64993 3.22805 9.45898 2.89293 9.9512 2.23851L10.9602 0.897012Z" fill="#FFD5CC"/>
<circle cx="12.7573" cy="12" r="4" fill="#FFA48F"/>
</svg>
