<svg width="349" height="171" viewBox="0 0 349 171" fill="none" xmlns="http://www.w3.org/2000/svg">
<g filter="url(#filter0_d_1547_8221)">
<path d="M61 17C36.6995 17 17 36.6995 17 61V93C17 117.301 36.6995 137 61 137H236.376C237.09 137 237.75 137.381 238.108 138L246.768 153C247.538 154.333 249.462 154.333 250.232 153L258.892 138C259.25 137.381 259.91 137 260.624 137H288C312.301 137 332 117.301 332 93V61C332 36.6995 312.301 17 288 17H61Z" fill="white"/>
<path d="M17.5 61C17.5 36.9756 36.9756 17.5 61 17.5H288C312.024 17.5 331.5 36.9756 331.5 61V93C331.5 117.024 312.024 136.5 288 136.5H260.624C259.731 136.5 258.906 136.976 258.459 137.75L249.799 152.75C249.222 153.75 247.778 153.75 247.201 152.75L238.541 137.75C238.094 136.976 237.269 136.5 236.376 136.5H61C36.9756 136.5 17.5 117.024 17.5 93V61Z" stroke="#CFCFCF"/>
</g>
<defs>
<filter id="filter0_d_1547_8221" x="0" y="0" width="349" height="171" filterUnits="userSpaceOnUse" color-interpolation-filters="sRGB">
<feFlood flood-opacity="0" result="BackgroundImageFix"/>
<feColorMatrix in="SourceAlpha" type="matrix" values="0 0 0 0 0 0 0 0 0 0 0 0 0 0 0 0 0 0 127 0" result="hardAlpha"/>
<feMorphology radius="4" operator="dilate" in="SourceAlpha" result="effect1_dropShadow_1547_8221"/>
<feOffset/>
<feGaussianBlur stdDeviation="6.5"/>
<feComposite in2="hardAlpha" operator="out"/>
<feColorMatrix type="matrix" values="0 0 0 0 0.820833 0 0 0 0 0.820833 0 0 0 0 0.820833 0 0 0 0.25 0"/>
<feBlend mode="normal" in2="BackgroundImageFix" result="effect1_dropShadow_1547_8221"/>
<feBlend mode="normal" in="SourceGraphic" in2="effect1_dropShadow_1547_8221" result="shape"/>
</filter>
</defs>
</svg>
