<svg width="24" height="24" viewBox="0 0 24 24" fill="none" xmlns="http://www.w3.org/2000/svg">
<path d="M14.7858 17.5L14.7981 15.7926M10.7932 16.3854L11.6544 14.9208M7.8831 13.4313L9.36716 12.5935M6.84204 9.42033L8.54543 9.43704M7.94159 5.43162L9.40892 6.29654M10.8886 2.53482L11.7308 4.01616M14.8982 1.5L14.8861 3.20289M18.891 2.60993L18.0296 4.07911M21.801 5.56866L20.3169 6.40648M22.842 9.57973L21.1386 9.56303M21.7425 13.5685L20.2753 12.699M18.7909 16.4651L17.9533 14.9839" stroke="#678CFF" stroke-width="2" stroke-miterlimit="10" stroke-linecap="round"/>
<path d="M1.98567 22.9778C1.05516 23.4851 0.0783171 22.3864 0.691051 21.5217L8.03365 11.1592C8.40564 10.6342 9.16942 10.592 9.59693 11.0729L13.4049 15.356C13.8324 15.8368 13.7012 16.5904 13.1363 16.8984L1.98567 22.9778Z" fill="#FFA48F"/>
</svg>
