<svg width="24" height="25" viewBox="0 0 24 25" fill="none" xmlns="http://www.w3.org/2000/svg">
<path fill-rule="evenodd" clip-rule="evenodd" d="M12 22.3999C13.4687 22.3999 14.8634 22.0833 16.1196 21.5146C16.6136 21.2736 17.2105 21.4771 17.4546 21.9704C17.6737 22.4131 17.5347 22.9397 17.1488 23.2212C15.5861 23.9664 13.8467 24.3999 12 24.3999C5.37258 24.3999 0 19.0273 0 12.3999C0 5.77249 5.37258 0.399902 12 0.399902C18.6274 0.399902 24 5.77249 24 12.3999C24 14.7791 23.3076 16.9966 22.1133 18.8619H22.0315V18.9607H16.5453V17.0059C15.2676 18.457 13.396 19.3725 11.3106 19.3725C7.45981 19.3725 4.3381 16.2508 4.3381 12.3999C4.3381 8.54911 7.45981 5.4274 11.3106 5.4274C13.396 5.4274 15.2676 6.34291 16.5453 7.79394V6.14102C16.5453 6.13921 16.5453 6.1374 16.5453 6.13558C16.5453 5.61187 17.0638 5.18732 17.5875 5.18732C18.1112 5.18732 18.5453 5.6119 18.5453 6.13561V16.9607H20.9018C21.6038 15.5932 22 14.0428 22 12.3999C22 6.87706 17.5228 2.3999 12 2.3999C6.47715 2.3999 2 6.87706 2 12.3999C2 17.9228 6.47715 22.3999 12 22.3999ZM11.3106 17.3725C14.0569 17.3725 16.2832 15.1462 16.2832 12.3999C16.2832 9.65368 14.0569 7.4274 11.3106 7.4274C8.56438 7.4274 6.3381 9.65368 6.3381 12.3999C6.3381 15.1462 8.56438 17.3725 11.3106 17.3725Z" fill="#FF7A5C"/>
</svg>
