<svg width="200" height="200" viewBox="0 0 200 200" fill="none" xmlns="http://www.w3.org/2000/svg">
<path d="M189.563 185.543C187.37 188.866 185.276 190.628 183.88 191.625C178.164 195.779 171.85 195.978 168.46 196.011C155.167 196.211 130.242 189.697 107.145 170.222C99.1022 163.443 94.6489 157.926 92.2561 150.814C91.093 147.424 90.4615 143.868 90.3286 140.246C90.4948 140.346 91.0598 140.711 91.7244 140.678C94.3831 140.578 96.1112 134.264 99.8998 123.264C102.791 114.889 103.423 113.825 104.187 113.825C106.945 113.825 106.38 127.484 116.284 137.122C116.915 137.72 121.468 142.173 123.363 141.044C124.393 140.412 124.293 138.385 123.23 132.403C121.069 120.173 119.109 113.061 119.109 113.061C116.683 104.354 115.652 102.094 116.616 101.396C117.813 100.532 120.504 103.324 132.103 111.067C132.103 111.067 133.465 111.998 142.638 116.451C144.864 117.548 147.59 118.81 149.783 117.714C150.049 117.581 151.046 117.049 151.478 115.986C152.209 114.158 150.78 112.031 149.883 110.735C145.13 103.855 142.771 100.432 139.68 97.5411C135.692 93.7525 133.698 92.7223 134.064 91.5259C134.429 90.3295 136.722 90.3295 144.2 89.4322C149.75 88.7675 153.073 88.2358 155.931 87.6376C166.067 85.5106 166.566 83.4834 166.632 82.9849C166.732 82.287 166.333 81.722 166.2 81.5226C166.632 81.6223 167.064 81.722 167.463 81.8217C186.107 86.8067 192.887 114.49 195.08 123.397C196.708 130.077 196.476 140.379 195.944 160.984C195.745 166.799 195.346 176.803 189.563 185.543Z" fill="#BC2B55"/>
<path d="M142.14 150.648C142.173 151.08 142.439 154.636 140.877 155.301C139.448 155.899 136.955 153.905 136.025 151.678C134.629 148.355 136.257 143.868 138.019 143.636C139.714 143.403 141.907 147.258 142.14 150.648Z" fill="#FFB000"/>
<path d="M176.436 116.95C176.402 117.182 176.203 118.246 175.439 118.578C173.644 119.409 169.556 115.986 168.493 111.865C168.227 110.835 167.895 109.472 168.46 109.04C169.922 107.977 177.133 112.995 176.436 116.95Z" fill="#FFB000"/>
<path d="M175.971 151.578C175.838 152.542 175.207 154.104 174.343 154.171C172.282 154.337 169.291 146.195 170.62 145.264C171.418 144.699 173.611 146.726 173.778 146.893C174.442 147.524 176.337 149.285 175.971 151.578Z" fill="#FFB000"/>
<path d="M189.663 176.404C189.464 176.703 188.865 177.7 188.101 177.633C187.004 177.567 186.373 175.174 186.074 173.911C185.509 171.685 185.176 168.328 186.173 167.929C186.473 167.796 186.838 168.062 187.403 168.428C188.732 169.325 189.331 170.621 189.596 171.219C189.896 171.884 190.926 174.41 189.663 176.404Z" fill="#FFB000"/>
<path d="M191.823 134.098C191.69 134.33 191.225 135.061 190.693 135.028C189.862 134.962 189.43 133.2 189.198 132.27C188.766 130.608 188.533 128.116 189.264 127.85C189.497 127.75 189.763 127.949 190.195 128.215C191.192 128.88 191.624 129.844 191.823 130.276C191.989 130.741 192.754 132.635 191.823 134.098Z" fill="#FFB000"/>
<path d="M103.722 146.062C103.656 146.461 103.057 149.485 101.695 149.651C100.1 149.85 97.6737 146.029 98.2386 142.838C98.3383 142.306 98.6042 140.711 99.8338 140.18C100.931 139.714 102.06 140.379 102.193 140.445C103.988 141.575 104.021 144.467 103.722 146.062Z" fill="#FFB000"/>
<path d="M174.276 91.8245C174.409 92.6886 174.21 93.9514 173.512 94.2173C172.482 94.6161 170.355 92.7218 170.155 90.6281C170.122 90.4619 169.989 88.9997 170.687 88.6673C171.651 88.2021 174.01 89.764 174.276 91.8245Z" fill="#FFB000"/>
<path d="M144.3 95.0814C143.336 95.5799 140.445 93.3533 140.278 90.6946C140.278 90.5617 140.245 90.2626 140.278 89.897C141.043 89.7973 141.907 89.7308 142.837 89.5979C143.768 90.462 144.599 91.8578 144.698 93.32C144.765 93.7853 144.798 94.8155 144.3 95.0814Z" fill="#FFB000"/>
<path d="M133.133 178.398C133.433 179.062 134.13 180.591 133.665 180.99C132.834 181.721 128.248 179.229 128.414 176.67C128.448 176.005 128.813 175.174 129.445 174.975C130.641 174.576 132.336 176.703 133.133 178.398Z" fill="#FFB000"/>
<path d="M140.279 89.8974C141.043 89.7977 141.907 89.7312 142.838 89.5983C143.236 89.565 143.668 89.4986 144.1 89.4653C149.65 88.8007 152.974 88.2689 155.832 87.6707C165.968 85.5438 166.466 83.5166 166.533 83.0181C166.633 82.3202 166.234 81.7552 166.101 81.5558C163.575 77.7008 148.653 76.4046 133.167 81.0241C127.75 82.6525 118.976 85.9759 110.036 92.9216C106.181 95.9458 100.199 100.665 95.1809 108.94C95.1809 108.94 89.2986 118.677 88.5343 134.031C88.3349 138.119 89.2322 139.681 90.2956 140.346C90.4618 140.445 91.0268 140.811 91.6914 140.778C94.3501 140.678 96.0782 134.364 99.8668 123.363C102.758 114.989 103.39 113.925 104.154 113.925C106.912 113.925 106.347 127.584 116.251 137.222C116.882 137.82 121.435 142.273 123.33 141.143C124.36 140.512 124.26 138.484 123.197 132.502C122.432 128.149 121.701 124.46 121.036 121.502C120.638 119.608 120.272 118.046 119.973 116.783C119.408 114.424 119.076 113.194 119.076 113.194C116.65 104.487 115.619 102.227 116.583 101.529C117.78 100.665 120.471 103.457 132.07 111.2C132.07 111.2 133.432 112.13 142.605 116.584C144.832 117.68 147.557 118.943 149.75 117.847C150.016 117.714 151.013 117.182 151.445 116.118C152.176 114.291 150.747 112.164 149.85 110.868C145.097 103.988 142.738 100.565 139.647 97.674C135.659 93.8854 133.665 92.8551 134.031 91.6587C134.297 90.562 135.825 90.3959 140.279 89.8974Z" fill="#2BB22B"/>
<path d="M122.631 121.669C122.398 121.868 121.767 121.768 121.036 121.436C120.637 119.542 120.272 117.98 119.972 116.717C120.803 117.182 121.701 118.445 122.199 119.475C122.432 120.04 123.03 121.303 122.631 121.669Z" fill="#FFB000"/>
<path d="M164.273 182.984C164.307 183.15 164.606 184.845 163.742 185.41C162.645 186.174 160.02 184.778 158.823 182.718C158.125 181.488 157.593 179.428 158.391 178.829C159.587 177.932 163.742 179.993 164.273 182.984Z" fill="#FFB000"/>
<path d="M146.327 126.321C146.361 127.152 146.095 128.614 145.33 128.847C144.234 129.179 142.24 126.952 141.808 124.56C141.641 123.696 141.542 121.835 142.306 121.502C143.403 121.07 146.294 123.529 146.327 126.321Z" fill="#FFB000"/>
<path d="M117.913 47.1919C116.517 52.044 108.84 54.9685 102.293 57.1951C99.6343 58.0924 96.5769 59.0894 93.1539 60.1197C91.7581 59.8538 90.329 59.7873 88.9332 59.8206C88.7338 58.3583 88.3018 56.9625 87.5707 55.7661C84.5797 50.8808 77.0689 49.5182 71.4857 50.8808C71.3196 50.914 71.1866 50.9473 71.0205 51.0137C72.2833 47.0257 72.2501 42.9048 70.389 39.9138C67.398 35.0285 59.8873 33.6659 54.3041 35.0617C53.2074 35.3276 52.0775 35.7264 50.9808 36.2581C51.6122 33.0013 51.2799 29.8109 49.7844 27.3848C49.02 26.1552 47.9898 25.1582 46.7601 24.3606C46.0955 17.3151 47.0925 10.3362 47.7239 6.01582C47.8236 5.38439 47.9898 4.32092 48.6877 4.02182C51.7451 2.75896 60.3858 18.3786 62.8118 17.0825C63.7424 16.584 63.3103 13.726 65.404 8.70772C65.6367 8.17599 65.9025 7.54455 66.2681 7.54455C67.398 7.51132 68.4615 13.2607 70.4887 17.7804C73.0145 23.4301 80.2261 11.8649 89.2323 8.74095C98.2718 5.61702 87.2383 15.8196 86.341 23.7956C85.4437 31.7384 109.638 20.9376 112.529 22.8319C112.728 22.9648 112.762 23.0645 112.828 23.1974C114.822 26.9528 98.1056 36.8231 99.8338 40.944C100.465 42.4395 103.356 42.7054 108.175 43.1707C113.36 43.6692 116.783 42.8716 117.813 44.6994C118.345 45.6299 118.046 46.6602 117.913 47.1919Z" fill="#2BB22B"/>
<path d="M101.562 65.2045C99.8334 62.4129 96.643 60.7513 93.1535 60.1198C91.7577 59.854 90.3287 59.7875 88.9329 59.8207C88.7335 58.3585 88.3015 56.9627 87.5703 55.7663C84.5793 50.881 77.0686 49.5184 71.4854 50.881C71.3193 50.9142 71.1863 50.9474 71.0201 51.0139C72.283 47.0259 72.2498 42.905 70.3887 39.914C67.3977 35.0287 59.887 33.6661 54.3038 35.0619C53.2071 35.3278 52.0772 35.7266 50.9805 36.2583C51.6119 33.0014 51.2796 29.811 49.7841 27.385C49.0197 26.1554 47.9895 25.1584 46.7598 24.3608C43.1374 22.0012 37.8865 21.5027 33.6991 22.5329C27.2186 24.1281 19.9073 30.2098 20.7381 38.4185C20.9375 40.3128 21.5357 42.0409 22.3998 43.5696C18.3453 46.4609 15.2214 50.9807 15.7864 56.5306C16.0855 59.4884 17.3816 62.0806 19.2426 64.1743C14.457 66.9327 10.4358 71.9177 11.0672 78.1323C11.5657 83.3499 15.2214 87.4376 19.5417 89.5313C16.6837 92.3561 14.7894 96.1447 15.2546 100.532C16.0855 108.707 24.3938 114.024 31.1402 113.493C34.9952 113.193 38.385 110.967 40.944 107.909C44.0347 110.402 47.9895 111.698 51.5122 111.432C57.5607 110.967 62.5124 105.749 64.8055 99.9333C66.4672 100.432 68.1953 100.664 69.7905 100.532C75.9719 100.033 81.0566 94.5828 83.25 88.5675C84.9781 89.0993 86.7063 89.3319 88.3679 89.199C99.0026 88.3349 106.347 72.9479 101.562 65.2045Z" fill="#EE5F9D"/>
<path d="M64.572 136.988C60.7502 135.659 63.708 130.907 64.2729 129.145C64.8379 127.384 54.6353 131.638 52.3422 131.937C50.0158 132.236 49.8164 125.889 47.9886 122.299C46.7257 119.774 45.3632 126.852 44.6653 131.372C42.8707 131.206 40.9431 131.239 38.9159 131.571C38.9159 131.571 37.6198 131.771 36.3237 132.136C22.9307 135.726 16.9154 145.729 16.9154 145.729C11.1328 155.366 11.864 168.959 19.4744 178.397C27.7827 188.7 40.2785 189.032 42.9039 189.032C45.3632 189.032 59.2214 188.699 67.3636 177.134C74.0103 167.696 72.1824 157.36 71.8169 155.366C71.0525 151.445 69.5238 148.155 67.7624 145.463C70.6205 144.001 73.4785 142.339 74.2429 141.176C75.8713 138.65 68.3938 138.351 64.572 136.988Z" fill="#374993"/>
<path d="M41.0759 139.946C41.5079 141.076 41.0759 142.206 40.9097 142.538C39.9127 144.798 36.9549 145.397 35.2933 145.729C32.9669 146.194 27.6828 146.726 26.9849 144.898C26.1209 142.605 32.269 136.59 37.2873 137.487C37.7193 137.587 40.3447 138.019 41.0759 139.946Z" fill="white"/>
</svg>
