<svg width="200" height="201" viewBox="0 0 200 201" fill="none" xmlns="http://www.w3.org/2000/svg">
<path d="M144.134 148.788C144.134 148.788 65.0388 155.102 47.4252 156.099C29.8115 157.096 15.1888 164.075 8.54217 152.443C1.8955 140.812 1.8955 111.899 5.21883 100.932C8.54217 89.9646 39.7815 83.9826 73.6795 80.6592C165.636 71.653 182.751 71.7195 189.664 82.9856C192.256 87.2062 193.619 96.9768 196.31 116.551C197.474 124.993 197.806 130.11 194.649 134.165C192.057 137.488 188.002 138.95 180.026 141.809C175.373 143.47 171.419 144.5 168.727 145.132C168.959 146.295 169.358 148.056 170.056 150.117C172.582 157.628 176.404 161.649 174.709 164.407C174.376 164.972 173.911 165.271 173.712 165.404C171.784 166.667 168.328 166.169 155.766 157.428C152.874 155.401 148.853 152.51 144.134 148.788Z" fill="#00FF9D"/>
<path d="M67.9301 117.914C69.2594 125.491 67.199 134.962 60.2864 140.845C54.0053 146.195 46.4946 146.162 43.0051 146.162C39.0171 146.162 31.307 146.129 25.7238 140.512C20.4397 135.195 20.2071 128.083 20.0741 123.563C19.9744 119.841 19.7418 113.195 24.0621 106.947C28.7148 100.167 37.4884 95.5477 46.6608 96.6444C58.3257 98.007 66.2352 108.077 67.9301 117.914Z" fill="#FF8FF0"/>
<path d="M95.1483 105.717C95.3477 100.865 93.121 96.7439 89.6648 95.3149C87.0726 94.2514 84.6133 95.049 83.8157 95.3149C78.6645 97.0098 74.6101 103.191 76.2053 107.877C77.0693 110.403 79.3292 111.799 79.9606 112.164C81.7885 113.294 83.5166 113.427 89.1995 114.025C89.1995 114.025 78.0663 113.626 76.1056 122.766C74.1116 131.905 78.8972 139.848 84.8459 137.854C90.7947 135.86 95.1815 128.714 95.1815 128.714C93.4866 132.702 93.9851 136.89 96.3779 139.349C98.3387 141.376 100.931 141.576 102.061 141.675C105.949 142.008 110.635 140.28 112.995 136.292C115.753 131.639 114.59 125.092 109.871 121.137C109.871 121.137 123.363 128.282 124.959 116.385C125.158 114.989 126.953 108.342 123.397 105.418C121.835 104.122 119.94 104.122 118.578 104.089C118.578 104.089 115.653 104.055 107.445 108.442C111.998 106.847 114.989 103.191 115.022 99.3694C115.022 98.8709 115.022 96.2454 113.161 94.185C110.203 90.8949 104.587 91.1607 101.031 93.0883C96.8764 95.3481 94.5168 100.366 95.1483 105.717Z" fill="#BB54F7"/>
<path d="M148.687 100.533C149.884 102.36 146.66 106.415 144.101 109.705C139.681 115.421 136.391 119.908 135.627 120.971C132.702 125.059 126.122 134.165 128.349 137.122C130.043 139.382 137.388 136.657 152.11 131.207C152.11 131.207 160.751 128.017 174.011 119.974C178.398 117.315 179.86 116.152 180.093 114.358C180.591 110.636 175.208 108.808 162.745 98.9374C155.567 93.2545 150.814 88.6683 147.923 90.197C146.627 90.8949 145.962 92.6563 145.796 93.0883C145.098 94.8829 144.965 97.5084 146.394 99.0703C147.391 100.134 148.189 99.7682 148.687 100.533Z" fill="#FFFF76"/>
<path d="M156.863 111.134C156.065 112.763 154.104 113.427 152.509 112.995C151.146 112.63 149.85 111.433 149.784 109.904C149.684 107.977 151.645 106.648 153.14 106.315C153.506 106.249 154.769 105.95 155.866 106.714C157.162 107.645 157.627 109.605 156.863 111.134Z" fill="#FF8FF0"/>
<path d="M139.315 131.273C139.016 133.001 137.288 134.032 135.925 134.264C135.493 134.331 134.164 134.563 133.167 133.733C132.303 133.001 132.203 131.905 132.137 131.207C132.07 130.542 131.971 129.313 132.801 128.249C133.599 127.252 134.862 126.787 136.058 126.953C137.654 127.152 138.451 128.415 138.65 128.648C138.85 128.88 139.548 129.944 139.315 131.273Z" fill="#FF8FF0"/>
<path d="M162.379 119.509C162.113 121.536 159.588 122.766 157.594 122.234C156.098 121.835 154.736 120.406 154.835 118.877C154.935 116.817 157.693 115.189 159.853 115.853C161.316 116.352 162.612 117.914 162.379 119.509Z" fill="#FF8FF0"/>
<path d="M149.718 128.249C149.418 130.277 147.358 131.772 145.497 131.373C143.769 131.008 142.871 129.213 142.772 127.817C142.739 127.352 142.705 125.724 143.935 124.693C145.165 123.696 146.627 123.996 146.793 124.029C148.521 124.428 150.05 126.222 149.718 128.249Z" fill="#FF8FF0"/>
<path d="M148.72 117.216C148.92 118.877 147.823 120.041 147.624 120.24C146.494 121.403 144.334 122.134 142.805 121.071C141.176 119.908 141.509 117.548 141.542 117.415C141.841 115.587 143.503 113.859 145.297 113.926C146.494 113.959 147.325 114.756 147.524 114.956C147.757 115.155 148.554 115.953 148.72 117.216Z" fill="#FF8FF0"/>
<path d="M60.2531 123.53C60.2531 123.53 59.6217 129.579 56.398 131.506C55.7001 131.938 54.7696 132.437 53.6397 132.935C54.2379 131.672 55.0687 129.778 55.5672 128.382C56.3648 126.089 55.0355 123.763 51.5127 123.53C48.422 123.331 45.1319 132.769 44.3676 135.062C42.2074 134.996 40.014 134.497 37.9535 133.268C31.0078 129.147 29.9775 125.192 29.9775 125.192L26.7539 125.823C26.7539 125.823 27.6512 131.872 34.8296 135.195C42.008 138.518 59.3558 141.476 63.3438 123.497H60.2531V123.53Z" fill="#BB54F7"/>
<path d="M31.3071 114.59C31.3071 114.59 32.4038 119.11 35.2951 120.107C38.1864 121.104 41.1442 120.473 42.4403 118.047C43.7696 115.621 43.8361 114.225 43.8361 114.225L41.4765 114.391C41.6095 116.285 40.6457 117.914 39.2499 118.445C37.4553 119.11 35.7272 117.714 35.6607 117.648C34.2981 116.518 33.6667 114.258 33.6667 114.258L31.3071 114.59Z" fill="#BB54F7"/>
<path d="M60.4196 113.327C60.4196 113.327 59.9211 117.947 57.1627 119.309C54.4043 120.672 51.4133 120.439 49.7849 118.18C48.1565 115.92 47.9238 114.557 47.9238 114.557L50.2834 114.424C50.3831 116.318 51.5463 117.814 53.0418 118.18C54.9028 118.612 56.4316 117.016 56.498 116.917C57.6944 115.621 58.0268 113.294 58.0268 113.294H60.4196V113.327Z" fill="#BB54F7"/>
</svg>
