<svg width="200" height="201" viewBox="0 0 200 201" fill="none" xmlns="http://www.w3.org/2000/svg">
<path d="M101.63 100.433C98.24 103.192 93.6538 115.986 92.0918 120.539C91.9589 120.041 91.826 119.642 91.6266 119.376C92.2912 117.083 93.2882 113.195 93.6206 109.971C94.1523 105.053 97.5089 90.3302 92.3245 85.9102L91.0284 88.2365C91.0284 88.2365 92.3245 88.5024 92.823 89.7985C93.3547 91.0946 94.3849 98.838 93.8532 100.932C93.4544 102.527 91.4936 113.992 90.6296 119.011C87.5389 119.941 80.6596 135.029 80.0946 136.259C79.0644 138.485 78.0009 141.011 78.0009 141.011C76.1731 145.331 75.0432 148.455 74.7108 149.353C70.5567 160.519 61.0187 169.193 63.3783 172.284C64.0097 173.114 65.2061 173.181 65.472 173.181C69.7258 173.38 70.9222 165.039 79.4632 152.344C81.3907 149.452 83.5841 146.561 86.6083 141.31C88.4694 138.086 89.4332 136.458 90.1975 134.464C91.9257 129.911 92.5571 124.627 92.1915 121.536C94.2188 116.983 99.9681 104.255 101.032 102.959C102.328 101.397 104.654 99.6023 108.011 97.276C111.367 94.9497 113.428 95.4814 113.428 95.4814V92.8892C109.141 92.9557 105.751 97.0766 101.63 100.433Z" fill="#FF0068"/>
<path d="M75.3088 79.33C67.1002 57.6951 48.8219 18.9119 26.0571 37.1902C3.29224 55.4685 -3.78645 80.46 12.9964 94.6506C29.7792 108.841 49.9186 121.503 60.0215 125.99C66.2029 128.748 73.2151 131.34 77.7016 132.935C68.6289 133.234 42.1752 134.265 33.2687 136.325C22.4679 138.818 14.4919 142.141 13.8272 148.621C13.1625 155.102 15.4889 161.915 22.8002 161.25C30.1115 160.585 82.3875 134.564 82.3875 134.564C82.3875 134.564 83.5175 100.965 75.3088 79.33Z" fill="#FF7300"/>
<path d="M196.744 108.841C194.218 79.762 153.541 93.3877 132.238 102.394C111.467 111.201 88.6362 134.231 87.5063 135.395H87.473C87.473 135.395 87.473 135.395 87.473 135.428C87.473 135.428 87.473 135.428 87.5063 135.428C88.47 137.256 114.891 187.072 120.341 191.792C125.891 196.61 131.773 192.423 134.997 186.773C138.22 181.124 133.701 173.779 126.356 165.438C121.172 159.555 105.053 146.727 96.014 139.715C99.9023 141.609 104.655 143.803 109.141 145.664C119.344 149.851 142.441 155.634 164.275 157.96C186.11 160.32 199.27 137.92 196.744 108.841Z" fill="#FF7300"/>
</svg>
