<svg width="201" height="200" viewBox="0 0 201 200" fill="none" xmlns="http://www.w3.org/2000/svg">
<path d="M108.442 195.513C104.089 200.232 52.0123 197.64 44.1692 198.238C39.4169 198.603 39.4501 186.44 40.1812 176.836C60.1212 186.374 86.8076 186.606 108.409 176.437C109.805 183.881 110.869 192.887 108.442 195.513Z" fill="#02C961"/>
<path d="M145.099 83.5828C144.567 73.8122 143.204 67.4979 138.518 62.9449C130.975 55.6004 121.304 59.0234 90.4631 59.4554C78.3329 59.6216 59.4232 59.389 47.2598 59.1231C25.492 58.6578 15.5552 57.9267 9.77259 64.8392C7.74535 67.2985 6.78159 70.0901 5.68489 80.7248C3.82382 98.7372 2.92652 107.743 4.72112 119.475C6.15016 128.747 9.70612 151.744 25.3923 166.766C29.6461 170.82 34.6643 174.21 40.2143 176.869C60.1543 186.407 86.8407 186.639 108.442 176.47C115.288 173.246 121.603 168.992 127.02 163.642C148.322 142.672 146.76 114.157 145.099 83.5828Z" fill="#3700ED"/>
<path d="M191.957 115.853C188.036 121.502 181.987 126.687 148.389 141.475C144.367 143.237 138.485 145.763 134.298 143.137C133.932 142.904 130.642 140.778 130.609 136.989C130.575 133.433 133.467 131.24 133.832 131.007C135.261 130.342 136.923 129.578 138.751 128.814C139.748 128.415 141.31 127.783 143.204 127.085C145.929 126.088 148.023 125.457 148.422 125.324C161.582 121.07 170.455 118.212 175.839 109.837C179.096 104.786 183.682 95.2147 179.495 88.7342C174.809 81.4561 161.881 82.2204 160.452 82.3201C157.029 82.5528 153.739 83.4833 153.739 83.4833C150.117 84.5135 140.977 87.8036 139.814 87.0725C139.482 86.8399 139.15 86.574 139.15 86.574C139.15 86.574 138.718 86.2084 138.352 85.7764C136.391 83.4501 136.092 78.3321 136.092 78.3321C136.026 77.4016 135.959 76.0058 136.125 75.2414C137.289 69.9241 157.494 64.5403 175.042 71.619C178.598 73.048 192.722 78.7642 196.377 91.8581C198.405 99.103 196.544 106.215 196.377 106.813C195.713 108.973 194.583 112.064 191.957 115.853Z" fill="#F7B832"/>
<path d="M38.2206 51.2804C38.2206 51.2804 27.32 41.6759 33.0029 31.2407C38.6858 20.8054 50.4504 14.2252 41.278 5.51809L44.6346 1.59656C44.6346 1.59656 47.7917 4.32169 49.1211 9.93812C50.4172 15.5546 48.257 23.3644 43.9035 27.0865C39.5499 30.8086 33.435 32.5368 36.0604 37.3224C38.6858 42.108 45.1996 48.2229 45.1996 48.2229L38.2206 51.2804Z" fill="#F7B832"/>
<path d="M72.6501 51.2804C65.4717 40.2801 65.6046 34.4975 67.4325 31.2407C70.0911 26.4218 76.5384 26.5548 78.8647 19.9413C80.327 15.8204 79.1638 11.766 79.0309 11.3007C78.2001 8.44262 76.6381 6.51509 75.7076 5.51809L79.0641 1.59656C79.0641 1.59656 82.2213 4.32169 83.5506 9.93812C84.8467 15.5546 82.6866 23.3644 78.333 27.0865C74.8767 30.0443 70.3238 31.7392 69.8917 34.6969C69.7256 35.7272 70.1244 36.558 70.4899 37.3224C71.6199 39.9146 73.6139 44.0023 76.9372 49.4193C75.5082 50.0507 74.0791 50.6489 72.6501 51.2804Z" fill="#F7B832"/>
<path d="M110.104 49.9843C101.164 39.8481 100.533 34.3646 101.895 31.2407C103.756 26.9536 109.34 26.9203 111.732 20.5063C113.195 16.5183 112.563 12.4639 112.397 11.5666C111.932 8.84142 110.935 6.81419 110.17 5.51809L113.527 1.59656C113.527 1.59656 116.684 4.32169 118.013 9.93812C119.077 14.4579 117.847 22.2012 112.796 27.0865C109.406 30.3434 105.75 30.9416 105.352 34.1652C105.219 35.2619 105.518 36.2257 106.315 37.8209C107.545 40.3134 109.805 44.102 114.125 48.2229C112.763 48.8211 111.433 49.3861 110.104 49.9843Z" fill="#F7B832"/>
<path d="M73.3147 99.3022C73.3147 99.3022 73.1817 78.2988 47.6585 85.311C22.1353 92.3233 41.2777 115.287 47.6585 123.596C54.0393 131.904 73.3147 150.349 73.3147 150.349C73.3147 150.349 99.9678 129.113 111.433 116.451C122.899 103.789 108.243 74.4437 96.7442 78.2656C85.2787 82.1206 73.3147 99.3022 73.3147 99.3022Z" fill="#FF739E"/>
</svg>
