<svg width="201" height="200" viewBox="0 0 201 200" fill="none" xmlns="http://www.w3.org/2000/svg">
<path d="M189.232 139.781C187.969 143.403 186.374 146.86 184.48 150.117C165.736 182.153 116.983 196.876 68.529 190.262C43.8366 186.873 28.3831 171.918 18.679 154.67C7.37966 134.63 3.89017 111.499 2.69377 99.901C0.467135 78.2994 11.4341 50.8819 20.9721 42.8394C30.4768 34.797 50.9818 27.8512 50.9818 27.8512C50.9818 27.8512 52.0785 26.7545 50.9818 21.6366C49.8851 16.5186 50.9818 10.304 50.9818 10.304C50.9818 10.304 97.0764 9.93845 100.001 10.304C102.925 10.6696 145.73 10.304 145.73 10.304L143.171 27.8512C143.171 27.8512 163.277 38.8182 181.589 52.743C199.834 66.6012 202.758 100.632 189.232 139.781Z" fill="#067BBB"/>
<path d="M184.48 150.116C165.736 182.153 116.983 196.876 68.529 190.262C43.8367 186.873 28.3832 171.918 18.6791 154.669C24.5946 153.207 32.7368 151.778 37.0239 153.606C44.2355 156.697 45.5981 166.667 45.5981 166.667C45.5981 166.667 52.8097 159.455 56.2327 156.697C59.6558 153.938 81.2906 152.576 83.6834 159.787C86.0762 166.999 87.1065 168.727 87.1065 168.727C87.1065 168.727 89.4993 159.787 94.3181 156.697C99.1369 153.606 104.953 160.818 104.953 160.818C104.953 160.818 107.711 155.334 115.587 152.576C123.497 149.817 128.648 160.818 128.648 160.818C128.648 160.818 132.071 155.666 141.011 152.243C149.951 148.82 156.132 162.878 156.132 162.878C156.132 162.878 157.162 156.364 163.344 151.545C166.966 148.721 176.903 149.219 184.48 150.116Z" fill="#820002"/>
<path d="M121.104 162.878C121.104 162.878 110.802 147.425 115.62 131.971C120.439 116.518 134.165 112.065 117.681 91.7922C117.681 91.7922 136.923 95.5808 135.893 106.216C134.863 116.85 125.923 125.458 123.198 135.727C120.473 145.996 118.013 137.488 121.104 162.878Z" fill="#00614D"/>
<path d="M60.3205 162.878C60.3205 162.878 51.3808 149.818 52.7766 135.427C54.1391 121.004 63.4112 110.37 60.3205 96.9765C57.2298 83.5835 41.7763 79.7949 56.8975 61.9486C56.8975 61.9486 52.4442 69.8581 58.958 75.674C65.4717 81.4898 74.7438 91.8254 72.0187 101.064C69.2935 110.303 65.1394 115.82 63.4445 126.122C61.7496 136.424 55.8673 150.183 60.3205 162.878Z" fill="#00614D"/>
<path d="M154.371 106.082C154.371 106.082 152.942 107.91 150.084 110.469C149.984 110.536 149.884 110.635 149.818 110.702C149.153 111.267 148.455 111.898 147.657 112.496C147.458 112.663 147.259 112.796 147.059 112.962C139.947 118.412 127.651 125.158 109.904 125.624C79.8615 126.421 78.3992 116.784 78.3992 116.784C78.3992 116.784 67.831 120.207 61.6497 124.195C55.4683 128.183 31.3741 131.805 37.4558 122.865C43.5043 113.959 59.6889 110.934 59.6889 110.934C59.6889 110.934 28.1505 105.783 35.063 98.6049C41.9091 91.493 57.4622 98.1396 57.7946 98.2726C57.4955 97.9735 41.8426 82.1212 42.1417 75.973C42.4408 69.7584 56.2659 75.7071 65.8038 85.9762C75.3418 96.2453 79.5624 107.943 79.5624 107.943C79.5624 107.943 93.6201 97.5414 107.91 91.9915C106.083 90.9945 104.953 89.9642 104.753 89.366C104.521 88.7014 104.654 88.1032 104.654 88.1032C104.654 88.1032 104.786 87.505 105.351 87.0397C106.149 86.3086 108.475 86.5744 111.134 87.8041C111.134 87.8041 108.774 85.0125 109.04 82.6529C109.339 80.2933 115.687 84.3478 115.687 84.3478C115.687 84.3478 114.524 79.5622 117.315 77.1694C117.448 77.0697 117.581 77.0032 117.747 76.97C118.678 76.7374 119.974 77.5017 124.56 84.6469C125.956 86.8071 126.654 88.0035 126.986 88.8675C142.307 91.2603 154.371 106.082 154.371 106.082Z" fill="#EE5F9D"/>
<path d="M125.125 108.376C125.125 108.376 110.801 95.2818 109.937 98.871C109.04 102.427 112.795 105.651 112.795 105.651C112.795 105.651 105.251 106.083 106.415 108.176C107.578 110.27 111.134 111.134 111.134 111.134C108.242 111.699 106.215 112.829 105.983 113.892C105.816 114.624 106.049 115.155 106.049 115.155C106.049 115.155 106.282 115.72 106.88 116.119C108.143 116.983 115.521 116.95 122.333 111.167C123.596 110.071 124.56 109.04 125.125 108.376Z" fill="#DDD9C9"/>
<path d="M139.548 105.119C139.282 106.947 137.554 108.243 135.726 108.176C133.965 108.11 132.403 106.747 132.204 105.086C131.938 102.892 134.031 100.732 136.291 100.998C138.219 101.197 139.847 103.058 139.548 105.119Z" fill="black"/>
<path d="M136.126 102.393C136.459 103.124 135.462 104.587 134.398 104.487C133.833 104.42 133.235 103.922 133.202 103.324C133.135 102.559 133.966 101.994 134.664 101.861C135.196 101.795 135.927 101.928 136.126 102.393Z" fill="#DDD9C9"/>
<path d="M77.5019 175.573C77.5019 175.573 68.9277 150.183 77.5019 136.79C86.076 123.397 101.862 123.397 97.0763 109.672C92.2907 95.9462 83.6832 96.9765 88.5021 86.6741C93.3209 76.3718 99.5023 73.979 99.5023 73.979C99.5023 73.979 91.9583 83.949 93.3209 89.7648C94.6835 95.5807 104.986 96.6441 104.653 112.43C104.321 128.216 94.0188 127.186 87.4718 138.85C80.9249 150.515 76.1061 149.485 77.5019 175.573Z" fill="#00614D"/>
<path d="M148.92 168.727C148.92 168.727 145.132 141.609 156.464 134.73C167.797 127.851 173.646 125.125 169.525 112.763C165.404 100.4 153.373 90.0975 163.676 58.5258C163.676 58.5258 163.343 69.1605 164.706 78.1002C166.069 87.04 181.19 98.3393 176.371 117.249C171.552 136.126 163.31 136.126 158.525 145.065C153.706 153.972 148.92 168.727 148.92 168.727Z" fill="#00614D"/>
<path d="M32.1713 160.684C32.1713 160.684 27.3524 153.805 28.3827 144.533C29.4129 135.261 39.7152 127.351 30.1108 111.233C30.1108 111.233 38.3526 111.566 39.7152 119.807C41.111 128.049 27.3857 142.14 32.1713 160.684Z" fill="#00614D"/>
<path d="M149.817 110.702C149.153 111.267 148.455 111.898 147.657 112.496C145.364 111.898 143.669 110.835 143.669 110.835L144.999 109.572C144.999 109.572 145.564 110.236 148.488 110.668C148.854 110.735 149.319 110.735 149.817 110.702Z" fill="black"/>
</svg>
