<svg width="201" height="200" viewBox="0 0 201 200" fill="none" xmlns="http://www.w3.org/2000/svg">
<path d="M37.0572 70.7555C31.6734 73.7465 28.5827 75.8069 26.7881 77.0366C15.4555 84.8132 9.34061 89.1003 5.88435 95.182C4.72118 93.4206 3.79065 91.2272 3.85711 88.8012C4.02328 83.1847 9.30738 79.6288 17.3831 74.245C24.9935 69.1603 29.5797 66.1028 33.7671 67.9639C35.1629 68.5288 36.2264 69.5591 37.0572 70.7555Z" fill="#DD00C1"/>
<path d="M152.709 38.253C142.673 35.3285 133.201 36.0264 126.754 36.4917C122.334 36.824 118.479 37.4554 112.929 39.0839C112.73 37.389 112.896 35.6608 113.793 34.1321C114.657 32.6366 116.319 31.0746 122.833 29.6456C132.038 27.6184 144.468 24.8932 150.184 32.0052C150.915 32.9357 152.211 34.8965 152.709 38.253Z" fill="#DD00C1"/>
<path d="M191.16 138.718C189.864 140.246 185.71 145.165 179.096 146.361C166.8 148.621 155.102 136.491 146.495 127.584C135.129 115.82 131.706 107.478 127.286 102.892C127.352 102.327 127.419 101.762 127.419 101.164C127.352 94.916 122.101 89.7648 115.953 89.8313C110.237 89.8978 105.518 94.484 104.92 99.8678C104.787 100.964 104.853 102.028 105.053 103.091C102.261 104.421 99.1039 106.049 95.3817 107.943C90.3635 110.502 86.2758 112.596 82.9525 114.424C80.7923 111.865 77.6684 110.17 74.478 110.07C68.2301 109.871 64.3751 115.82 64.2089 116.119C63.6772 116.983 61.6167 120.406 62.4808 124.66C63.1122 127.85 65.2391 130.841 68.1969 132.603C67.499 138.917 68.2966 147.591 64.6409 165.936C62.6469 175.872 60.7526 181.555 55.6679 185.543C51.4805 188.8 45.3656 190.761 39.8156 189.83C28.1175 187.836 22.202 173.48 13.6278 151.878C3.69099 126.754 -1.89221 111.2 5.12002 96.5777C5.35266 96.0792 5.58529 95.6139 5.85116 95.1486C9.30742 89.0669 15.4224 84.7798 26.7549 77.0032C28.5495 75.7736 31.6402 73.7131 37.024 70.7221C38.3866 69.9578 39.8821 69.1602 41.5438 68.2961C43.5378 74.3778 46.5952 81.9218 50.0515 83.7828C56.1 87.0065 72.1516 80.958 80.6262 76.9368C89.0674 72.9155 108.642 69.7584 110.37 54.4046C111.001 48.7881 110.37 44.0025 109.307 40.1807C110.569 39.7819 111.766 39.3831 112.896 39.084C118.412 37.4556 122.301 36.8241 126.721 36.4918C133.168 36.0265 142.673 35.3286 152.676 38.2532C155.401 39.0508 158.193 40.1142 160.951 41.5433C179.096 50.8154 185.477 69.3263 190.761 84.6137C194.882 96.5112 204.154 123.364 191.16 138.718Z" fill="#04B25F"/>
<path d="M57.2634 117.448C57.5625 124.925 53.4416 130.342 52.1787 131.937C51.6802 132.569 42.7737 143.503 30.2115 141.21C18.8789 139.149 12.4317 127.75 11.9664 118.478C11.8999 116.816 11.6673 110.701 15.7218 104.885C20.308 98.2388 28.4169 94.8158 36.0606 95.4472C47.5925 96.4442 56.8314 106.78 57.2634 117.448Z" fill="#ECD3EF"/>
<path d="M169.027 68.5287C170.223 77.7011 165.039 84.4475 164.274 85.4112C158.824 92.2573 149.651 95.5806 141.011 93.6531C129.579 91.0609 123.231 80.1271 122.766 70.9215C122.699 69.2598 122.467 63.1449 126.521 57.3291C131.273 50.483 139.549 47.3923 146.86 47.8908C157.927 48.6552 167.597 57.6946 169.027 68.5287Z" fill="#ECD3EF"/>
<path d="M110.403 54.4376C108.642 69.7914 89.1006 72.9485 80.6593 76.9697C72.218 80.991 56.1331 87.0062 50.0846 83.8158C46.6284 81.9548 43.5709 74.4108 41.5769 68.3291C51.6466 63.1114 67.6651 55.7336 93.1883 46.0627C99.9679 43.4705 105.119 41.6095 109.34 40.2469C110.403 44.0355 111.035 48.8211 110.403 54.4376Z" fill="#FC5832"/>
<path d="M147.591 59.7884C148.057 62.148 146.727 64.0423 146.495 64.3746C145.232 66.2024 143.005 67.3656 140.712 67.2327C137.821 67.0665 134.929 64.9396 134.531 61.8821C134.032 58.2929 137.189 54.9696 140.712 54.7037C143.936 54.5043 147.026 56.8306 147.591 59.7884Z" fill="#FC5832"/>
<path d="M140.479 78.9306C140.247 79.7282 139.615 82.1542 137.455 83.1512C136.458 83.6165 135.561 83.5832 134.431 83.55C133.101 83.5168 131.672 83.4503 130.376 82.5198C128.15 80.8913 128.15 77.8339 128.15 77.3021C128.15 76.5045 128.15 74.2779 129.911 72.583C131.639 70.9546 133.833 71.021 134.431 71.021C136.724 71.0875 139.549 72.3504 140.512 74.8761C141.144 76.5378 140.745 78.0333 140.479 78.9306Z" fill="#FC5832"/>
<path d="M157.894 80.9578C157.761 83.8491 155.434 87.4051 151.812 87.5713C148.755 87.7042 146.461 85.3114 145.564 83.1513C145.464 82.9186 143.936 79.13 146.129 76.704C147.758 74.8762 150.317 75.0423 151.746 75.142C152.942 75.2085 155.434 75.3747 156.897 77.3354C157.993 78.8309 157.927 80.4926 157.894 80.9578Z" fill="#FC5832"/>
<path d="M163.743 64.7731C163.577 67.8306 160.818 70.0572 158.093 70.2899C154.371 70.589 151.081 67.0995 151.247 64.2414C151.38 62.3803 152.975 60.9845 153.673 60.3531C154.338 59.7549 155.7 58.5917 157.495 58.492C160.353 58.3923 163.975 61.0842 163.743 64.7731Z" fill="#FC5832"/>
<path d="M52.378 112.53C52.5442 111.234 51.6469 110.037 50.0517 107.977C48.4233 105.85 47.1936 104.255 45.2993 104.022C42.6407 103.723 40.4805 106.315 38.8521 108.276C37.6557 109.738 35.9608 111.765 36.426 114.058C36.4593 114.191 36.7584 115.587 37.8883 116.584C41.6104 119.908 51.8463 116.518 52.378 112.53Z" fill="#FC5832"/>
<path d="M27.5857 99.8014C26.2563 99.602 25.1264 100.499 23.0327 102.128C20.9058 103.756 19.3106 104.986 19.0779 106.88C18.7788 109.539 21.371 111.699 23.3318 113.327C24.9602 114.69 26.7881 116.119 29.1144 115.753C29.2473 115.72 31.5404 115.321 32.6371 113.361C33.6009 111.666 33.0692 109.871 32.2051 107.179C31.1749 103.789 30.0117 100.167 27.5857 99.8014Z" fill="#FC5832"/>
<path d="M16.3862 125.258C16.1535 126.388 17.0176 127.551 18.7457 129.778C21.3047 133.068 22.5676 134.697 24.2957 134.697C26.2565 134.697 27.6523 132.703 29.9454 129.379C31.607 126.953 32.604 125.491 32.3049 123.563C32.0723 122.168 31.175 120.506 29.6463 119.808C29.1145 119.575 27.9514 119.177 22.3349 121.536C16.785 123.829 16.4526 124.826 16.3862 125.258Z" fill="#FC5832"/>
<path d="M42.7732 136.158C44.1025 136.125 45.0331 135.228 46.5286 133.799C48.1902 132.204 49.8519 130.642 49.8187 128.548C49.7854 125.856 46.9274 124.062 44.7672 122.699C42.9726 121.569 40.8789 120.273 38.7187 121.071C36.8244 121.735 36.0268 123.563 35.9271 123.829C34.9966 126.022 35.9936 128.182 36.8244 130.044C37.5223 131.572 39.6825 136.258 42.7732 136.158Z" fill="#FC5832"/>
<path d="M82.8861 114.424C80.7259 111.865 77.602 110.17 74.4116 110.07C68.1637 109.871 64.3086 115.82 64.1425 116.119C63.6107 116.983 61.5503 120.406 62.4143 124.66C63.0458 127.85 65.1727 130.841 68.1305 132.603C69.7921 133.6 71.6864 134.198 73.7469 134.231C79.9948 134.331 85.2124 129.246 85.7441 123.264C86.0765 119.941 84.9133 116.817 82.8861 114.424Z" fill="#DD00C1"/>
<path d="M115.92 89.8646C110.204 89.9311 105.484 94.5173 104.886 99.9011C104.753 100.998 104.82 102.061 105.019 103.125C106.016 108.442 110.868 112.895 116.551 112.696C121.869 112.497 126.488 108.276 127.286 102.925C127.352 102.36 127.418 101.795 127.418 101.197C127.319 94.9493 122.068 89.7649 115.92 89.8646Z" fill="#DD00C1"/>
</svg>
