<svg width="162" height="190" viewBox="0 0 162 190" fill="none" xmlns="http://www.w3.org/2000/svg">
<path d="M103.715 96.0679C98.9958 100.289 82.213 106.47 73.1403 109.594C68.4876 100.621 65.1643 91.0497 63.5691 81.6115C66.4272 84.7686 71.2128 88.4243 79.2884 91.1826C96.8024 97.1646 110.295 90.2189 103.715 96.0679Z" fill="#E090C7"/>
<path d="M161.873 163.432C163.103 174.565 102.12 202.049 55.8924 182.74C37.3482 174.997 24.8525 161.272 24.1878 160.54C12.5894 147.579 8.16933 134.452 5.843 127.34C-0.936599 106.536 0.658598 88.6568 1.78853 80.7472C3.31726 69.9132 9.66483 38.0424 36.0521 17.5042C52.6023 4.64295 75.068 -3.23334 79.3219 2.11722C81.615 4.97529 77.5273 10.2594 72.5755 22.888C72.5755 22.888 66.2279 39.1059 63.104 60.8072C62.1402 67.4539 62.3729 74.4994 63.536 81.6113C65.1312 91.0496 68.4546 100.621 73.1072 109.594C74.636 112.518 76.2976 115.376 78.0922 118.135C78.5907 118.932 79.1225 119.73 79.6542 120.494C85.3371 128.769 92.1499 136.18 99.7936 141.996C129.305 164.495 161.009 155.489 161.873 163.432Z" fill="#EACB86"/>
<path d="M18.4045 81.2792C18.4045 81.2792 24.5859 90.3187 31.9305 90.7175C39.2751 91.1163 44.6921 90.086 49.0457 87.1615C53.3992 84.237 54.5624 72.4391 54.5624 72.4391L49.81 73.4361C49.81 73.4361 50.8403 75.1975 48.1484 79.7172C45.4565 84.237 39.7071 86.7627 35.1209 87.0618C30.5347 87.3609 21.9273 79.2187 21.9273 79.2187L18.4045 81.2792Z" fill="#51A8A3"/>
<path d="M79.6872 120.527C70.4151 127.44 59.3484 128.171 54.0644 127.273C48.3482 126.31 37.913 120.062 37.913 120.062L39.2091 114.744C39.2091 114.744 40.1064 115.509 45.324 119.231C50.5749 122.953 57.8862 125.977 65.264 123.717C69.7505 122.355 74.8352 119.862 78.092 118.134C78.6238 118.965 79.1555 119.729 79.6872 120.527Z" fill="#AA4704"/>
<path d="M17.707 65.8589C23.3234 62.5023 29.0063 59.179 34.7557 55.8224C40.2392 52.632 45.7227 49.5081 51.1397 46.4174C50.9735 45.6198 50.8074 44.8222 50.6412 44.0246C50.6412 44.0246 37.7134 49.2422 31.2994 53.4629C24.9186 57.6503 17.1088 63.0008 17.1088 63.0008C17.3082 63.9646 17.5076 64.9284 17.707 65.8589Z" fill="#AA4704"/>
<path d="M117.64 38.2751C125.184 30 120.066 10.9241 125.317 5.30768C125.649 4.94211 126.048 4.60978 126.547 4.64301C129.405 4.80918 130.9 17.604 131.897 24.4168C133.027 32.127 134.124 37.8431 137.447 40.3024C140.737 42.7616 162.04 40.9338 160.943 45.3538C159.847 49.7738 137.082 51.9673 134.124 57.8495C131.199 63.7318 134.124 95.802 128.607 88.7565C123.09 81.7111 123.456 58.9462 116.843 56.7528C106.175 53.1969 91.685 52.7316 91.3194 48.4445C91.2862 48.2451 91.3194 48.1122 91.3527 47.9128C92.5158 42.097 110.229 46.3841 117.64 38.2751Z" fill="#51A8A3"/>
</svg>
