<svg width="200" height="201" viewBox="0 0 200 201" fill="none" xmlns="http://www.w3.org/2000/svg">
<path d="M177.465 75.7074C151.809 33.4014 93.7505 -6.34565 77.0341 5.91744C75.306 7.18031 72.8799 9.87221 71.9162 13.4282C68.8919 24.7275 83.3817 34.9301 79.5266 42.6403C78.164 45.3322 75.2727 46.3624 74.6745 46.5618C61.7468 50.9154 49.1513 19.3105 27.4167 19.244C25.8548 19.244 18.2111 19.244 12.495 24.2622C-8.27584 42.607 21.5012 105.883 30.308 122.267C36.6556 134.065 44.6316 144.966 44.6316 144.966C52.0426 155.102 59.2875 162.912 62.8435 166.368C80.6233 183.782 118.609 203.058 155.099 192.855C162.543 190.794 177.066 186.507 187.003 173.081C194.481 163.011 195.777 152.443 196.641 145.464C199.034 126.189 193.185 110.802 188.432 98.3061C184.278 87.4056 179.692 79.3963 177.465 75.7074ZM44.7313 84.6804C34.2628 83.2182 28.2143 72.4506 24.891 66.6015C21.3683 60.4201 18.4105 55.0695 20.2384 48.8881C21.3018 45.1992 24.2928 40.6463 28.9123 39.2505C39.1481 36.1598 49.6498 51.0151 50.813 52.6767C56.0306 60.0545 56.7285 67.1332 57.1938 71.8191C57.8917 78.9643 56.3297 81.1245 55.6983 81.8888C52.4082 85.7439 45.9277 84.8134 44.7313 84.6804Z" fill="#FFD800"/>
<path d="M94.9138 117.581C95.4456 119.376 94.9138 121.536 93.8171 125.89C92.2884 131.938 91.524 134.962 89.1312 137.123C85.5753 140.346 80.7232 140.213 78.3304 140.147C73.0463 140.014 69.1912 137.754 65.8014 135.793C63.0098 134.165 61.0158 133.002 59.1215 130.775C58.5898 130.144 52.1093 122.433 55.2 114.524C58.191 106.947 67.4299 104.222 73.6445 104.82C77.134 105.152 79.5933 106.515 83.8139 108.808C90.0285 112.198 93.7839 113.859 94.9138 117.581Z" fill="#8D41E5"/>
<path d="M127.416 151.513C129.443 157.129 131.304 162.214 128.878 167.265C127.183 170.788 123.494 174.178 119.307 174.51C117.845 174.643 117.047 174.311 114.255 173.513C102.026 169.957 99.7657 170.755 97.672 167.996C96.1101 165.903 97.2732 165.271 95.0134 160.685C92.7867 156.165 91.0254 156.066 90.7263 153.806C89.8622 147.392 96.6418 140.878 103.023 138.319C104.684 137.654 112.095 134.663 119.141 138.784C123.827 141.476 125.389 145.929 127.416 151.513Z" fill="#FF378C"/>
<path d="M173.344 157.96C172.613 159.987 170.519 164.839 165.269 168.03C163.906 168.86 158.988 171.752 152.74 170.522C152.009 170.389 148.453 169.658 144.963 166.733C137.552 160.552 134.395 147.824 138.848 142.872C141.274 140.213 143.6 142.373 152.74 138.751C157.691 136.79 158.755 135.461 161.812 135.594C167.396 135.826 171.151 140.679 171.649 141.31C176.601 147.923 173.976 156.199 173.344 157.96Z" fill="#009D6F"/>
</svg>
