<svg width="200" height="201" viewBox="0 0 200 201" fill="none" xmlns="http://www.w3.org/2000/svg">
<path d="M194.78 159.157C193.484 159.357 189.861 160.254 185.009 161.517C185.042 157.23 185.175 152.211 185.441 146.362C186.472 121.869 176.07 96.313 168.226 72.3185C160.417 48.3241 136.954 43.1397 109.304 43.1397C81.6536 43.1397 62.4116 60.3546 53.0398 68.6961C43.668 77.0377 32.2025 95.8145 22.2657 128.649C14.8879 153.142 12.9936 168.363 12.5283 174.511C8.73975 174.81 5.44965 174.91 3.28948 174.644C-2.89191 173.88 9.10531 108.111 36.556 72.1191C64.0068 36.1275 131.736 19.4111 156.495 41.5113C181.254 63.6114 195.943 101.929 196.741 128.981C197.505 156.066 200.197 158.393 194.78 159.157Z" fill="#E5AE00"/>
<path d="M185.475 146.363C185.243 152.178 185.11 157.23 185.043 161.517C182.152 162.248 178.828 163.112 175.372 164.01C173.611 148.556 168.692 117.018 166.865 107.147C164.438 94.0202 159.952 66.7689 141.674 54.3728C123.395 41.9436 82.6845 57.1312 66.1011 69.8928C49.5509 82.6544 38.8498 115.09 33.333 132.006C28.5807 146.496 25.3903 167.632 24.5595 173.348C20.5715 173.78 16.3176 174.279 12.529 174.545C12.9943 168.396 14.8886 153.175 22.2664 128.683C32.1699 95.848 43.6354 77.0712 53.0404 68.7296C62.4122 60.3881 81.7207 43.1732 109.338 43.1732C136.955 43.1732 160.417 48.3908 168.26 72.3521C176.07 96.3133 186.505 121.87 185.475 146.363Z" fill="#FF0098"/>
<path d="M158.788 149.852C160.816 123.864 151.71 101.232 150.679 89.4341C149.682 77.603 136.489 63.778 119.274 59.3912C102.059 55.0044 89.5633 69.195 72.0161 82.6877C54.4689 96.1804 47.0247 130.278 42.9702 142.441C39.7798 152.012 37.4203 166.369 36.5894 172.052C35.6589 172.152 34.7616 172.218 33.8643 172.318C31.2721 172.551 28.0152 172.916 24.559 173.315C25.3898 167.599 28.5802 146.462 33.3326 131.973C38.8493 115.057 49.5504 82.6212 66.1006 69.8597C82.6508 57.0981 123.362 41.9104 141.673 54.3397C159.952 66.7689 164.438 94.0203 166.864 107.114C168.692 116.984 173.61 148.523 175.372 163.976C169.39 165.505 162.942 167.1 157.326 168.33C157.725 163.312 158.19 157.197 158.788 149.852Z" fill="#004031"/>
<path d="M158.789 149.852C158.224 157.163 157.725 163.311 157.327 168.363C148.686 170.224 142.072 171.221 142.205 169.593C142.604 165.339 151.477 102.661 127.882 77.9019C104.286 53.1431 66.367 103.824 59.4212 137.09C52.4422 170.357 52.4422 170.357 52.4422 170.357C52.4422 170.357 44.3997 171.287 36.5899 172.052C37.454 166.369 39.7803 151.979 42.9707 142.441C47.0252 130.278 54.4362 96.1802 72.0166 82.6875C89.5638 69.1947 102.06 55.0041 119.274 59.3909C136.489 63.7777 149.65 77.636 150.68 89.4338C151.677 101.265 160.816 123.864 158.789 149.852Z" fill="#60772F"/>
<path d="M130.573 119.144C130.573 119.144 129.477 103.89 117.546 105.851C105.648 107.779 101.195 123.598 101.195 123.598C101.195 123.598 98.7026 113.162 88.9984 114.658C79.2943 116.153 72.9135 138.287 82.3518 142.175C91.7568 146.063 178.762 149.918 179.892 128.583C180.191 123.132 178.662 115.755 173.677 113.196C168.094 110.338 159.32 113.661 151.61 121.637C151.676 120.839 152.075 115.289 147.988 111.501C147.456 111.002 145.462 109.174 142.737 108.875C138.151 108.377 132.999 112.464 130.573 119.144Z" fill="#FF73C6"/>
<path d="M74.6082 160.653C74.2759 159.788 72.1157 154.272 66.2999 152.211C65.8346 152.045 57.9916 149.42 53.4386 154.538C50.0488 158.326 51.0458 163.511 51.1787 164.209C51.1787 164.209 50.6802 162.115 49.218 160.187C46.5593 156.698 42.0396 157.03 41.4414 157.063C36.5561 157.329 33.7645 161.284 33.2328 162.015C30.3082 166.136 29.843 172.384 32.7343 175.907C35.8914 179.728 42.2057 179.23 45.1967 178.997C95.8443 175.043 111.431 176.937 114.023 168.197C115.352 163.776 113.026 157.595 109.071 155.933C105.449 154.405 100.331 156.565 96.1434 161.184C96.077 160.586 95.6117 156.1 91.6237 153.507C87.8683 151.081 83.8803 152.211 82.9166 152.51C76.9678 154.139 74.8409 159.988 74.6082 160.653Z" fill="#FF73C6"/>
</svg>
