<svg width="200" height="200" viewBox="0 0 200 200" fill="none" xmlns="http://www.w3.org/2000/svg">
<path d="M191.557 168.76C181.188 178.298 176.867 169.557 110.168 177.201C109.636 177.268 109.071 177.334 108.506 177.401C106.479 177.633 104.485 177.866 102.458 178.065C85.2099 179.793 67.7956 180.392 50.6805 183.05C30.5078 186.207 22.1995 188.766 14.6888 183.715C5.44991 177.5 5.54961 165.104 4.58584 135.527C2.42568 67.7306 -0.399157 57.4947 9.30497 49.1199C10.1358 48.422 10.9334 47.8238 12.0301 47.2921C3.38944 55.5672 6.11458 67.2653 8.20827 132.901C9.13881 162.479 9.07234 174.875 18.3112 181.089C25.7887 186.141 34.1303 183.582 54.3029 180.425C71.4181 177.766 88.8323 177.135 106.08 175.44V154.503C106.08 140.212 103.389 112.961 101.029 78.7308C99.7993 60.7183 99.1014 47.7906 98.7359 39.5487C99.1347 39.5155 99.5335 39.5155 99.899 39.4822C113.259 38.7511 120.271 38.4853 120.271 38.4853C136.755 37.1559 185.176 33.8326 187.17 38.4853C189.164 43.1379 196.608 164.107 191.557 168.76Z" fill="#02B795"/>
<path d="M101.029 78.7309C99.7993 60.7184 99.1014 47.7906 98.7358 39.5488C98.7026 38.6847 98.6694 37.8871 98.6361 37.1227C87.8685 37.7542 73.8108 38.6182 56.6292 39.8479C19.8067 42.4401 16.6828 43.2709 12.9274 46.4945C12.6283 46.7604 12.3292 47.0263 12.0301 47.2921C3.38942 55.5672 6.11455 67.2654 8.20825 132.901C9.13879 162.479 9.07232 174.875 18.3112 181.09C25.7887 186.141 34.1302 183.582 54.3029 180.425C71.418 177.766 88.8323 177.135 106.08 175.44V154.503C106.08 140.213 103.388 112.961 101.029 78.7309Z" fill="#2E1544"/>
<path d="M195.179 166.135C184.811 175.673 180.49 166.932 113.791 174.576C112.728 156.53 110.634 123.131 109.438 112.629C108.075 100.898 104.785 54.6037 103.522 36.8571C116.882 36.1259 123.894 35.8601 123.894 35.8601C140.378 34.5307 188.799 31.2074 190.793 35.8601C192.787 40.5127 200.231 161.482 195.179 166.135Z" fill="#2E1544"/>
<path d="M113.79 174.576C113.259 174.642 112.694 174.709 112.129 174.775C110.102 175.008 108.108 175.241 106.08 175.44V154.503C106.08 140.213 103.388 112.961 101.029 78.731C99.6663 58.8574 98.9684 45.1321 98.6361 37.1228C100.364 37.0231 101.993 36.9234 103.521 36.857C104.784 54.6036 108.074 100.864 109.437 112.629C110.667 123.131 112.727 156.53 113.79 174.576Z" fill="#FFD110"/>
<path d="M189.363 104.687C188.433 92.4234 187.602 91.227 186.904 90.4294C182.982 86.0426 172.58 86.9399 151.809 88.7013C146.625 89.1333 142.371 89.6318 134.03 90.5956C127.217 91.3932 123.794 91.792 123.229 92.0911C114.223 96.9099 119.972 113.095 120.005 147.757C120.005 150.582 119.972 156.796 124.093 160.12C127.749 163.044 132.866 162.28 134.993 162.014C165.003 157.893 182.55 165.271 189.33 154.47C189.928 153.506 190.028 147.192 190.161 134.63C190.227 126.189 190.294 116.817 189.363 104.687ZM185.807 133.5C185.674 144.567 185.608 150.083 185.076 150.947C179.127 160.419 163.674 153.938 137.253 157.561C135.392 157.827 130.872 158.491 127.682 155.899C124.06 152.975 124.093 147.524 124.093 145.032C124.06 114.557 119.008 100.333 126.918 96.0791C127.416 95.8132 130.44 95.4477 136.422 94.7498C143.767 93.8857 147.522 93.4537 152.075 93.0881C170.354 91.5261 179.493 90.7618 182.949 94.5836C183.547 95.2483 184.312 96.3117 185.109 107.113C185.94 117.78 185.907 126.022 185.807 133.5Z" fill="#FFD110"/>
<path d="M68.4275 132.735C67.4305 132.669 67.5302 129.512 64.938 124.826C64.4062 123.862 62.379 120.239 61.0164 120.472C60.7173 120.539 60.4515 120.804 60.2188 121.436C59.2218 123.995 51.1462 142.406 59.388 151.612C61.1494 153.606 63.1101 154.37 65.7688 155.6C68.2945 156.763 75.5726 160.086 83.4822 157.527C84.3795 157.228 86.9052 156.364 89.3312 154.437C99.833 145.962 96.8087 125.424 93.5851 124.792C91.1923 124.36 87.9687 134.663 85.31 133.965C84.1468 133.666 84.3462 131.539 82.319 126.886C80.7903 123.43 79.5606 120.572 77.6996 120.439C75.7056 120.273 73.8445 123.264 72.2493 125.823C69.7568 129.91 69.3912 132.802 68.4275 132.735Z" fill="#DCB8FD"/>
<path d="M149.583 53.0083C149.583 53.0083 151.81 45.0323 145.296 44.7C138.782 44.3676 137.22 50.6487 138.616 54.0385C139.979 57.4283 142.903 58.7909 142.903 58.7909C142.903 58.7909 139.646 55.8996 134.329 61.516C129.012 67.0992 130.374 70.8546 134.329 72.0178C138.284 73.2142 142.405 70.3229 145.13 66.2684C145.13 66.2684 142.205 71.0208 146.858 75.4076C151.511 79.7944 160.251 77.2686 158.855 66.6007C158.855 66.6007 164.006 70.489 169.988 66.2684C176.004 62.0145 168.958 54.7364 157.825 57.4616C162.046 56.4646 164.704 53.2409 164.472 50.2167C164.339 48.2892 163.009 46.3616 161.281 45.6637C158.091 44.3676 152.973 47.0263 149.583 53.0083Z" fill="#DCB8FD"/>
<path d="M82.252 83.3505C81.9529 85.1783 81.3547 88.9004 78.9287 93.0214C78.0646 94.5169 75.4392 98.6046 70.3213 101.861C63.7078 106.082 57.1609 106.149 54.8013 106.115C52.043 106.115 46.1274 106.016 40.2119 102.26C35.7919 99.4354 33.4655 95.8794 32.2027 93.9187C30.7736 91.6588 28.4805 87.9699 27.982 82.719C27.4503 76.9364 29.3778 72.5496 30.4413 70.1901C31.5048 67.8305 34.2631 61.9814 40.6772 58.0931C47.1909 54.1384 53.6714 54.5039 59.1549 54.803C64.5387 55.1021 69.2578 55.368 73.7775 58.6913C78.829 62.4467 80.5571 67.764 81.388 70.4227C81.7203 71.4529 83.3155 76.6373 82.252 83.3505Z" fill="#FFD110"/>
<path d="M46.8916 135.194C46.7254 138.883 44.1 141.309 43.5018 141.841C42.9368 142.339 40.3446 144.633 36.6225 144.367C32.3022 144.068 29.8761 140.578 29.2779 139.78C28.7794 139.049 27.8489 137.521 27.4833 135.36C27.3172 134.33 26.719 130.675 29.0785 127.783C32.1028 124.061 37.4201 124.792 37.7857 124.859C42.7374 125.59 47.1242 130.242 46.8916 135.194Z" fill="#02B795"/>
<path d="M34.0309 154.935C33.1336 158.059 27.783 159.189 24.1273 158.258C23.1968 158.026 21.369 157.56 20.372 155.899C18.9429 153.506 20.4717 150.648 20.6711 150.282C20.8372 149.983 22.4324 147.125 25.7225 146.726C29.345 146.294 31.7378 149.219 32.2363 149.85C32.8677 150.648 34.6623 152.808 34.0309 154.935Z" fill="#02B795"/>
<path d="M133.033 102.825C133.033 102.825 144.233 99.9338 148.088 105.185C151.943 110.436 149.583 112.862 150.414 119.774C151.245 126.687 155.1 121.17 163.176 119.774C171.251 118.378 178.962 122.333 175.106 127.119C171.251 131.904 162.145 139.182 167.762 140.578C173.378 141.974 177.566 139.149 177.566 139.149V144.367C177.566 144.367 161.082 152.675 159.354 144.367C157.626 136.058 169.856 128.215 168.127 125.025C166.366 121.835 152.707 133.067 146.393 127.085C140.079 121.103 149.55 109.538 146.758 107.544C143.967 105.55 133.1 107.544 133.1 107.544V102.825H133.033Z" fill="#02B795"/>
<path d="M37.1214 83.3504C37.1214 83.3504 38.1516 90.695 49.0189 92.8884C59.8862 95.0818 70.1221 92.2902 73.9439 85.3444L68.3275 84.148C68.3275 84.148 70.1221 86.4743 65.3033 88.4683C60.4844 90.4956 52.2426 91.4926 49.0189 89.698C45.7953 87.9034 40.9765 82.154 40.9765 82.154L37.1214 83.3504Z" fill="#2E1544"/>
<path d="M46.7919 69.8247C47.0245 70.5226 47.2572 71.1208 47.091 71.7855C46.7587 73.0483 45.2299 74.0786 43.7012 73.9789C41.9731 73.8792 40.544 72.3837 40.4776 70.7885C40.3779 68.4289 43.3356 66.7008 44.9641 67.2657C46.0275 67.6978 46.526 69.1268 46.7919 69.8247Z" fill="#2E1544"/>
<path d="M70.5205 70.4889C70.6202 71.9179 69.6232 73.2473 68.2939 73.6461C67.2636 73.9784 66.0672 73.7125 65.2696 73.0146C64.3723 72.217 64.2726 71.1536 64.2394 70.8212C64.2062 70.4889 64.0732 68.9602 65.1699 68.0961C66.034 67.3982 67.1307 67.5644 67.463 67.6308C68.6262 67.797 70.3876 68.7275 70.5205 70.4889Z" fill="#2E1544"/>
</svg>
