<svg width="200" height="200" viewBox="0 0 200 200" fill="none" xmlns="http://www.w3.org/2000/svg">
<path d="M164.938 111.598C164.805 112.728 164.605 114.257 164.273 116.085C163.775 118.877 163.01 122.399 161.714 126.288C159.687 132.469 156.364 139.647 150.913 146.626C149.983 147.79 149.019 148.986 147.955 150.116C147.49 150.648 146.992 151.179 146.46 151.711C141.974 156.364 137.155 159.953 132.303 162.745C131.206 163.376 130.076 163.974 128.979 164.539C121.601 168.228 114.357 170.156 108.275 171.119C106.514 171.419 104.852 171.618 103.323 171.751C98.3714 172.216 94.7489 172.083 93.3864 172.017C92.3894 171.95 90.9936 171.884 89.3319 171.684C87.1717 171.452 84.5131 171.053 81.5221 170.388C79.5281 169.956 77.4344 169.391 75.2077 168.693C72.2167 167.763 69.0596 166.533 65.8359 164.971C63.6093 163.908 61.3494 162.645 59.1228 161.216C57.9596 160.451 56.7632 159.654 55.6001 158.79C52.2435 156.297 48.9534 153.34 45.8627 149.85C43.8687 147.59 42.1073 145.264 40.6118 142.971C39.8142 141.774 39.0831 140.578 38.4184 139.382C34.0649 131.705 31.9712 124.161 30.8412 118.179C30.1766 114.656 29.8775 111.632 29.6781 109.405C29.5784 108.275 29.4122 106.647 29.3125 104.619C29.0799 100.698 29.0466 95.2809 29.7778 89.166C30.1101 86.5073 30.5754 83.7157 31.2733 80.8577C31.8382 78.5313 32.5361 76.1718 33.4002 73.8122C33.9319 72.3167 34.5634 70.8212 35.228 69.3257C37.8535 63.6428 41.5091 58.0264 46.6935 53.0414C47.1256 52.6093 47.5576 52.2105 47.9896 51.845C47.9896 51.845 47.9896 51.845 48.0229 51.8117C48.9866 50.9144 49.9836 50.0836 51.0139 49.3192C56.7965 44.8327 63.0443 41.9747 69.1925 40.1136C70.6548 39.6816 72.117 39.2828 73.5793 38.9504C81.3227 37.1558 88.7669 36.7238 94.8486 36.3915C95.8124 36.325 96.7762 36.2918 97.7732 36.2253C101.296 36.0259 105.018 35.893 108.906 36.0259C114.19 36.1921 119.774 36.7903 125.357 38.4187C128.248 39.2495 131.173 40.3795 134.064 41.8085C134.961 42.2738 135.859 42.739 136.756 43.2708C137.52 43.7028 138.318 44.2013 139.082 44.6998C139.68 45.0986 140.245 45.4974 140.81 45.8962C147.091 50.4159 151.977 56.1321 155.699 62.4464C156.397 63.6096 157.028 64.8392 157.66 66.0356C160.219 71.1203 162.046 76.5041 163.309 81.9211C164.34 86.3412 165.004 90.7944 165.303 95.1148C165.735 100.931 165.569 106.547 164.938 111.598Z" fill="#DD00C1"/>
<path d="M151.711 102.36C156.164 99.1696 160.318 96.1786 164.074 93.387C164.472 93.952 164.904 94.517 165.303 95.0819C165.004 90.7616 164.339 86.3083 163.309 81.8883C161.581 79.4623 159.82 77.003 158.058 74.5437C156.629 72.5497 155.2 70.589 153.771 68.6282C155.067 67.7641 156.33 66.9001 157.626 66.0028C157.028 64.7731 156.363 63.5767 155.666 62.4136C154.203 63.3109 152.708 64.2414 151.245 65.1387C146.925 59.1899 142.605 53.3076 138.284 47.4918L140.777 45.8634C140.212 45.4646 139.647 45.0658 139.049 44.667C138.284 44.1685 137.52 43.67 136.723 43.2379C136.357 43.4706 135.991 43.67 135.626 43.9026C135.094 43.2047 134.562 42.4736 134.031 41.7757C131.139 40.3134 128.215 39.2167 125.323 38.3859C126.653 40.3466 127.982 42.2742 129.345 44.2349C129.91 45.0658 130.475 45.8634 131.04 46.6942C126.819 49.2532 122.133 52.078 117.314 55.0358C113.725 50.2834 110.169 45.6307 106.613 41.0113C106.048 40.2802 105.483 39.549 104.885 38.7847C106.214 37.8541 107.577 36.9236 108.906 35.9598C105.018 35.8601 101.263 35.9931 97.773 36.1592C98.0722 36.5913 98.3713 37.0233 98.6704 37.4553C96.6431 38.7182 94.6159 39.9811 92.5554 41.2439C88.6339 43.7032 84.6791 46.1625 80.7576 48.655C79.6609 47.2592 78.5642 45.7969 77.4675 44.3014C77.1351 43.8361 76.7696 43.3376 76.4372 42.8724C75.4403 41.5098 74.5097 40.1805 73.5792 38.8511C72.1169 39.1835 70.6546 39.5823 69.1924 40.0143C70.1561 41.2439 71.1531 42.54 72.1169 43.8361C72.8813 44.8664 73.6456 45.9298 74.3768 47.0265C75.3073 48.3559 76.1714 49.6852 77.0354 50.9813C72.0504 54.1385 67.0322 57.3621 62.014 60.5857C61.6816 60.8184 61.3161 61.0178 60.9837 61.2504C60.3523 60.486 59.7541 59.7217 59.1559 58.9905C57.6272 57.1295 56.1981 55.4013 54.8688 53.8061C53.473 52.1445 52.1769 50.6157 51.0137 49.1867C50.0167 49.9511 49.0197 50.7819 48.0227 51.6792C48.0227 51.6792 48.0227 51.6792 47.9895 51.7124C48.2221 52.078 48.488 52.4436 48.7206 52.8091C51.2464 56.6642 53.7056 60.5193 56.1649 64.3411C50.6814 67.8971 45.1979 71.5195 39.6812 75.1419C38.2189 73.1479 36.7234 71.1539 35.2611 69.1599C34.5632 70.6554 33.965 72.1509 33.4333 73.6464C34.2974 74.9425 35.1947 76.2386 36.0587 77.5347C34.4635 78.5982 32.9016 79.6284 31.3064 80.6919C30.6085 83.55 30.1432 86.3416 29.8109 89.0002C33.0677 86.9065 36.2914 84.8128 39.5482 82.6859C43.1374 87.9368 46.7599 93.2209 50.4488 98.5382C44.5 102.825 38.6177 107.112 33.7656 110.635L29.3124 104.653C29.4121 106.68 29.5782 108.309 29.6779 109.439C29.8773 111.665 30.2097 114.656 30.8411 118.212L31.6719 117.647C36.1917 124.46 40.4788 130.841 43.7689 135.693C41.9743 136.956 40.1797 138.186 38.3851 139.448C39.0497 140.645 39.7809 141.841 40.5785 143.038C42.4728 141.841 44.4003 140.612 46.2946 139.415C47.2584 140.811 48.056 141.941 48.6542 142.772C50.7146 145.597 54.6694 150.748 59.2888 156.697C58.0924 157.428 56.8628 158.159 55.5999 158.923C56.7631 159.787 57.9263 160.585 59.1227 161.349C59.9867 160.817 60.8508 160.319 61.7149 159.82C63.0774 161.549 64.4732 163.343 65.869 165.105C69.0927 166.667 72.2498 167.863 75.2408 168.827L66.6666 156.863C73.2801 152.908 79.1624 149.319 84.2471 146.195C87.936 151.213 91.5916 156.165 95.2805 161.117C90.6611 164.24 86.0749 167.398 81.5552 170.522C84.5462 171.186 87.2049 171.585 89.365 171.818C92.489 169.824 95.6461 167.83 98.8033 165.802C100.332 167.83 101.861 169.857 103.389 171.884C104.918 171.751 106.58 171.519 108.341 171.253C106.48 168.594 104.652 165.935 102.791 163.277C108.674 159.488 114.589 155.666 120.538 151.778C123.296 155.832 126.121 160.153 129.046 164.673C130.142 164.108 131.272 163.509 132.369 162.878C129.345 158.159 126.453 153.739 123.795 149.651C127.583 147.159 131.405 144.666 135.194 142.14C136.656 141.143 138.152 140.18 139.614 139.216C142.405 142.938 145.23 146.627 148.022 150.282C149.052 149.119 150.049 147.956 150.98 146.793C148.62 143.337 146.26 139.88 143.868 136.391C149.517 132.602 155.134 128.814 160.717 125.025C161.083 125.49 161.415 125.989 161.78 126.454C163.077 122.533 163.841 119.043 164.339 116.252C163.642 116.684 162.91 117.149 162.212 117.581C158.723 112.43 155.233 107.411 151.711 102.36ZM159.487 87.0727C159.82 87.5379 160.185 88.0365 160.518 88.5017C156.563 90.9278 152.242 93.6197 147.656 96.6107C144.333 91.8915 140.976 87.1724 137.52 82.4533C137.055 81.8218 136.623 81.2236 136.158 80.5922C140.345 77.7674 144.566 74.9425 148.753 72.0845C152.276 77.0362 155.865 82.0545 159.487 87.0727ZM79.9932 85.8763L94.3168 76.4713C98.2716 82.1874 102.293 87.9035 106.347 93.6529C101.661 96.7104 96.9422 99.7678 92.2563 102.892C88.3348 97.2753 84.3135 91.6921 79.9932 85.8763ZM87.0055 106.381C81.4222 110.103 75.8723 113.792 70.3888 117.481C66.2678 111.765 62.1469 106.049 58.026 100.366L74.0444 89.8311C79.4282 96.9762 83.8483 102.493 87.0055 106.381ZM109.637 98.2723C113.526 103.723 117.447 109.173 121.468 114.656C118.245 117.016 115.619 118.977 113.625 120.472C111.698 121.901 109.604 123.43 107.411 125.025C103.323 118.943 99.4347 113.227 95.5132 107.578C100.232 104.487 104.951 101.363 109.637 98.2723ZM114.722 94.8825C120.172 91.2601 125.589 87.6377 131.006 84.0152C134.496 88.9005 137.985 93.8191 141.541 98.7376C141.84 99.1696 142.14 99.5684 142.439 100C136.158 104.155 130.774 107.91 126.287 111.134C122.499 105.75 118.644 100.333 114.722 94.8825ZM133.698 50.5825C134.928 52.3771 136.191 54.1717 137.454 55.9995C140.312 60.1205 143.203 64.2414 146.128 68.3623C141.84 71.0542 137.52 73.7461 133.2 76.4713C130.142 72.2839 127.085 68.1297 124.027 64.042C122.831 62.4468 121.668 60.8516 120.471 59.2896L133.698 50.5825ZM118.278 65.9363C121.502 70.5225 124.725 75.1419 127.982 79.7614C122.499 83.2509 116.982 86.7736 111.432 90.3628C111.133 89.9308 110.834 89.4987 110.501 89.0999C106.68 83.8158 102.858 78.565 99.0359 73.3806L108.208 67.3321L115.719 62.3803C116.616 63.5435 117.447 64.7399 118.278 65.9363ZM101.263 41.3436C105.018 46.8271 108.807 52.3439 112.662 57.8938C107.344 61.1507 101.96 64.4076 97.0419 67.4318C96.5102 67.7641 95.9784 68.0965 95.4467 68.4288C95.2141 68.0965 94.9482 67.7641 94.7156 67.4318C91.1596 62.6462 87.6369 57.8938 84.1141 53.1747C89.8635 49.2199 95.6129 45.2984 101.263 41.3436ZM80.1926 55.8334C82.7516 59.6552 85.377 63.477 88.0024 67.2989C88.8997 68.6282 89.8303 69.9575 90.7608 71.2869C84.3468 75.2416 79.2289 78.432 76.7031 80.1269C76.5037 80.2598 76.2711 80.426 76.0384 80.559C74.9417 79.0967 73.8118 77.6344 72.6486 76.1389C69.9235 72.583 67.2981 69.2596 64.8388 66.1689C66.1681 65.2716 67.4975 64.3743 68.8268 63.5103C72.6486 60.9513 76.4372 58.3923 80.1926 55.8334ZM43.4033 80.3928C46.1949 78.565 49.0197 76.7371 51.8113 74.8761C54.4368 73.1479 57.029 71.4198 59.6212 69.6917C62.2798 73.58 65.2044 77.8006 68.428 82.2206C69.0262 83.0515 69.6244 83.8491 70.1894 84.6467C65.8358 87.7041 60.3523 91.6257 54.6362 95.7466C50.914 90.5954 47.1587 85.4775 43.4033 80.3928ZM36.3911 114.557L53.5727 103.257C57.5939 109.007 61.6484 114.789 65.7693 120.572C60.1197 124.427 54.5032 128.249 48.9533 132.071L36.3911 114.557ZM64.3403 153.539L51.7116 135.926C57.4278 132.27 63.1771 128.581 68.86 124.892C70.4552 127.119 72.0504 129.345 73.6456 131.572C76.3043 135.261 78.9962 138.95 81.6549 142.606C76.3708 146.062 70.5882 149.718 64.3403 153.539ZM85.6096 138.784C81.6216 133.134 77.6004 127.518 73.5459 121.868C76.0052 120.273 78.4977 118.678 80.957 117.049C84.1806 114.955 87.371 112.862 90.5614 110.768C94.3832 115.52 98.7368 121.137 103.589 127.684C98.5042 131.339 92.7216 135.327 86.2079 139.648C86.0085 139.349 85.809 139.083 85.6096 138.784ZM107.045 153.107C104.453 154.835 101.894 156.564 99.335 158.292C95.8455 153.307 92.3228 148.322 88.8 143.337C88.8665 143.303 88.8997 143.27 88.9662 143.237C95.2473 139.382 101.13 135.726 106.846 132.17C110.036 136.557 113.426 141.343 116.982 146.527C113.659 148.687 110.368 150.881 107.045 153.107ZM120.272 144.3C117.082 139.448 114.19 135.161 111.731 131.439C111.365 130.874 110.967 130.309 110.601 129.744C115.653 126.587 120.571 123.43 125.523 120.173C128.979 124.859 132.402 129.512 135.858 134.098C130.674 137.488 125.49 140.877 120.272 144.3ZM140.345 131.24C137.088 126.521 133.765 121.735 130.408 116.983C135.692 113.46 141.076 109.804 146.726 105.85C150.282 110.735 153.804 115.587 157.36 120.406C151.711 123.995 146.028 127.584 140.345 131.24Z" fill="#ECD3EF"/>
<path d="M139.548 51.3466C140.179 56.7969 128.049 62.5463 122.432 64.64C114.756 67.498 108.441 67.4648 96.8096 67.4316C87.4045 67.3983 81.7881 67.3319 74.5765 65.3379C72.6157 64.8061 54.6365 59.7879 54.8359 53.7394C55.0353 47.8239 72.5825 43.0715 83.3501 41.8419C87.2051 41.4099 91.2264 41.3102 97.3413 41.1772C105.749 40.9778 110.136 40.8781 114.722 41.3766C121.801 42.1078 138.817 45.1652 139.548 51.3466Z" fill="#FC5832"/>
<path d="M55.2677 14.391L44.4337 6.91352L39.0499 4.38779L22.6991 39.0834C22.6991 39.0834 19.8078 23.4637 10.3363 28.482C4.88601 31.3733 1.92824 35.6604 2.22734 39.9142C2.59291 45.4642 7.91024 48.3887 8.44197 48.6878C14.424 51.9115 20.9377 48.7211 21.8682 48.2558C24.6931 46.8268 27.5844 44.301 34.2975 29.479C37.1223 23.2311 39.216 17.9138 40.6783 14.0587C43.3702 16.4183 46.0289 18.7778 48.7208 21.1042C50.8809 18.8775 53.0743 16.6509 55.2677 14.391Z" fill="#04B25F"/>
<path d="M191.192 135.128C188.6 135.892 186.007 136.689 183.415 137.454C179.992 138.75 176.569 140.046 173.146 141.342L189.597 175.971C189.065 175.672 182.152 172.016 176.669 175.473C174.675 176.736 173.778 178.397 173.545 178.796C171.318 183.083 172.947 189.398 177.234 192.322C181.621 195.346 186.872 193.485 187.968 193.086C193.718 191.059 197.373 185.343 197.772 180.125C198.038 176.403 196.609 173.944 193.186 167.796C190.86 163.608 187.237 157.028 182.684 148.521C186.739 146.593 190.793 144.632 194.881 142.705C193.651 140.179 192.421 137.653 191.192 135.128Z" fill="#04B25F"/>
</svg>
