<svg width="200" height="201" viewBox="0 0 200 201" fill="none" xmlns="http://www.w3.org/2000/svg">
<path d="M194.547 74.5115C183.314 71.4208 172.447 77.2367 159.287 69.4601C146.126 61.7167 177.499 34.1995 174.408 30.71C171.317 27.2205 149.981 49.6862 127.914 45.8312C105.814 41.9429 118.609 17.1508 114.355 11.7338C110.101 6.31677 94.5814 47.3931 81.421 45.8312C68.2606 44.2692 64.7711 25.6918 56.9945 21.8035C56.4295 21.5376 56.0308 21.4712 55.5987 21.5709C49.8494 23.0996 61.913 56.5988 49.7164 66.2364C42.4051 72.019 22.0995 72.6172 18.6433 72.584C17.5133 72.584 13.7912 72.4511 11.9634 74.8106C11.8304 75.01 10.9331 76.14 10.9996 77.4028C11.0993 80.8259 17.8457 82.1552 27.3172 87.0405C39.5803 93.3548 41.0758 97.7084 41.4746 99.6359C41.7404 100.899 41.8734 102.228 41.4746 103.89C38.3506 116.884 16.0178 131.507 17.8457 135.262C18.0783 135.761 18.8427 136.325 22.8971 136.026C39.2812 134.896 47.0578 124.096 55.2331 127.02C58.9553 128.349 60.7831 131.839 60.8828 132.005C65.3028 140.679 53.9038 153.308 56.4295 166.601C56.6289 167.631 56.8616 168.396 57.4598 168.661C61.5142 170.456 71.3513 144.7 84.5117 145.265C87.835 145.398 90.3275 147.193 90.9922 147.725C95.5452 151.148 97.0407 157.528 99.4335 168.396C100.497 173.248 101.162 177.468 103.887 178.299C105.216 178.731 106.512 178.133 106.878 177.967C111.231 175.94 110.234 168.695 112.993 159.29C115.153 151.978 116.682 146.728 120.57 145.298C128.114 142.54 143.368 155.003 147.422 163.51C147.954 164.607 149.682 168.529 151.743 168.396C152.839 168.329 153.637 167.166 153.903 166.734C157.858 160.686 149.051 137.954 156.229 130.576C169.024 117.416 193.052 130.975 191.49 122.434C189.928 113.893 168.226 107.712 169.024 98.0075C169.822 88.3033 205.78 77.6022 194.547 74.5115ZM157.293 97.4093C156.861 110.836 149.848 119.875 147.854 122.334C137.984 134.697 119.241 138.619 118.21 138.851C95.9107 143.371 78.4632 132.869 75.3725 130.942C71.4178 128.482 65.0702 124.395 59.919 116.552C59.0217 115.189 47.2904 96.6117 55.2664 76.4058C56.3963 73.5145 59.2544 67.2999 65.3028 61.6502C80.1581 47.7919 101.893 49.8856 106.911 50.3841C111.198 50.7829 140.742 54.073 152.574 76.8711C157.525 86.4091 157.359 95.4818 157.293 97.4093Z" fill="#BC2B55"/>
<path d="M157.293 97.4095C156.861 110.836 149.849 119.875 147.855 122.335C137.985 134.697 119.241 138.619 118.211 138.851C95.9114 143.371 78.4639 132.869 75.3732 130.942C71.4185 128.483 65.0709 124.395 59.9197 116.552C59.0224 115.189 47.2911 96.6119 55.2671 76.4061C56.397 73.5148 59.2551 67.3001 65.3035 61.6505C80.1588 47.7922 101.893 49.8859 106.912 50.3844C111.199 50.7832 140.743 54.0733 152.574 76.8713C157.526 86.4093 157.36 95.482 157.293 97.4095Z" fill="#FFB000"/>
<path d="M69.7896 78.4334C69.7896 78.4334 70.2548 84.2493 79.5269 88.6361C88.799 93.0561 100.996 77.2703 100.996 77.2703L98.1043 76.1071C98.1043 76.1071 92.5211 83.784 89.4969 84.9139C86.4727 86.0771 79.2943 87.5393 76.0374 82.7537C72.7806 77.9682 72.7805 77.9682 72.7805 77.9682L69.7896 78.4334Z" fill="#374993"/>
<path d="M137.919 78.4332C137.62 79.3305 135.194 86.3095 128.181 88.6359C123.396 90.2311 119.275 88.7688 117.613 88.1706C110.269 85.4455 107.278 78.6991 106.679 77.2701C107.411 76.971 108.142 76.6719 108.873 76.406C109.238 77.3698 111.664 83.4182 118.112 85.7446C119.275 86.1434 125.19 88.2703 130.242 84.7476C133.465 82.5209 134.562 79.1976 134.895 77.968L137.919 78.4332Z" fill="#374993"/>
<path d="M64.8716 97.2766C64.8716 97.2766 81.8871 119.31 104.885 116.02C127.915 112.763 137.885 94.9836 137.885 94.9836L139.912 96.0802C139.912 96.0802 135.26 105.386 129.377 109.573C123.495 113.727 113.392 119.144 106.679 119.609C99.966 120.108 83.2829 117.881 75.4398 110.304C67.5968 102.694 62.9441 98.3069 62.9441 98.3069L64.8716 97.2766Z" fill="#EE5F9D"/>
<path d="M111.897 94.0196C111.73 97.5423 106.347 99.9351 102.259 100.101C98.57 100.267 93.3524 98.7055 92.8207 95.6148C92.2889 92.5241 96.7422 89.4334 99.8329 88.3034C100.93 87.9046 104.386 86.675 107.776 88.5028C109.404 89.3669 112.03 91.4606 111.897 94.0196Z" fill="#BC2B55"/>
<path d="M33.7649 46.8942C33.7649 46.8942 36.5565 41.7098 41.1427 41.311C42.5053 41.1781 45.2304 40.2143 47.7229 41.6766C49.1187 42.5074 49.8166 43.6705 50.3151 44.5346C50.6474 45.0996 52.8741 49.0211 51.3453 51.4471C50.3483 53.0423 48.1882 53.3414 47.3241 53.4744C39.7469 54.6708 4.85192 60.0546 3.65552 55.0696C2.45912 50.0846 3.82169 46.8942 9.40488 45.8972C14.9881 44.9002 17.5803 49.9849 17.5803 49.9849C17.5803 49.9849 18.5773 43.7038 22.9641 41.0119C27.3841 38.32 33.7649 41.1116 33.7649 46.8942Z" fill="#374993"/>
<path d="M171.717 179.396C172.282 178.598 176.137 173.248 182.883 172.749C183.947 172.683 188.101 172.417 191.889 175.175C192.72 175.807 194.648 177.236 195.745 179.894C196.908 182.752 197.074 186.973 194.814 189.299C192.92 191.26 189.995 191.227 188.898 191.227C150.315 190.961 132.003 193.221 128.912 184.248C128.015 181.622 128.347 177.867 130.242 175.275C133.1 171.387 138.65 171.187 139.514 171.154C140.411 171.154 142.039 171.121 143.834 171.985C145.463 172.749 146.393 173.846 146.626 174.078C148.753 176.571 149.085 180.193 149.085 180.193C149.982 174.81 153.538 170.423 158.324 169.06C163.01 167.731 169.557 169.093 171.584 173.547C172.514 175.807 172.082 178.1 171.717 179.396Z" fill="#374993"/>
</svg>
