<svg width="200" height="201" viewBox="0 0 200 201" fill="none" xmlns="http://www.w3.org/2000/svg">
<path d="M188.367 116.584C180.69 136.159 167.895 156.597 148.952 161.815C134.43 165.836 124.825 159.654 100.93 165.404C91.4588 167.697 83.9481 170.854 78.9631 173.214C76.4706 170.123 73.247 166.534 69.7575 162.878C68.8602 161.948 67.9629 161.017 67.0323 160.086C65.3707 158.425 63.709 156.763 62.0473 155.168C60.9506 154.104 59.8539 153.107 58.7905 152.11C56.298 149.817 53.9384 147.757 51.8779 146.095C54.304 143.702 57.9929 141.576 59.3887 134.862C61.5156 124.46 57.5608 79.2298 74.676 63.9425C91.7911 48.6552 124.194 27.8843 152.01 44.7004C179.826 61.5165 197.839 92.4567 188.367 116.584Z" fill="#FFD800"/>
<path d="M78.9627 173.247C76.4702 170.156 73.2466 166.567 69.7571 162.911C68.8598 161.981 67.9625 161.05 67.032 160.12C65.3703 158.458 63.7086 156.796 62.047 155.201C60.9503 154.138 59.8536 153.141 58.7901 152.144C56.2976 149.851 53.938 147.79 51.8776 146.129C48.2551 143.204 45.5632 141.509 44.6659 141.908C40.9106 143.669 40.2127 147.491 42.6055 151.147C42.6055 151.147 35.8923 149.651 33.4995 152.144C31.1067 154.603 34.7292 161.05 34.7956 161.216C34.6627 161.15 30.7412 159.089 28.1822 162.479C25.59 165.936 31.4391 170.057 31.4391 170.057C31.4391 170.057 28.581 176.038 32.4028 181.023C36.2247 186.042 47.092 199.302 54.2371 197.64C61.4155 195.978 63.7419 192.888 63.7419 192.888C63.7419 192.888 65.1377 198.238 69.6574 195.447C74.1771 192.622 69.5577 188.368 69.5577 188.368C69.5577 188.368 81.7543 193.719 78.0322 182.818C78.0322 182.818 80.99 186.108 83.7816 181.987C84.5459 180.957 82.4855 177.6 78.9627 173.247Z" fill="#009D6F"/>
<path d="M139.448 143.503C129.478 144.201 121.535 141.675 119.142 140.844C110.9 137.887 96.5435 140.047 69.7575 162.944C68.8602 162.014 67.9629 161.083 67.0324 160.153C73.8452 154.005 85.3772 144.6 99.1025 138.186C110.202 133.001 114.556 133.633 116.118 133.932C120.904 134.862 123.762 137.654 129.378 136.956C131.704 136.657 135.759 135.826 136.789 133.267C138.185 129.744 132.436 127.019 130.142 120.24C126.686 109.937 135.294 102.427 131.571 98.1062C128.348 94.3841 121.934 100.067 111.399 96.5775C103.655 94.0185 100.93 88.4686 97.3744 90.2299C93.0873 92.3569 92.3229 99.8011 92.0903 101.895C91.0268 111.499 84.4466 127.352 62.0806 155.234C60.9839 154.171 59.8872 153.174 58.8237 152.177C66.9659 141.775 88.3682 112.795 88.1355 95.2149C88.0026 86.4081 91.1598 81.2569 95.4136 79.13C100.199 76.7372 103.855 84.68 114.722 87.8704C127.218 91.526 133.798 85.2117 137.986 89.5653C143.303 95.1485 132.568 105.55 137.354 119.043C141.109 129.711 155.2 142.373 139.448 143.503Z" fill="#8D41E5"/>
<path d="M65.769 64.0424C65.769 64.0424 48.5209 59.5891 43.5027 58.9577C38.4845 58.3262 30.3091 55.7008 30.3091 55.7008L35.3273 34.4315L69.9232 57.4954L65.769 64.0424Z" fill="#FFD800"/>
<path d="M82.2197 47.3257L70.2225 36.1926L55.334 23.8962L71.6515 10.5364C74.7422 15.9535 77.8329 21.7693 80.8904 27.9507C83.5491 33.3677 85.9751 38.6186 88.2017 43.7033C86.2077 44.8997 84.2137 46.0961 82.2197 47.3257Z" fill="#FFD800"/>
<path d="M105.184 34.4313C104.386 30.2439 103.555 26.0233 102.691 21.8026C101.561 16.0865 100.365 10.4368 99.2019 4.82042C105.583 4.18898 111.997 3.59078 118.378 2.95935C116.284 8.74195 115.054 13.4943 114.356 16.8176C114.057 18.2467 113.924 19.0775 113.426 21.5035C112.329 26.8873 111.332 31.2409 110.667 34.1654C108.806 34.2319 106.979 34.3316 105.184 34.4313Z" fill="#FFD800"/>
</svg>
