<svg width="200" height="200" viewBox="0 0 200 200" fill="none" xmlns="http://www.w3.org/2000/svg">
<path d="M179.958 94.5159C179.958 94.5159 177.332 106.148 174.541 117.281C170.852 118.377 165.534 120.671 163.175 124.958C159.386 131.837 166.731 133.698 163.175 138.351C160.184 142.239 158.721 147.756 161.912 151.843C153.171 168.959 139.014 191.092 125.688 193.418C106.113 196.841 71.7499 183.814 56.961 177.965C49.5168 175.04 36.8549 166.167 25.6552 157.094C25.0238 153.306 23.5948 149.318 20.637 146.991C13.8907 141.674 19.2412 127.35 16.2835 121.202C14.0901 116.649 6.47962 119.873 2.72426 121.834C4.48562 112.13 9.07182 99.8997 13.658 90.6941C20.8696 76.3041 25.6885 68.4278 25.6885 68.4278C24.3259 55.3671 44.2327 21.7017 53.8703 12.4296C63.508 3.15753 61.4143 19.9736 63.1424 28.5478C64.8706 37.122 70.0217 62.5455 70.0217 62.5455C76.0037 63.1769 81.4872 63.9745 86.4058 64.8386C87.3031 70.6212 89.2306 78.9295 93.3847 83.3163C100.198 90.4615 106.113 85.6094 112.926 83.3163C119.739 81.0232 126.884 87.0717 130.54 80.3585C131.005 79.4945 131.37 78.5639 131.636 77.6002C134.096 78.5972 136.355 79.5609 138.383 80.4582C138.383 80.4582 177.565 40.6115 193.018 40.2459C208.472 39.9136 179.958 94.5159 179.958 94.5159Z" fill="#EACB86"/>
<path d="M77.5328 96.5432C76.569 103.954 68.6927 110.269 60.4841 109.272C59.4871 109.139 58.4901 108.939 57.5263 108.607C52.2754 106.845 47.8222 102.259 47.224 96.3105C46.6258 90.0959 50.5141 84.8118 54.8676 82.3193C58.5565 80.1924 62.2454 80.2921 63.9071 80.4582C65.1035 80.5912 68.3604 81.0564 71.4843 83.3495C72.149 83.848 72.8469 84.413 73.4783 85.1109C74.01 85.6426 78.3304 90.3618 77.5328 96.5432Z" fill="#51A8A3"/>
<path d="M69.2236 99.9664C66.9637 103.522 63.9063 105.35 62.0784 106.447C60.3171 107.51 58.7219 108.175 57.5587 108.607C57.8578 103.988 58.6554 98.3047 60.7491 94.5494C63.1751 90.229 67.9939 86.0416 71.5167 83.3497C71.7493 84.4132 71.9819 85.9752 72.0484 87.8695C72.0816 90.2955 72.2146 95.2473 69.2236 99.9664Z" fill="black"/>
<path d="M146.093 118.078C145.129 125.489 137.253 131.803 129.044 130.806C128.047 130.673 127.05 130.474 126.086 130.142C120.836 128.38 116.382 123.794 115.784 117.845C115.186 111.631 119.074 106.347 123.428 103.854C127.117 101.727 130.806 101.827 132.467 101.993C133.664 102.126 136.921 102.591 140.044 104.884C140.709 105.383 141.407 105.948 142.038 106.646C142.57 107.144 146.891 111.897 146.093 118.078Z" fill="#51A8A3"/>
<path d="M137.751 121.468C135.491 125.024 132.433 126.852 130.605 127.949C128.844 129.012 127.249 129.677 126.086 130.109C126.385 125.489 127.182 119.806 129.276 116.051C131.702 111.731 136.521 107.543 140.044 104.851C140.276 105.915 140.509 107.477 140.575 109.371C140.642 111.83 140.775 116.782 137.751 121.468Z" fill="black"/>
<path d="M110.965 157.792C110.467 158.523 105.349 165.734 96.8079 165.734C88.6325 165.701 81.5205 159.088 80.7562 152.773C80.5568 151.012 80.8891 149.583 83.7804 142.671C90.6265 140.81 105.914 132.269 105.482 127.084C104.983 120.969 96.2097 121.468 87.6687 119.374C79.1277 117.28 71.0521 120.737 72.182 126.12C73.0461 130.241 77.7984 137.918 79.9918 141.308C77.6987 145.662 74.9736 149.483 70.4871 151.079C63.0428 153.737 53.3387 149.284 49.0848 141.807C47.6226 139.248 46.8582 136.024 47.2238 131.903L42.3717 130.906C42.3717 130.906 43.1361 143.9 47.2238 146.958C51.3115 150.015 70.0551 163.009 76.8014 154.003C80.2909 162.943 87.2699 169.523 95.1462 170.387C101.527 171.085 107.908 167.961 109.503 167.13C112.195 165.734 114.189 164.173 115.518 162.943C113.99 161.215 112.461 159.52 110.965 157.792Z" fill="#E090C7"/>
<path d="M65.9669 132.469C65.9669 132.469 46.2927 113.293 44.3984 111.365C42.5041 109.471 34.9269 103.589 34.9269 103.589L32.5674 106.613L64.8037 134.33L65.9669 132.469Z" fill="#AA4704"/>
<path d="M62.4114 136.29C62.4114 136.29 39.1813 121.601 36.9215 120.139C34.6616 118.677 26.0209 114.489 26.0209 114.489L24.326 117.945L61.647 138.351L62.4114 136.29Z" fill="#AA4704"/>
<path d="M62.1461 140.91C62.1461 140.91 35.8917 132.834 33.3328 132.003C30.7738 131.172 21.3355 129.411 21.3355 129.411L20.6044 133.2L61.9467 143.103L62.1461 140.91Z" fill="#AA4704"/>
<path d="M95.1128 144.732C95.1128 144.732 125.987 140.112 129.111 139.348C132.234 138.617 139.513 136.756 139.513 136.756L139.845 141.574C139.845 141.574 111.065 145.629 105.548 146.294C100.031 146.958 95.279 147.025 95.279 147.025L95.1128 144.732Z" fill="#AA4704"/>
<path d="M95.0128 150.946C95.0128 150.946 126.219 150.68 129.409 150.381C132.6 150.082 140.044 149.284 140.044 149.284L139.712 154.103C139.712 154.103 110.632 154.07 105.083 153.97C99.5326 153.837 94.8134 153.239 94.8134 153.239L95.0128 150.946Z" fill="#AA4704"/>
<path d="M94.2817 156.43C94.2817 156.43 123.893 166.333 126.983 167.064C130.107 167.829 137.419 169.49 137.419 169.49L135.524 173.944C135.524 173.944 108.04 164.505 102.823 162.578C97.6382 160.65 93.3511 158.557 93.3511 158.557L94.2817 156.43Z" fill="#AA4704"/>
<path d="M52.4746 69.5576L82.7169 73.4127L81.6867 78.9294L71.617 77.1016L51.4111 75.307L52.4746 69.5576Z" fill="#AA4704"/>
<path d="M127.814 87.5369L155.93 99.3015L153.504 104.353L144.298 99.9329L125.255 92.821L127.814 87.5369Z" fill="#AA4704"/>
<path d="M65.0366 89.4645C65.1695 92.1897 62.7767 94.084 60.7162 94.516C60.2842 94.6157 58.4564 94.948 56.7947 93.7516C55.5319 92.8543 54.7343 91.3921 54.7343 89.8966C54.7675 87.2047 57.4926 84.6125 60.4504 84.8783C62.7102 85.1442 64.9369 86.972 65.0366 89.4645Z" fill="white"/>
<path d="M135.525 109.936C135.658 112.462 133.664 114.289 131.769 114.888C131.47 114.987 129.011 115.685 127.117 114.057C125.355 112.528 125.555 110.268 125.555 110.036C125.787 107.576 128.08 105.15 130.939 105.383C133.298 105.582 135.392 107.51 135.525 109.936Z" fill="white"/>
<path d="M34.4951 61.5817C34.4951 61.5817 37.7188 46.3608 43.4017 36.125C49.0846 25.8891 51.8097 15.6532 54.7675 17.8134C57.7585 19.9736 53.3384 37.3546 54.7675 44.7988C56.1965 52.2431 55.8309 61.5484 55.8309 61.5484C53.3717 62.5787 49.9486 63.6421 48.2205 62.1134C46.1933 60.3188 47.5558 55.7991 46.6585 55.5664C45.6615 55.3338 43.7008 61.2493 42.7702 61.0167C41.74 60.7841 43.4017 53.4063 41.8397 52.7748C40.9424 52.4425 38.9484 54.2371 34.4951 61.5817Z" fill="#E090C7"/>
<path d="M169.888 92.4222C169.888 92.4222 179.626 80.3253 183.979 69.458C187.967 59.5212 193.517 51.512 191.689 49.4848C191.49 49.2521 191.257 49.1857 190.991 49.086C187.834 47.8231 183.879 52.0437 178.13 56.929C174.076 60.3853 177.432 57.1284 167.894 64.905C164.571 67.6302 160.018 71.4188 154.601 76.1047C156.595 75.6394 159.154 75.3071 160.217 76.6032C161.613 78.2648 159.985 81.8208 160.749 82.1199C161.314 82.3525 162.112 80.4582 164.471 79.4945C165.069 79.2618 166.332 78.7301 166.797 79.1954C167.761 80.1924 163.973 84.4462 165.036 85.6426C165.601 86.2741 167.23 85.7756 168.127 85.3768C170.885 84.0807 171.683 81.0564 172.048 81.1561C172.347 81.2558 172.181 83.1834 169.888 92.4222Z" fill="#E090C7"/>
<path d="M131.636 77.6002C131.37 78.564 131.005 79.4945 130.539 80.3586C126.85 87.1049 119.705 81.0233 112.926 83.3163C106.113 85.6094 100.197 90.4615 93.3845 83.3163C89.2303 78.9296 87.2696 70.6212 86.4055 64.8386C90.9917 65.6362 95.0794 66.5003 98.6354 67.2979C105.681 68.8931 110.898 70.4218 112.527 70.9203C119.838 73.0805 126.252 75.4068 131.636 77.6002Z" fill="#AA4704"/>
<path d="M25.6552 157.128C14.5885 148.155 4.91763 138.982 3.02333 135.061C1.66076 132.169 1.72723 127.417 2.72423 121.867C6.4796 119.906 14.0568 116.683 16.2834 121.236C19.2412 127.351 13.8906 141.674 20.637 147.025C23.5948 149.351 24.9905 153.372 25.6552 157.128Z" fill="#AA4704"/>
<path d="M174.54 117.281C172.945 123.695 171.25 129.91 170.02 133.665C168.924 136.955 166.032 143.868 161.945 151.877C158.721 147.756 160.216 142.272 163.207 138.384C166.763 133.731 159.419 131.87 163.207 124.991C165.534 120.704 170.851 118.411 174.54 117.281Z" fill="#AA4704"/>
</svg>
