<svg
  width="current"
  height="current"
  class="w-10 h-10"
  viewBox="0 0 206 160"
  fill="none"
  xmlns="http://www.w3.org/2000/svg"
>
  <path
    d="M190.258 86.8655C190.236 88.7135 189.917 90.5458 189.313 92.2914C189.185 92.6563 189.046 93.0159 188.897 93.3647C188.632 93.9814 188.334 94.5834 188.005 95.168C187.079 96.7945 185.896 98.2591 184.502 99.5044C184.488 99.5155 184.476 99.5281 184.465 99.5419L184.422 99.5849C183.992 100.027 183.516 100.421 183.002 100.76C182.537 101.088 182.057 101.388 181.571 101.715C180.64 102.422 179.653 103.048 178.618 103.589C178.468 103.658 178.314 103.723 178.159 103.782L177.854 103.894C177.32 104.098 176.754 104.302 176.194 104.496C175.153 104.86 174.101 105.209 173.049 105.526C172.587 105.663 172.118 105.774 171.645 105.859C171.111 105.966 170.518 106.047 169.952 106.1C169.386 106.154 168.959 106.208 168.467 106.245L167.496 106.331L161.088 106.868L160.293 106.937L157.82 107.147L150.559 107.796L148.086 108L146.127 108.166L140.846 108.606L138.369 108.81L131.112 109.406C130.29 109.476 129.462 109.54 128.64 109.615L121.399 110.222C120.572 110.286 119.75 110.356 118.927 110.431C118.105 110.506 117.229 110.571 116.386 110.641L111.687 111.043L109.225 111.252L102.001 111.88L99.5394 112.1C97.1437 112.315 94.7463 112.533 92.347 112.755C91.5248 112.825 90.7078 112.9 89.8909 112.98L86.6871 113.281L82.7412 113.657L80.2904 113.887L73.1514 114.596L70.7166 114.843C68.3458 115.082 65.9769 115.329 63.6097 115.583L61.1642 115.846C59.7225 115.997 58.2808 116.158 56.8445 116.319L54.0946 116.625L51.6918 116.904C49.3478 117.167 47.009 117.44 44.6703 117.725L42.2782 118.015C39.9502 118.304 37.6257 118.598 35.3048 118.895L32.934 119.206C31.0332 119.447 29.1376 119.705 27.2421 119.963C26.8363 120.043 26.4305 120.102 26.03 120.156C23.475 120.467 20.8831 120.193 18.4479 119.356C18.3709 119.33 18.2959 119.297 18.2236 119.26L14.5233 117.397C14.4492 117.361 14.3779 117.32 14.3097 117.274C11.9281 115.636 9.99609 113.421 8.69254 110.834C8.65502 110.757 8.62291 110.678 8.59642 110.598L7.18679 106.433C7.18679 106.374 7.14941 106.315 7.13873 106.256C6.92879 105.338 6.81426 104.401 6.797 103.46C6.78182 102.625 6.8498 101.791 6.9999 100.97C7.08178 100.533 7.18323 100.098 7.30426 99.6654C7.30426 99.5902 7.34163 99.5044 7.35765 99.4239C7.55149 97.8426 8.04254 96.3127 8.80467 94.9157C9.08807 94.4018 9.40189 93.9053 9.74442 93.4291L9.84587 93.2681C10.8415 91.6756 12.1742 90.3232 13.7491 89.3074C13.952 89.1786 14.1549 89.0552 14.3685 88.9317L14.5714 88.7922C14.8277 88.5883 15.1053 88.4004 15.3456 88.218C16.9492 87.1334 18.7734 86.422 20.6851 86.1356C20.8186 86.1356 20.9521 86.1034 21.0803 86.0873L23.4457 85.7653L30.3871 84.8637L32.7738 84.5632C35.0236 84.2805 37.2751 84.005 39.5284 83.7367C39.6025 83.7263 39.6757 83.7101 39.7473 83.6884C40.0751 83.6056 40.3709 83.4266 40.5972 83.1743C40.8235 82.922 40.97 82.6078 41.0181 82.2715C41.0207 82.2501 41.0207 82.2285 41.0181 82.2071C41.2514 80.6503 41.5704 79.1076 41.9739 77.5863C42.0166 77.4199 42.0486 77.2535 42.102 77.0925C42.1741 76.8475 42.2615 76.6074 42.3637 76.3734C42.4224 76.2338 42.4865 76.0943 42.5505 75.9494C42.8175 75.343 43.1165 74.7365 43.4209 74.1354C43.7946 73.3894 44.1898 72.6488 44.5689 71.9189C44.6863 71.6989 44.7985 71.4842 44.9266 71.2695C45.1792 70.8544 45.4611 70.458 45.7703 70.0835L46.427 69.2731C46.8328 68.7901 47.2386 68.2963 47.6605 67.8187C48.2478 67.1425 48.8565 66.4823 49.4919 65.8598C50.1897 65.1927 50.9376 64.5809 51.7292 64.0297C52.2631 63.654 52.7971 63.2945 53.3311 62.9563L54.9703 61.9206C56.044 61.2441 57.1729 60.6606 58.3449 60.1763H58.3929C59.0337 59.9187 59.6744 59.6665 60.3258 59.4357C61.8636 58.899 63.4281 58.3892 64.9873 57.9223C65.3771 57.8042 65.7668 57.6969 66.162 57.5895C66.2096 57.5802 66.2561 57.5658 66.3008 57.5466C66.595 57.4412 66.8549 57.257 67.0526 57.0139C67.2502 56.7708 67.378 56.4781 67.4221 56.1673C67.4221 56.1137 67.4221 56.06 67.4221 56.0063C67.7478 53.9182 68.3719 51.8883 69.2749 49.9794C69.5526 49.3783 69.8623 48.788 70.188 48.2083C71.13 46.5771 72.2376 45.0483 73.4931 43.6465C73.9096 43.1689 74.3475 42.7127 74.8013 42.2673C76.0394 41.0416 77.3811 39.9265 78.8113 38.9345L79.1157 38.7198C79.6496 38.3495 80.1836 37.9846 80.7175 37.6142C82.2717 36.5137 83.8928 35.5117 85.5712 34.6142C86.0784 34.3566 86.5964 34.1043 87.125 33.8789C87.2158 33.8414 87.3119 33.7984 87.408 33.7662C89.2849 32.9561 91.2068 32.2555 93.164 31.6678C93.8635 31.4585 94.5683 31.2653 95.2731 31.0936C95.6843 30.9916 96.0901 30.9004 96.5012 30.8145C99.4411 30.2366 102.48 30.4419 105.317 31.4102L105.546 31.5014L106.871 32.1723L109.247 33.3691C109.318 33.4062 109.388 33.4475 109.455 33.4925C110.742 34.374 111.902 35.4285 112.904 36.6267C113.075 36.8315 113.29 36.993 113.534 37.0984C113.778 37.2037 114.044 37.2499 114.309 37.2332C115.291 37.1742 116.279 37.1259 117.261 37.0776C118.02 37.04 118.778 37.0185 119.541 37.0239C120.449 37.0239 121.351 37.0561 122.259 37.1259H122.329C123.928 37.2473 125.518 37.4659 127.091 37.7806C128.693 38.0919 130.263 38.3978 131.844 38.7627C133.072 39.0418 134.289 39.3585 135.49 39.7288L136.153 39.9488C137.697 40.4607 139.207 41.0702 140.675 41.7735C143.487 43.0569 146.217 44.5141 148.85 46.1367C153.693 49.2549 156.528 55.051 156.427 60.7721C156.427 61.0887 156.427 61.4053 156.384 61.722C156.341 62.0386 156.331 62.3016 156.293 62.586C156.255 62.875 156.292 63.1689 156.4 63.4394C156.485 63.6567 156.614 63.8542 156.779 64.0194C156.943 64.1847 157.14 64.3142 157.356 64.4C157.463 64.4477 157.576 64.4819 157.692 64.502C158.685 64.6702 159.677 64.849 160.666 65.0387C164.161 65.6973 167.619 66.541 171.025 67.5664C172.371 67.9743 173.695 68.4251 175.035 68.9028C176.375 69.3804 177.523 69.8473 178.773 70.3787C181.599 71.3684 184.119 73.0854 186.079 75.3585C188.04 77.6316 189.374 80.3815 189.948 83.3341C189.991 83.5488 190.023 83.7689 190.055 83.9782C190.206 84.9329 190.274 85.899 190.258 86.8655Z"
    fill="white"
  ></path>
  <path
    d="M91.7326 113.276C90.9114 113.346 90.0956 113.428 89.2798 113.504L45.8662 69.2423C46.2661 68.7476 46.6713 68.2475 47.0926 67.7637L91.7326 113.276Z"
    fill="currentColor"
  ></path>
  <path
    d="M91.7326 113.276C90.9114 113.346 90.0956 113.428 89.2798 113.504L45.8662 69.2423C46.2661 68.7476 46.6713 68.2475 47.0926 67.7637L91.7326 113.276Z"
    fill="currentColor"
    fill-opacity="0.2"
  ></path>
  <path
    d="M101.926 111.59L99.4307 111.81L50.9629 63.7542C51.5041 63.3786 52.0452 63.0192 52.5864 62.6812L101.926 111.59Z"
    fill="currentColor"
  ></path>
  <path
    d="M101.926 111.59L99.4307 111.81L50.9629 63.7542C51.5041 63.3786 52.0452 63.0192 52.5864 62.6812L101.926 111.59Z"
    fill="currentColor"
    fill-opacity="0.2"
  ></path>
  <path
    d="M112.118 111.598L109.608 111.81L57.7578 60.0434C58.404 59.7824 59.0629 59.5322 59.7344 59.293L112.118 111.598Z"
    fill="currentColor"
  ></path>
  <path
    d="M112.118 111.598L109.608 111.81L57.7578 60.0434C58.404 59.7824 59.0629 59.5322 59.7344 59.293L112.118 111.598Z"
    fill="currentColor"
    fill-opacity="0.2"
  ></path>
  <path
    d="M120.611 109.907C119.8 109.971 118.984 110.041 118.173 110.116L66.251 57.4383C66.5422 57.3334 66.7994 57.1494 66.9945 56.9063C67.1895 56.6631 67.315 56.3703 67.357 56.0597C67.357 56.0117 67.357 55.9582 67.357 55.9048L120.611 109.907Z"
    fill="currentColor"
  ></path>
  <path
    d="M120.611 109.907C119.8 109.971 118.984 110.041 118.173 110.116L66.251 57.4383C66.5422 57.3334 66.7994 57.1494 66.9945 56.9063C67.1895 56.6631 67.315 56.3703 67.357 56.0597C67.357 56.0117 67.357 55.9582 67.357 55.9048L120.611 109.907Z"
    fill="currentColor"
    fill-opacity="0.2"
  ></path>
  <path
    d="M130.804 109.908L128.358 110.116L69.6484 50.8863C69.9231 50.2897 70.2295 49.7037 70.5517 49.1284L130.804 109.908Z"
    fill="currentColor"
  ></path>
  <path
    d="M130.804 109.908L128.358 110.116L69.6484 50.8863C69.9231 50.2897 70.2295 49.7037 70.5517 49.1284L130.804 109.908Z"
    fill="currentColor"
    fill-opacity="0.2"
  ></path>
  <path
    d="M140.997 108.219L138.497 108.421L73.0469 43.7211C73.4672 43.247 73.9144 42.7889 74.3671 42.3521L140.997 108.219Z"
    fill="currentColor"
  ></path>
  <path
    d="M140.997 108.219L138.497 108.421L73.0469 43.7211C73.4672 43.247 73.9144 42.7889 74.3671 42.3521L140.997 108.219Z"
    fill="currentColor"
    fill-opacity="0.2"
  ></path>
  <path
    d="M151.189 108.21L148.715 108.422L79.8418 38.3869L81.4419 37.27L151.189 108.21Z"
    fill="currentColor"
  ></path>
  <path
    d="M151.189 108.21L148.715 108.422L79.8418 38.3869L81.4419 37.27L151.189 108.21Z"
    fill="currentColor"
    fill-opacity="0.2"
  ></path>
  <path
    d="M159.683 106.52L157.209 106.728L84.9375 34.7282C85.4451 34.4674 85.9634 34.2225 86.4924 33.9989L86.7702 33.8818L159.683 106.52Z"
    fill="currentColor"
  ></path>
  <path
    d="M159.683 106.52L157.209 106.728L84.9375 34.7282C85.4451 34.4674 85.9634 34.2225 86.4924 33.9989L86.7702 33.8818L159.683 106.52Z"
    fill="currentColor"
    fill-opacity="0.2"
  ></path>
  <path
    d="M169.876 106.504C169.381 106.557 168.887 106.6 168.398 106.642L167.43 106.727L93.4316 32.7561C94.1281 32.5489 94.8298 32.3576 95.5316 32.1875L169.876 106.504Z"
    fill="currentColor"
  ></path>
  <path
    d="M169.876 106.504C169.381 106.557 168.887 106.6 168.398 106.642L167.43 106.727L93.4316 32.7561C94.1281 32.5489 94.8298 32.3576 95.5316 32.1875L169.876 106.504Z"
    fill="currentColor"
    fill-opacity="0.2"
  ></path>
  <path
    d="M178.369 104.312L178.055 104.426C177.513 104.632 176.933 104.838 176.37 105.034L101.925 30.4937C102.798 30.6496 103.658 30.8707 104.498 31.1552L104.731 31.2473L106.074 31.9251L178.369 104.312Z"
    fill="currentColor"
  ></path>
  <path
    d="M178.369 104.312L178.055 104.426C177.513 104.632 176.933 104.838 176.37 105.034L101.925 30.4937C102.798 30.6496 103.658 30.8707 104.498 31.1552L104.731 31.2473L106.074 31.9251L178.369 104.312Z"
    fill="currentColor"
    fill-opacity="0.2"
  ></path>
  <path
    d="M183.466 100.416L183.423 100.459C182.997 100.904 182.525 101.302 182.016 101.645L118.913 37.27C119.816 37.27 120.718 37.3025 121.611 37.373H121.685L183.466 100.416Z"
    fill="currentColor"
  ></path>
  <path
    d="M183.466 100.416L183.423 100.459C182.997 100.904 182.525 101.302 182.016 101.645L118.913 37.27C119.816 37.27 120.718 37.3025 121.611 37.373H121.685L183.466 100.416Z"
    fill="currentColor"
    fill-opacity="0.2"
  ></path>
  <path
    d="M136.035 39.9693L156.285 61.6297C156.285 61.9556 156.285 62.2815 156.244 62.6074C156.203 62.9334 156.193 63.2041 156.156 63.4968C156.119 63.7942 156.155 64.0968 156.26 64.3752L132.503 38.9639C133.696 39.2622 134.894 39.5881 136.035 39.9693Z"
    fill="currentColor"
  ></path>
  <path
    d="M136.035 39.9693L156.285 61.6297C156.285 61.9556 156.285 62.2815 156.244 62.6074C156.203 62.9334 156.193 63.2041 156.156 63.4968C156.119 63.7942 156.155 64.0968 156.26 64.3752L132.503 38.9639C133.696 39.2622 134.894 39.5881 136.035 39.9693Z"
    fill="currentColor"
    fill-opacity="0.2"
  ></path>
  <path
    d="M188.562 93.0831C188.305 93.6939 188.016 94.2901 187.697 94.8691L157.984 64.3755C158.089 64.4227 158.198 64.4566 158.311 64.4765C159.274 64.643 160.236 64.8202 161.196 65.008L188.562 93.0831Z"
    fill="currentColor"
  ></path>
  <path
    d="M188.562 93.0831C188.305 93.6939 188.016 94.2901 187.697 94.8691L157.984 64.3755C158.089 64.4227 158.198 64.4566 158.311 64.4765C159.274 64.643 160.236 64.8202 161.196 65.008L188.562 93.0831Z"
    fill="currentColor"
    fill-opacity="0.2"
  ></path>
  <path
    d="M190.259 86.3986L171.574 67.7637C172.889 68.1571 174.188 68.5867 175.472 69.0526L190.057 83.593C190.204 84.5208 190.271 85.4594 190.259 86.3986Z"
    fill="currentColor"
  ></path>
  <path
    d="M190.259 86.3986L171.574 67.7637C172.889 68.1571 174.188 68.5867 175.472 69.0526L190.057 83.593C190.204 84.5208 190.271 85.4594 190.259 86.3986Z"
    fill="currentColor"
    fill-opacity="0.2"
  ></path>
  <path
    d="M83.2388 113.278L80.7574 113.504L42.4688 76.3236C42.7451 75.7238 43.0431 75.1293 43.3519 74.54L83.2388 113.278Z"
    fill="currentColor"
  ></path>
  <path
    d="M83.2388 113.278L80.7574 113.504L42.4688 76.3236C42.7451 75.7238 43.0431 75.1293 43.3519 74.54L83.2388 113.278Z"
    fill="currentColor"
    fill-opacity="0.2"
  ></path>
  <path
    d="M73.0464 114.954L70.5699 115.198L39.0713 84.4116C39.4043 84.329 39.7049 84.1519 39.9349 83.9024C40.165 83.653 40.3142 83.3425 40.3638 83.0103L73.0464 114.954Z"
    fill="currentColor"
  ></path>
  <path
    d="M73.0464 114.954L70.5699 115.198L39.0713 84.4116C39.4043 84.329 39.7049 84.1519 39.9349 83.9024C40.165 83.653 40.3142 83.3425 40.3638 83.0103L73.0464 114.954Z"
    fill="currentColor"
    fill-opacity="0.2"
  ></path>
  <path
    d="M62.8535 114.931L60.4884 115.198L30.5771 84.9976L32.8956 84.7046L62.8535 114.931Z"
    fill="currentColor"
  ></path>
  <path
    d="M62.8535 114.931L60.4884 115.198L30.5771 84.9976L32.8956 84.7046L62.8535 114.931Z"
    fill="currentColor"
    fill-opacity="0.2"
  ></path>
  <path
    d="M54.3599 116.619L51.8895 116.892L20.3848 86.714L22.8167 86.3984L54.3599 116.619Z"
    fill="currentColor"
  ></path>
  <path
    d="M54.3599 116.619L51.8895 116.892L20.3848 86.714L22.8167 86.3984L54.3599 116.619Z"
    fill="currentColor"
    fill-opacity="0.2"
  ></path>
  <path
    d="M44.1674 118.284L41.7978 118.586L13.5898 89.203C13.7904 89.0711 13.9909 88.9392 14.1968 88.8183C14.2681 88.7751 14.3369 88.7274 14.4026 88.6754C14.6559 88.4665 14.9303 88.2742 15.1731 88.0928L44.1674 118.284Z"
    fill="currentColor"
  ></path>
  <path
    d="M44.1674 118.284L41.7978 118.586L13.5898 89.203C13.7904 89.0711 13.9909 88.9392 14.1968 88.8183C14.2681 88.7751 14.3369 88.7274 14.4026 88.6754C14.6559 88.4665 14.9303 88.2742 15.1731 88.0928L44.1674 118.284Z"
    fill="currentColor"
    fill-opacity="0.2"
  ></path>
  <path
    d="M35.6742 118.281L33.2441 118.586L8.49414 94.7896C8.7814 94.2841 9.1032 93.7973 9.45743 93.3326C9.49027 93.28 9.52311 93.2274 9.56142 93.1748L35.6742 118.281Z"
    fill="currentColor"
  ></path>
  <path
    d="M35.6742 118.281L33.2441 118.586L8.49414 94.7896C8.7814 94.2841 9.1032 93.7973 9.45743 93.3326C9.49027 93.28 9.52311 93.2274 9.56142 93.1748L35.6742 118.281Z"
    fill="currentColor"
    fill-opacity="0.2"
  ></path>
  <path
    d="M25.4812 120.155C24.66 120.256 23.8323 120.296 23.0052 120.274L6.79699 104.055C6.78206 103.247 6.848 102.44 6.99383 101.645L25.4812 120.155Z"
    fill="currentColor"
  ></path>
  <path
    d="M25.4812 120.155C24.66 120.256 23.8323 120.296 23.0052 120.274L6.79699 104.055C6.78206 103.247 6.848 102.44 6.99383 101.645L25.4812 120.155Z"
    fill="currentColor"
    fill-opacity="0.2"
  ></path>
</svg>
