<svg width="200" height="200" viewBox="0 0 200 200" fill="none" xmlns="http://www.w3.org/2000/svg">
<path d="M170.953 88.5012C171.751 87.7368 174.509 88.2686 175.307 87.1386C176.503 85.5102 165.237 82.4527 165.27 80.7911C165.304 79.1294 168.062 82.5524 170.156 80.7911C172.216 79.0297 159.388 74.6097 158.491 73.5462C157.627 72.516 162.612 73.4133 165.802 71.0537C168.095 69.3256 159.189 69.5582 154.104 69.8241C156.563 68.096 161.05 63.8421 164.905 54.2709C170.555 40.3129 172.881 20.7053 165.57 15.3879C158.258 10.0706 146.627 12.7293 142.971 20.3729C139.315 27.9833 139.648 42.2072 126.454 54.1712C126.653 52.8086 126.753 50.9808 126.155 50.4158C125.158 49.4521 119.973 52.3766 118.744 51.9113C117.514 51.4793 122.167 50.582 120.97 49.8176C119.741 49.0533 112.363 50.582 110.701 50.4158C109.04 50.2497 111.931 49.2527 113.892 48.156C115.886 47.0593 105.484 49.2527 102.792 50.4158C100.067 51.579 103.523 48.7209 104.287 47.0593C104.919 45.6967 100.2 51.3131 98.538 53.3071C97.8733 53.4733 97.1754 53.6395 96.5108 53.8056C96.5108 53.8056 96.5107 53.8056 96.544 53.8056C101.263 63.9086 105.318 71.951 108.142 77.368C113.46 87.6039 115.52 90.7611 117.115 96.9757C118.877 103.789 121.369 113.559 117.049 119.973C109.771 130.741 85.2114 128.946 69.1265 119.309C58.7577 113.094 52.7757 104.154 49.4856 97.441C48.1895 98.6041 48.5218 98.3715 47.5913 99.1359C39.283 105.783 33.6333 110.435 26.322 119.408C19.0107 128.381 14.6903 132.037 13.361 143.004C13.0951 145.297 13.0951 147.657 13.3942 149.916C14.4909 158.491 19.5092 166.134 27.6513 166.932C32.1046 167.364 37.3554 168.029 43.4039 168.062C51.3799 168.095 60.7517 166.965 71.5193 162.612C87.006 156.364 94.7162 153.24 97.0093 152.276C96.7434 154.735 96.5107 157.66 96.9428 157.128C97.6739 156.231 97.6739 153.605 98.1059 154.868C98.5712 156.131 97.9398 159.92 98.9035 160.983C99.9005 162.047 99.3688 157.66 99.967 158.723C100.565 159.787 99.5017 165.47 100.432 166.467C101.33 167.464 101.064 161.482 102.061 162.512C103.058 163.542 101.961 166.766 103.756 167.397C104.62 167.696 104.919 166.5 104.985 165.17C109.671 159.753 118.378 149.85 124.56 144.001C131.805 137.122 166.234 108.076 178.497 97.7401C176.271 94.7159 173.745 91.6251 170.953 88.5012Z" fill="#FF7300"/>
<path d="M26.8214 48.2229C25.5585 44.1685 26.2564 39.8149 28.6825 36.6578C33.9998 29.6788 50.2841 33.0021 61.5834 38.6517C72.8828 44.3014 84.5144 57.2624 84.5144 57.2624C75.1759 61.5495 69.8585 68.2959 66.7014 72.3836C65.937 73.3473 65.2723 74.3111 64.6077 75.2416C63.0789 73.2809 60.52 70.4228 56.8311 67.6644C51.3144 63.5767 49.4201 61.2172 40.3141 59.2564C32.7037 57.628 28.3501 53.1082 26.8214 48.2229Z" fill="#FF7300"/>
<path d="M117.149 96.976C115.554 90.7614 113.527 87.6042 108.176 77.3683C105.351 71.9513 101.264 63.9088 96.5778 53.8059C96.5778 53.8059 96.5778 53.8059 96.5446 53.8059C90.6623 55.3014 85.0459 57.0628 84.5141 57.2289C84.5141 57.2289 84.5141 57.2289 84.4809 57.2289C75.1423 61.516 69.825 68.2624 66.6678 72.3501C65.9035 73.3139 65.2388 74.2776 64.5741 75.2082C64.4744 75.3743 64.3747 75.5073 64.275 75.6734C63.6768 76.8366 62.0484 79.8941 59.8882 83.4833C57.0966 88.1027 53.3413 93.6527 49.4862 97.3748C52.7763 104.088 58.7583 113.028 69.1271 119.242C85.212 128.847 109.771 130.641 117.05 119.907C121.403 113.559 118.911 103.789 117.149 96.976Z" fill="#FFD652"/>
<path d="M97.0757 107.744C93.3868 109.871 88.0363 111.233 81.589 110.702C81.589 110.702 80.5255 97.7406 85.2114 95.1484C87.6375 93.8191 90.8279 93.088 93.9518 93.3871C96.8763 93.6862 99.7676 94.8826 101.795 97.3418C104.254 100.3 102.26 104.786 97.0757 107.744Z" fill="#32B244"/>
<path d="M182.918 94.0849C182.918 94.0849 181.289 95.4475 178.564 97.7406C166.301 108.076 131.871 137.122 124.626 144.001C118.046 150.216 108.641 160.984 104.188 166.135C102.659 167.929 101.729 169.026 101.729 169.026L114.357 185.044C114.357 185.044 156.331 151.479 166.102 142.871C175.905 134.264 195.945 110.402 195.945 110.402L182.918 94.0849Z" fill="#007A96"/>
<path d="M138.019 56.3984C138.019 56.3984 146.195 48.9209 147.225 42.108C148.255 35.2952 146.893 25.6575 153.705 21.8025C160.518 17.9474 166.999 24.7602 165.968 30.2105C164.938 35.6608 155.6 61.5495 148.853 66.9666C142.107 72.4168 148.554 61.184 147.757 59.5888C146.959 58.0268 142.871 64.6402 142.871 64.6402C142.871 64.6402 145.397 59.2897 143.802 57.8606C142.24 56.4316 140.013 62.4468 140.013 62.4468C139.947 61.7157 139.947 60.6522 140.279 59.4558C140.678 57.9936 141.309 57.3289 141.01 56.7972C140.811 56.4316 140.146 56.0993 138.019 56.3984Z" fill="#FF0068"/>
<path d="M62.7458 65.9027C62.4799 66.4012 66.1688 68.4284 65.7368 69.791C65.6371 70.0569 65.4377 70.223 65.3712 70.2563C63.909 71.22 59.6551 67.2985 58.6581 66.3347C55.1354 63.7093 51.945 61.5491 49.2531 59.8875C44.9327 57.1623 42.7726 55.833 40.7786 54.9689C35.3615 52.6758 32.7361 53.1743 30.6424 50.3827C29.6122 48.9869 28.6152 46.6606 29.5125 45.0986C30.3766 43.6031 32.6697 43.437 33.6002 43.3705C45.6306 42.4732 67.6311 63.5431 67.764 65.9027C67.764 66.1686 67.6643 66.3347 67.6643 66.3347C66.9332 67.3317 63.0117 65.4042 62.7458 65.9027Z" fill="#FF0068"/>
<path d="M97.0759 107.744C96.5774 107.744 96.0457 107.677 95.5472 107.578C91.6921 106.68 89.3326 102.593 90.3296 98.4384C90.8613 96.2118 92.2239 94.4172 93.9852 93.387C96.9098 93.6861 99.8011 94.8825 101.828 97.3417C104.254 100.299 102.26 104.786 97.0759 107.744Z" fill="black"/>
<path d="M92.9882 97.6735C93.2541 99.1357 92.0909 100.698 90.5289 100.764C88.967 100.797 87.6376 99.3019 87.8703 97.7732C88.0697 96.4438 89.399 95.5133 90.7283 95.6462C91.8583 95.7459 92.7888 96.61 92.9882 97.6735Z" fill="white"/>
<path d="M68.6286 139.547C68.6286 139.547 66.7343 150.514 61.5167 154.469C57.5287 157.46 51.9123 164.273 43.4378 168.061C37.3893 168.028 32.1384 167.364 27.6852 166.932C19.543 166.134 14.5248 158.49 13.4281 149.916L16.552 150.581C16.552 150.581 18.4463 160.285 26.7214 162.644C34.9965 165.004 40.6794 164.771 43.5375 162.644C46.3955 160.517 63.9095 151.212 63.6768 139.514H68.6286V139.547Z" fill="#FF0068"/>
<path d="M21.4368 146.826C19.4428 149.418 17.8808 151.379 15.4548 151.612C11.0015 152.011 7.14646 146.294 5.65096 142.439C4.9863 140.678 2.85936 135.261 5.65096 131.04C8.30963 127.019 13.627 126.687 17.8476 126.454C21.9353 126.188 25.2254 125.989 27.0532 128.049C30.8086 132.237 24.8598 142.406 21.4368 146.826Z" fill="black"/>
<path d="M39.0175 145.895C38.8514 146.759 38.1535 147.424 37.2894 147.524C36.1927 147.657 35.1625 146.859 35.0295 145.796C34.8634 144.533 36.0598 143.336 37.3226 143.503C38.3861 143.669 39.2169 144.799 39.0175 145.895Z" fill="#FFD652"/>
<path d="M53.5072 145.895C53.341 146.56 52.7096 147.191 51.8788 147.225C50.9815 147.258 50.3168 146.527 50.1506 145.795C49.918 144.732 50.8153 143.536 51.8123 143.502C52.8758 143.502 53.8063 144.832 53.5072 145.895Z" fill="#FFD652"/>
<path d="M49.9843 129.744C49.8513 130.509 49.2531 131.273 48.3891 131.406C47.2924 131.572 46.2289 130.675 46.1292 129.611C45.9963 128.349 47.2259 127.119 48.4223 127.318C49.4525 127.485 50.1837 128.681 49.9843 129.744Z" fill="#FFD652"/>
<path d="M77.236 81.722C77.236 81.722 87.1728 82.0544 89.3994 82.5196C91.626 82.9849 100.2 83.1511 100.2 83.1511V79.1631C100.2 79.1631 90.33 78.1993 88.336 78.1993C86.342 78.1993 77.236 76.9032 77.236 76.9032V81.722Z" fill="#FF7300"/>
<path d="M122.201 168.261C121.769 169.923 120.273 172.116 117.847 172.249C115.454 172.349 113.427 170.454 113.062 168.361C112.53 165.37 115.521 162.877 117.947 162.545C118.279 162.512 119.609 162.312 120.772 163.143C122.4 164.273 122.633 166.666 122.201 168.261Z" fill="#32B244"/>
<path d="M144.899 148.587C144.367 150.548 142.44 152.608 140.047 152.376C137.588 152.11 136.092 149.617 136.059 147.524C136.026 144.632 138.751 141.808 141.41 142.24C143.969 142.672 145.597 145.928 144.899 148.587Z" fill="#32B244"/>
<path d="M165.803 128.614C165.837 131.439 163.311 133.666 160.652 133.666C158.426 133.666 156.332 132.104 155.833 130.077C155.102 126.986 158.226 123.397 161.483 123.796C163.71 124.028 165.77 126.089 165.803 128.614Z" fill="#32B244"/>
<path d="M186.873 110.436C186.839 113.393 183.583 115.686 180.758 114.955C178.764 114.457 177.069 112.463 177.202 110.103C177.335 107.777 179.196 106.016 181.19 105.683C184.015 105.251 186.939 107.611 186.873 110.436Z" fill="#32B244"/>
</svg>
