<svg
  width="current"
  height="current"
  class="w-10 h-10"
  viewBox="0 0 89 41"
  fill="none"
  xmlns="http://www.w3.org/2000/svg"
>
  <path
    d="M43.9602 0.646484L44.1723 8.33004C44.3532 14.8808 49.6211 20.1487 56.1718 20.3295L63.8554 20.5417L56.1718 20.7539C49.6211 20.9347 44.3532 26.2026 44.1723 32.7534L43.9602 40.4369L43.748 32.7534C43.5671 26.2026 38.2993 20.9347 31.7485 20.7539L24.0649 20.5417L31.7485 20.3295C38.2993 20.1487 43.5671 14.8808 43.748 8.33003L43.9602 0.646484Z"
    fill="currentColor"
  ></path>
  <path
    d="M43.9602 0.646484L44.1723 8.33004C44.3532 14.8808 49.6211 20.1487 56.1718 20.3295L63.8554 20.5417L56.1718 20.7539C49.6211 20.9347 44.3532 26.2026 44.1723 32.7534L43.9602 40.4369L43.748 32.7534C43.5671 26.2026 38.2993 20.9347 31.7485 20.7539L24.0649 20.5417L31.7485 20.3295C38.2993 20.1487 43.5671 14.8808 43.748 8.33003L43.9602 0.646484Z"
    fill="currentColor"
    fill-opacity="0.2"
  ></path>
  <path
    d="M88.0393 20.5421C88.0393 22.4792 86.8389 24.3445 84.6216 26.0588C82.406 27.7719 79.1925 29.3198 75.2109 30.6218C67.2491 33.2256 56.2423 34.838 44.0792 34.838C31.9161 34.838 20.9094 33.2256 12.9475 30.6218C8.96595 29.3198 5.75245 27.7719 3.53684 26.0588C1.31961 24.3445 0.119133 22.4792 0.119133 20.5421C0.119133 18.6049 1.31961 16.7396 3.53684 15.0253C5.75245 13.3122 8.96595 11.7644 12.9475 10.4623C20.9094 7.85852 31.9161 6.24609 44.0792 6.24609C56.2423 6.24609 67.2491 7.85852 75.2109 10.4623C79.1925 11.7644 82.406 13.3122 84.6216 15.0253C86.8389 16.7396 88.0393 18.6049 88.0393 20.5421Z"
    stroke="currentColor"
    stroke-width="0.238266"
  ></path>
  <path
    d="M88.0393 20.5421C88.0393 22.4792 86.8389 24.3445 84.6216 26.0588C82.406 27.7719 79.1925 29.3198 75.2109 30.6218C67.2491 33.2256 56.2423 34.838 44.0792 34.838C31.9161 34.838 20.9094 33.2256 12.9475 30.6218C8.96595 29.3198 5.75245 27.7719 3.53684 26.0588C1.31961 24.3445 0.119133 22.4792 0.119133 20.5421C0.119133 18.6049 1.31961 16.7396 3.53684 15.0253C5.75245 13.3122 8.96595 11.7644 12.9475 10.4623C20.9094 7.85852 31.9161 6.24609 44.0792 6.24609C56.2423 6.24609 67.2491 7.85852 75.2109 10.4623C79.1925 11.7644 82.406 13.3122 84.6216 15.0253C86.8389 16.7396 88.0393 18.6049 88.0393 20.5421Z"
    stroke="currentColor"
    stroke-opacity="0.2"
    stroke-width="0.238266"
  ></path>
</svg>
