<svg width="200" height="200" viewBox="0 0 200 200" fill="none" xmlns="http://www.w3.org/2000/svg">
<path d="M63.6746 141.443C63.5749 141.51 63.4752 141.576 63.3755 141.642C52.9735 148.555 32.7676 152.609 26.7192 149.452C20.6707 146.262 22.6647 139.914 25.2901 127.219C27.8823 114.524 33.6649 106.149 42.9038 98.0736C52.1426 89.9979 71.4844 88.5357 71.4844 88.5357C68.8258 88.2033 66.3 87.6384 63.9072 86.8408C58.0249 87.5054 41.2421 90.0976 32.3688 97.841C21.5015 107.346 14.6887 117.216 11.6312 132.171C8.57376 147.126 6.18096 154.603 13.3261 158.359C20.4713 162.114 44.2663 157.329 56.4962 149.186C58.6231 147.757 60.6504 146.295 62.6111 144.766C67.6294 140.812 72.0494 136.358 75.7715 131.307C72.1823 135.096 68.1279 138.452 63.6746 141.443Z" fill="#FF73C6"/>
<path d="M25.1562 52.3107C20.4038 37.0234 13.2587 15.9535 27.8813 11.8658C42.504 7.77808 67.6616 23.431 77.4987 40.0809C85.4082 53.4739 87.6348 60.0541 88.1998 62.1145C86.8372 59.0571 84.6771 54.77 81.254 48.9874C72.8792 34.83 51.5102 21.5699 39.1142 25.0262C26.6849 28.4824 32.7666 46.3952 36.8211 59.3894C40.0115 69.6585 48.2866 80.4926 60.7491 85.7102C41.9058 81.2569 29.5098 66.3684 25.1562 52.3107Z" fill="#FF73C6"/>
<path d="M132.567 142.407C129.875 128.415 121.8 115.155 119.141 111.068C117.878 110.037 116.782 109.074 115.884 108.21C115.884 108.21 125.256 121.603 128.014 135.926C128.48 138.385 130.54 150.15 125.522 163.277C122.863 170.223 120.537 176.371 115.585 177.767C106.213 180.459 93.9502 164.174 87.0045 150.648C84.1796 145.132 83.7476 137.322 84.1464 130.343C84.6449 121.835 86.3398 114.59 86.4063 114.291C85.3096 117.116 84.0135 119.741 82.518 122.201C81.8533 125.923 81.0889 131.207 80.8231 136.923C80.4575 144.866 81.0557 153.54 84.2461 159.754C92.4215 175.706 106.878 194.882 117.911 191.692C123.727 190.03 126.486 182.818 129.61 174.61C135.558 159.156 133.132 145.298 132.567 142.407Z" fill="#FF73C6"/>
<path d="M90.4944 68.3625C90.4944 68.3625 90.2285 66.6676 88.4339 62.6131C89.2647 55.2353 92.0563 40.7788 103.023 27.8843C113.924 14.9898 134.728 1.63 144.798 8.14373C155.067 14.7572 151.378 40.513 142.106 57.0964C138.251 63.9757 133.532 69.0936 129.377 72.7161C131.704 70.1571 134.063 67.0996 136.09 63.444C143.967 49.3863 147.091 27.4855 138.384 21.8691C129.843 16.3524 112.196 27.6849 102.89 38.6187C93.4521 49.7186 91.159 62.1479 90.4944 68.3625Z" fill="#FF73C6"/>
<path d="M196.043 111.599C195.046 121.104 172.946 128.449 155.099 127.053C146.126 126.355 138.449 123.464 132.268 120.041C129.177 118.312 126.452 116.485 124.126 114.69C125.256 115.454 126.485 116.185 127.781 116.883C133.032 119.808 139.546 122.234 147.157 122.832C162.311 124.029 181.088 117.781 181.952 109.705C182.251 106.847 180.157 104.554 175.903 100.134C171.55 95.5808 162.942 86.5414 147.954 81.8887C137.253 78.5654 127.781 78.8645 121.667 79.6288C122.963 78.6651 124.458 77.4687 126.053 76.0397C133.298 75.2421 144.033 75.0759 156.096 78.798C173.743 84.2483 183.879 94.8829 188.997 100.267C193.916 105.551 196.408 108.209 196.043 111.599Z" fill="#FF73C6"/>
<path d="M175.87 100.134C171.517 95.5809 162.909 86.5414 147.921 81.8888C137.22 78.5654 127.748 78.8645 121.633 79.6289C122.929 78.6651 124.425 77.4687 126.02 76.0397C127.117 75.0427 128.247 73.9128 129.377 72.6831C131.703 70.1242 134.063 67.0667 136.09 63.411C143.966 49.3533 147.09 27.4526 138.383 21.8362C129.842 16.3527 112.195 27.6852 102.89 38.619C93.4515 49.7189 91.1584 62.1482 90.4937 68.3628C90.4937 68.3628 90.2279 66.6679 88.4333 62.6134C88.3668 62.4473 88.3003 62.3143 88.2339 62.1482C86.8713 59.0907 84.7111 54.8036 81.2881 49.021C72.9133 34.8636 51.5443 21.6035 39.1482 25.0598C26.719 28.516 32.8007 46.4288 36.8551 59.423C40.0455 69.6921 48.3206 80.5262 60.7831 85.7438C61.8134 86.1759 62.8436 86.5747 63.9071 86.907C66.2999 87.6714 68.8256 88.2696 71.4843 88.6019C71.4843 88.6019 52.1425 90.0309 42.9036 98.1398C33.6647 106.216 27.8822 114.59 25.29 127.285C22.6978 139.981 20.6705 146.328 26.719 149.519C32.7674 152.709 52.9733 148.654 63.3753 141.709C63.475 141.642 63.5747 141.576 63.6744 141.509C68.1609 138.485 72.1822 135.162 75.7049 131.373C78.2971 128.582 80.5902 125.557 82.5842 122.234C84.0465 119.775 85.3426 117.116 86.4725 114.324C86.406 114.624 84.6779 121.868 84.2126 130.376C83.8138 137.355 84.2459 145.165 87.0707 150.682C94.0165 164.241 106.28 180.492 115.651 177.8C120.603 176.371 122.929 170.256 125.588 163.31C130.606 150.183 128.546 138.419 128.081 135.959C125.322 121.669 115.95 108.243 115.95 108.243C116.848 109.107 117.944 110.071 119.207 111.101C120.636 112.264 122.265 113.494 124.126 114.723C124.126 114.723 124.126 114.723 124.159 114.757C125.289 115.521 126.519 116.252 127.815 116.95C133.066 119.874 139.579 122.3 147.19 122.899C162.344 124.095 181.121 117.847 181.985 109.772C182.218 106.88 180.091 104.587 175.87 100.134Z" fill="#FF0098"/>
<path d="M122.797 59.1571C121.335 60.0212 121.667 62.8128 121.7 63.0787C121.8 63.7766 122.033 64.6406 122.431 65.4382C120.637 68.3295 117.446 72.8825 113.957 75.6076C112.196 76.9702 110.135 78.2995 108.141 79.5291C107.211 78.7315 105.915 77.6348 104.253 76.6046C106.679 73.5139 110.335 68.6951 111.165 66.402C112.096 63.8098 113.724 56.8973 114.522 53.3745C115.286 53.4078 115.984 53.2748 116.483 52.9093C117.646 52.0784 117.613 50.2838 117.579 49.885C117.546 48.2566 116.616 46.1297 114.987 45.7309C112.761 45.1991 109.903 48.024 110.335 50.3835C110.467 51.0814 110.866 51.6796 111.431 52.1449C110.434 56.432 108.473 64.6739 107.377 66.6014C106.347 68.3628 103.023 72.4172 100.963 74.8765C100.331 74.6106 99.6667 74.378 98.9688 74.2118C99.0685 72.9822 99.2679 71.819 99.7664 71.0546C100.497 69.8915 101.461 68.0637 102.226 66.5682C104.785 66.3023 106.845 63.4775 106.38 61.5499C105.848 59.423 102.325 58.8913 100.996 58.858C99.5005 58.7916 98.8691 59.2568 98.7361 59.3565C97.3071 60.42 97.6062 62.6134 97.6394 62.7796C97.7391 63.4775 98.0382 64.1754 98.4703 64.7736C97.6727 66.1029 96.7421 67.8643 96.3101 69.2933C96.011 70.3568 95.7119 72.0516 95.4793 73.7133C95.2466 73.7133 95.0472 73.7133 94.8146 73.7133C93.9173 73.7133 93.0532 73.813 92.1892 73.9792C91.6574 72.9157 91.026 71.7526 90.3613 70.5894C89.2979 68.7616 87.5365 65.7041 85.0108 62.5802C83.1165 60.2538 80.0258 57.0302 75.3399 53.9063C75.506 53.5407 75.639 53.1419 75.639 52.7099C75.6057 50.8488 73.6117 49.2536 71.6177 49.1871C69.2582 49.1207 67.2642 51.2808 67.2642 53.4078C67.2642 54.6042 67.8956 56.1329 69.2249 56.6979C70.4546 57.2296 71.651 56.6646 72.4486 56.2991C72.5815 56.2326 72.7477 56.1661 72.9803 56.0332C75.639 58.0604 78.9291 61.0514 81.9865 65.2056C84.7449 68.9277 86.5063 72.5834 87.6694 75.5744C86.6392 76.1061 85.6754 76.7375 84.7449 77.4687C83.1165 73.813 80.7569 69.0607 79.2614 68.4957C77.7659 67.8975 75.1072 66.3688 73.2462 65.2388C73.2794 64.973 73.3126 64.8068 73.3126 64.7403C73.3459 64.4412 73.4788 61.6829 71.7839 60.8188C70.5875 60.1874 69.1917 60.852 68.5935 61.1511C66.8986 61.9487 64.2399 64.2418 65.0708 66.7011C65.7354 68.6619 68.3609 69.8583 70.4878 69.1271C70.8866 68.9942 71.2189 68.7948 71.518 68.5622C73.2129 69.393 75.3399 70.5894 76.6692 71.952C78.065 73.381 80.1255 77.2028 81.6874 80.3267C78.1647 84.2483 75.8384 89.4327 75.7054 94.4177C75.6722 95.7802 75.506 100.931 79.0952 105.185C84.2464 111.3 92.8871 110.602 94.8146 110.436C104.585 109.605 113.957 102.095 114.921 94.1186C115.286 91.1276 114.422 88.3027 114.323 88.0036C113.691 85.9432 112.694 84.3147 111.631 82.9854C117.912 78.0669 122.099 72.384 124.824 67.6981C125.057 67.7646 125.256 67.831 125.522 67.831C127.782 67.9972 129.809 65.837 129.909 63.9095C130.042 60.6859 124.824 57.9275 122.797 59.1571Z" fill="#E5AE00"/>
<path d="M80.8899 136.89C81.1557 131.173 81.9201 125.889 82.5848 122.167C80.624 125.491 78.2977 128.515 75.7055 131.306C71.9833 136.358 67.5633 140.778 62.5451 144.766C61.5813 147.79 60.8169 150.681 60.3184 153.44C58.8229 161.881 58.5238 170.555 58.69 177.933C55.699 173.28 52.6083 169.558 47.6566 167.198C46.2275 166.534 37.4539 162.546 29.5776 166.667C28.4809 167.232 25.1244 169.059 22.931 173.081C22.5654 173.745 20.2391 178.165 21.2028 182.286C23.2633 191.027 39.0824 194.516 48.9194 194.583C53.0071 194.616 56.6628 194.084 59.7867 193.32C60.0858 195.812 60.3184 197.275 60.3184 197.275H75.6722C75.6722 197.275 69.9561 171.12 71.7507 159.688C72.4818 155.002 76.4698 145.962 80.8899 136.89Z" fill="#004031"/>
</svg>
