<svg width="200" height="201" viewBox="0 0 200 201" fill="none" xmlns="http://www.w3.org/2000/svg">
<path d="M195.611 112.696C195.079 120.406 192.586 149.286 169.356 171.519C141.64 198.006 105.149 195.214 90.5933 194.118C75.9041 192.988 46.825 190.794 25.456 167.531C6.08093 146.461 4.75159 120.805 4.18663 110.37C3.68813 101.098 1.99323 68.7948 25.456 41.5767C51.1453 11.7664 87.8017 10.2709 98.5693 10.3374C105.947 10.3706 143.866 11.4673 171.683 42.906C175.903 47.6584 198.336 74.0124 195.611 112.696Z" fill="#FFD110"/>
<path d="M151.012 100.167C147.854 124.66 132.966 145.298 111.863 153.24C93.4183 160.186 67.9615 158.292 55.8979 144.932C51.3449 139.881 47.2904 131.639 46.0608 128.98C42.1725 120.705 40.3447 113.228 39.4141 107.977C45.2964 108.708 54.2362 109.539 65.1699 109.472C68.2274 109.439 71.7501 109.372 92.9198 107.777C108.274 106.614 115.984 106.049 120.404 105.517C127.848 104.62 138.35 103.058 151.012 100.167Z" fill="#2E1544"/>
<path d="M32.3683 78.4323C32.3683 78.4323 37.2869 88.8011 52.8733 89.8978C68.4597 90.9945 79.9252 85.2451 84.0129 78.4323L76.1034 77.0697C76.1034 77.0697 66.2663 84.3146 59.4203 83.5502C52.5742 82.7858 40.8428 79.7948 39.7461 75.7071L32.3683 78.4323Z" fill="#02B795"/>
<path d="M158.223 78.4323C158.223 78.4323 153.304 88.8011 137.718 89.8978C122.131 90.9945 110.666 85.2452 106.578 78.4323L114.488 77.0698C116.947 79.0305 122.862 83.1182 131.171 83.5503C133.264 83.65 137.585 83.8494 142.537 81.6892C146.691 79.8946 149.416 77.3024 150.845 75.674C153.304 76.6045 155.763 77.5018 158.223 78.4323Z" fill="#02B795"/>
<path d="M27.4504 67.2991C27.4504 67.2991 48.8859 58.2929 56.164 54.5043C63.4421 50.7157 72.4151 46.1959 72.4151 46.1959L67.8953 38.9178C67.3968 39.3166 66.6657 39.9148 65.7019 40.5795C62.146 43.0388 59.022 44.1355 58.1912 44.4678C54.3361 45.8968 42.3389 51.48 25.0244 59.6887L27.4504 67.2991Z" fill="#2E1544"/>
<path d="M161.347 62.9458C161.347 62.9458 139.912 53.9395 132.634 50.1509C125.356 46.3623 116.383 41.8426 116.383 41.8426L120.869 34.5645C121.368 34.9633 122.099 35.5615 123.063 36.2262C126.619 38.6854 129.742 39.7821 130.573 40.1145C134.428 41.5435 146.426 47.1267 163.74 55.3353L161.347 62.9458Z" fill="#2E1544"/>
<path d="M35.6922 88.1698C20.4381 91.1941 9.93636 99.303 9.57079 107.113C9.50432 108.741 9.77019 112.53 12.163 116.086C12.6283 116.75 16.3504 122.334 21.2025 122.334C29.0788 122.334 33.7979 107.744 34.3961 105.817C36.8221 98.3725 36.2904 91.8255 35.6922 88.1698Z" fill="#2E1544"/>
<path d="M154.7 88.2032C155.731 88.4359 178.396 93.7532 180.822 107.146C181.088 108.609 181.952 113.461 178.961 117.183C176.368 120.406 171.915 121.503 168.426 120.872C160.749 119.509 157.326 109.772 155.963 105.85C154.867 102.793 153.205 96.5448 154.7 88.2032Z" fill="#2E1544"/>
</svg>
