<svg width="194" height="186" viewBox="0 0 194 186" fill="none" xmlns="http://www.w3.org/2000/svg">
<path d="M12.1205 125.712C10.8244 128.304 11.8214 131.096 13.1839 134.619C16.8064 143.891 18.6342 148.543 20.4288 151.501C20.4288 151.501 26.1782 161.006 33.6224 167.885C46.1181 179.384 67.5869 186.197 88.258 185.167C113.981 183.87 148.144 170.012 157.217 145.087C161.272 133.954 160.74 119.664 171.84 112.818C174.698 111.056 185.499 105.373 184.801 102.549C184.734 102.349 184.435 101.319 183.771 100.189C183.604 99.8899 182.74 98.3944 182.042 97.8959C180.082 96.4336 175.23 99.4246 168.683 103.911C164.229 106.935 162.036 108.464 160.84 109.428C143.957 123.253 134.652 130.863 122.588 136.613C115.808 139.836 89.255 151.534 59.4115 144.423C43.5924 140.667 33.1904 138.175 27.4743 129.8C25.9123 127.54 22.7884 122.057 18.3019 121.99C15.8426 121.924 13.2504 123.519 12.1205 125.712Z" fill="#FFD652"/>
<path d="M14.8461 122.588C13.417 122.854 12.42 123.02 11.8551 123.851C11.423 124.483 11.2901 125.446 11.6224 126.144C12.9518 128.903 22.1574 128.072 22.7556 125.812C22.9218 125.214 22.523 124.416 22.1574 123.951C21.7918 123.486 21.2601 123.187 20.1634 122.887C19.0667 122.622 17.2721 122.156 14.8461 122.588Z" fill="black"/>
<path d="M67.1227 115.443C64.2314 117.105 61.1075 116.307 54.1949 114.18C30.4996 106.836 18.5024 102.981 9.96141 94.4396C4.81024 89.2884 0.656079 85.101 0.622845 79.252C0.589612 75.1643 2.58361 72.2065 6.13958 68.9164C9.92817 65.4601 15.4781 61.6383 22.2577 55.756C41.4001 39.2058 62.4368 13.1841 76.561 10.1599C76.9598 10.0602 77.3586 10.027 77.8238 10.1599C86.4977 12.7521 75.0655 73.6355 72.008 88.5573C70.7451 94.7719 71.443 101.552 71.0442 106.869C70.7784 110.757 69.8811 113.881 67.1227 115.443Z" fill="#FF0068"/>
<path d="M67.1227 115.443C66.5577 115.776 65.9927 115.975 65.3945 116.141C63.5667 116.573 61.4065 116.241 58.2161 115.377C57.0197 115.044 55.6904 114.646 54.1949 114.18C49.8081 112.818 45.8201 111.588 42.1977 110.425C40.8351 109.993 39.539 109.561 38.2429 109.129C34.4543 107.866 31.0645 106.67 28.007 105.44C26.4783 104.809 25.016 104.21 23.6535 103.579C18.3029 101.12 14.1155 98.461 10.5595 95.038C10.3601 94.8386 10.1607 94.6724 9.96135 94.473C8.33291 92.8446 6.83741 91.3158 5.50808 89.8203C2.61678 86.5302 0.656018 83.3066 0.622784 79.2854C0.589551 75.1977 2.58355 72.2399 6.13952 68.9498C7.36915 71.6417 9.99458 75.7294 15.5113 81.6117C15.6442 81.7446 15.7772 81.8776 15.9101 82.0437C17.1397 83.3398 18.4026 84.6027 19.6655 85.7991C22.4903 88.491 25.3484 90.8838 28.2397 93.0107C28.8711 93.5092 29.5358 93.9745 30.1672 94.4065C35.0525 97.8628 39.9046 100.521 44.4575 102.549C45.4878 102.981 46.4848 103.413 47.4818 103.778C49.6419 104.609 51.7356 105.274 53.6964 105.806C55.2584 106.238 56.92 106.503 58.5817 106.736C60.0772 106.935 61.6059 107.035 63.1014 107.102C65.893 107.201 68.6514 107.102 71.0442 106.935C70.7783 110.757 69.881 113.881 67.1227 115.443Z" fill="#32B244"/>
<path d="M17.5052 89.621C15.777 90.8507 13.1516 92.9111 10.5594 95.0048C10.36 94.8054 10.1606 94.6393 9.9612 94.4399C8.33277 92.8114 6.83727 91.2827 5.50793 89.7872C8.49893 88.3249 12.0549 85.8324 15.5112 81.5453C15.6441 81.6783 15.777 81.8112 15.91 81.9774C17.1396 83.2735 18.4025 84.5363 19.6653 85.7327C19.4659 87.2615 18.8345 88.6905 17.5052 89.621Z" fill="black"/>
<path d="M28.0405 105.407C26.5118 104.775 25.0495 104.177 23.687 103.546C24.3516 101.552 25.1492 99.3251 25.8803 97.3643C26.3788 96.0682 27.2429 94.5062 28.2731 92.9443C28.9046 93.4428 29.5692 93.908 30.2007 94.3401C29.5692 96.2011 29.0707 98.029 28.9378 99.6242C28.7716 101.685 28.4061 103.679 28.0405 105.407Z" fill="black"/>
<path d="M47.4813 103.712C46.019 105.706 44.5235 107.633 43.3604 108.996C42.9616 109.461 42.5628 109.926 42.1972 110.391C40.8346 109.959 39.5385 109.527 38.2424 109.095C39.04 108.231 40.1035 107.101 41.4661 105.573C42.4298 104.476 43.4601 103.412 44.4571 102.449C45.4873 102.914 46.4843 103.346 47.4813 103.712Z" fill="black"/>
<path d="M65.3946 116.141C63.5668 116.573 61.4066 116.241 58.2162 115.377C57.6845 111.887 57.9836 108.963 58.5486 106.669C60.0441 106.869 61.5728 106.969 63.0683 107.035C63.0683 107.168 63.0683 107.301 63.0351 107.401C62.9021 108.996 64.1318 112.718 65.3946 116.141Z" fill="black"/>
<path d="M52.4672 33.1902C51.1379 34.3534 50.2406 36.4138 50.8388 37.0785C51.5035 37.8096 53.9295 36.6797 55.2256 35.3836C56.1229 34.5195 56.1894 33.8881 56.1894 33.6222C56.1894 33.5558 56.1894 32.6252 55.5912 32.2264C54.7271 31.6282 53.1984 32.5588 52.4672 33.1902Z" fill="black"/>
<path d="M66.9896 63.5323C66.9232 64.7952 67.322 65.6925 67.5214 66.1578C67.8537 66.8557 68.0199 67.188 68.2857 67.2545C69.0833 67.3874 70.2797 65.0943 70.3794 63.0338C70.4459 61.8042 70.0471 61.2725 69.8809 61.0731C69.8145 61.0066 69.183 60.3087 68.4851 60.4416C67.4549 60.6078 67.0561 62.6018 66.9896 63.5323Z" fill="black"/>
<path d="M31.0307 69.8804C29.9008 71.0103 29.3691 72.8714 29.934 73.3699C30.2664 73.669 30.9975 73.4031 32.0942 73.0043C32.7921 72.7384 33.3571 72.539 33.8888 71.9741C34.2211 71.6417 34.7861 71.0435 34.7861 70.1795C34.7861 70.113 34.7529 69.1825 34.1547 68.7837C33.2574 68.2519 31.7951 69.1492 31.0307 69.8804Z" fill="black"/>
<path d="M140.867 66.1915C135.516 60.4421 126.277 57.9829 119.697 58.714C118.368 58.8469 116.108 59.2457 113.748 59.711C112.685 59.9104 111.588 60.143 110.525 60.3424C109.594 60.5086 108.697 60.708 107.899 60.8742C104.21 61.6053 102.349 61.9709 100.887 62.4029C94.9049 64.0646 90.1525 65.3939 87.2944 69.4484C85.9319 71.3759 85.4334 73.3367 84.7022 76.1283C83.7717 79.6842 83.7052 82.5423 83.672 83.9049C83.5723 88.8234 84.4031 99.026 90.7507 110.292C93.9079 115.875 95.4698 118.667 99.0258 121.06C105.274 125.314 112.452 124.882 118.534 124.549C124.549 124.217 128.67 123.951 132.724 121.359C139.005 117.238 140.734 110.093 142.595 101.784C145.785 87.5273 148.71 74.5995 140.867 66.1915Z" fill="#32B244"/>
<path d="M115.077 53.197C115.077 53.197 113.781 55.4236 113.814 57.4508C113.814 57.9161 113.814 58.7469 113.748 59.7107C112.684 59.9101 111.588 60.1427 110.524 60.3421C110.823 56.4206 112.252 52.6985 112.252 52.6985L113.349 52.3329L115.077 53.197Z" fill="black"/>
<path d="M93.0773 70.5776C90.4187 73.0368 89.322 76.6593 89.322 76.6593C87.76 81.9434 88.2917 89.6203 91.6483 91.0161C92.4127 91.3484 93.5094 91.3816 94.2737 90.9164C95.2707 90.3182 95.7028 88.9888 95.8025 86.0643C96.0019 81.1125 94.9052 80.614 95.2043 77.8889C95.736 73.0036 99.6575 70.5111 98.6605 69.2815C98.0291 68.4839 96.0019 68.9159 94.9384 69.3147C94.0743 69.7135 93.4761 70.212 93.0773 70.5776Z" fill="white"/>
<path d="M190.585 26.2778C196.467 34.6526 192.081 46.2511 191.084 48.81C190.186 51.1696 187.029 58.5806 179.053 63.6653C176.261 65.4267 166.823 71.4419 156.754 67.5204C149.243 64.5958 145.82 57.8827 144.723 55.224C141.566 47.6801 143.427 40.9005 144.158 38.408C144.557 37.0454 147.216 28.5377 155.457 23.1871C166.092 16.3411 183.606 16.3411 190.585 26.2778Z" fill="#FF7300"/>
<path d="M151.436 32.9245C151.436 32.9245 149.742 31.4622 148.08 24.4832C146.418 17.5042 158.848 0.48877 158.848 0.48877C158.848 0.48877 159.545 0.954036 158.814 7.93303C158.083 14.912 157.186 23.4198 155.524 26.6434C153.863 29.867 151.436 32.9245 151.436 32.9245Z" fill="#32B244"/>
<path d="M153.663 58.8799C153.696 59.3119 153.53 59.9433 153.131 60.043C152.832 60.1095 152.5 59.9101 152.333 59.6774C151.835 59.046 152.3 57.7832 152.799 57.7167C153.131 57.6835 153.596 58.2817 153.663 58.8799Z" fill="#FFD652"/>
<path d="M160.044 63.1341C160.343 63.699 160.343 64.5299 159.977 64.7293C159.512 64.9951 158.349 64.2972 158.349 63.4664C158.349 63.0344 158.614 62.5026 159.08 62.4362C159.611 62.3697 160.01 63.0676 160.044 63.1341Z" fill="#FFD652"/>
<path d="M149.974 53.7618C149.974 53.8615 149.807 54.6591 149.309 54.8252C148.777 54.9914 147.98 54.3932 147.946 53.7285C147.88 52.8977 148.91 52.1666 149.442 52.3327C149.708 52.4324 149.874 52.798 149.907 52.9642C149.94 53.0639 150.04 53.363 149.974 53.7618Z" fill="#FFD652"/>
<path d="M155.656 52.6315C155.69 52.9306 155.723 53.2962 155.524 53.4623C155.191 53.7282 154.294 53.4623 154.028 52.8309C153.895 52.4986 153.962 52.0333 154.261 51.7342C154.294 51.701 154.626 51.3686 154.992 51.4683C155.524 51.6345 155.623 52.3989 155.656 52.6315Z" fill="#FFD652"/>
<path d="M159.28 57.3174C159.247 57.6165 159.247 57.9489 159.047 58.0486C158.682 58.248 157.685 57.6498 157.751 56.9519C157.785 56.3537 158.516 55.8552 158.915 56.0213C159.38 56.2207 159.313 57.2177 159.28 57.3174Z" fill="#FFD652"/>
</svg>
