<svg width="200" height="200" viewBox="0 0 200 200" fill="none" xmlns="http://www.w3.org/2000/svg">
<path d="M175.572 131.405C174.875 144.599 174.542 151.179 173.113 154.735C171.551 158.59 169.391 161.182 164.705 164.572C162.445 166.234 159.554 168.062 155.865 170.322C154.635 171.086 153.306 171.884 151.877 172.748C150.016 173.878 147.989 175.107 145.762 176.47C144.699 177.134 143.735 177.699 142.771 178.298C138.783 180.757 135.194 182.95 126.653 188.201C124.925 189.265 121.901 191.126 117.813 193.419C116.184 194.349 114.722 195.147 114.357 195.313C104.121 200.73 80.359 195.08 77.4677 194.383C74.7758 193.751 72.1503 193.053 69.6578 192.355C68.1291 191.923 66.6336 191.491 65.1713 191.092C64.2408 190.827 63.6094 190.627 61.7815 190.062C60.419 189.663 58.3917 189.032 55.1016 188.035C52.6756 187.304 49.5517 186.34 45.4972 185.11C30.8413 180.69 30.7416 180.69 30.1102 180.225C22.2339 174.575 28.5482 146.826 28.7808 119.408C28.8473 112.695 28.515 107.477 28.1162 103.224C27.8835 100.797 27.6841 98.7038 27.4847 96.8095C26.8533 90.1628 26.8201 86.1748 30.1434 80.6913C31.7386 78.0659 37.6874 72.9812 49.319 63.3103C50.5487 62.3133 51.8115 61.2498 53.1409 60.1199C55.1349 58.4582 57.0624 56.863 59.0232 55.3675C62.9779 52.2768 66.9992 49.3855 71.9177 46.3945C77.9329 42.7388 80.9572 40.911 83.4164 40.2131C93.1538 37.4215 98.9364 42.34 118.677 47.9565C118.976 48.0562 119.275 48.1226 119.608 48.2223C123.064 49.1861 126.287 50.0834 129.644 50.9475C133.632 51.9777 137.819 52.9082 142.771 53.7723C142.771 53.7723 165.004 57.6938 171.485 64.7061C172.216 65.5037 172.781 66.401 172.781 66.401C173.246 67.1321 173.645 68.0626 173.977 69.1593C174.509 70.8542 174.875 73.0144 175.174 75.6398C175.273 76.5039 175.34 77.4012 175.44 78.3317C176.038 86.0086 176.104 97.1418 176.137 112.695C176.104 113.559 176.137 121.203 175.572 131.405Z" fill="#FF8FF0"/>
<path d="M175.406 78.3981C159.653 91.1264 131.638 107.477 117.58 110.734C97.2745 115.453 56.6634 100.93 42.506 98.3713C36.3579 97.2414 31.539 97.1749 27.5178 96.8758C26.8864 90.2291 26.8531 86.2411 30.1765 80.7576C31.7717 78.1322 37.7204 73.0475 49.3521 63.3766C50.5817 62.3796 51.8446 61.3161 53.1739 60.1862C55.1679 58.5245 57.0954 56.9293 59.0562 55.4338C63.011 52.3431 67.0322 49.4518 71.9507 46.4608C77.966 42.8052 80.9902 40.9773 83.4495 40.2794C93.1868 37.4878 98.9694 42.4064 118.71 48.0228C119.009 48.1225 119.308 48.189 119.641 48.2887C123.097 49.2524 126.32 50.1497 129.677 51.0138C133.665 52.044 137.852 52.9746 142.804 53.8386C142.804 53.8386 165.037 57.7602 171.518 64.7724C172.249 65.57 172.814 66.4673 172.814 66.4673C173.279 67.1984 173.678 68.129 174.01 69.2257C174.542 70.9206 174.908 73.0807 175.207 75.7062C175.24 76.537 175.306 77.4343 175.406 78.3981Z" fill="#00FF9D"/>
<path d="M157.427 107.61C156.596 96.4773 155.765 70.1233 148.354 68.4949C145.928 67.9631 134.363 66.2018 119.807 64.0748C129.677 55.6336 144.732 42.739 149.783 37.9867C157.527 30.7086 162.445 10.1704 144.765 3.39078C127.118 -3.38882 112.163 24.5604 107.71 40.5124C106.048 46.3947 105.051 51.5459 104.42 55.7333C103.622 56.1653 102.858 56.5973 102.06 57.0294C97.1749 44.6333 85.3438 17.1826 74.7092 11.2671C60.9173 3.55694 44.2674 19.376 50.7812 32.3702C55.1347 41.0774 75.2409 52.7755 87.9693 59.4886C77.0023 57.9267 66.6335 56.4644 59.0563 55.4009C57.0955 56.9297 55.168 58.4916 53.174 60.1533C51.8446 61.2832 50.5818 62.3135 49.3521 63.3437C56.7299 64.806 68.6607 67.1655 80.2924 69.4919C70.8541 75.208 63.4098 80.2595 61.7814 82.8849C56.7632 91.1267 59.8206 140.113 58.591 152.874C57.8599 160.352 56.2979 176.204 55.1015 188.035C58.3916 189.032 60.4188 189.664 61.7814 190.062C63.6092 190.627 64.2407 190.827 65.1712 191.093C66.6335 191.491 68.129 191.923 69.6577 192.355C71.2197 174.077 73.6789 142.805 73.4131 133.1C73.0143 119.109 73.8119 94.8156 77.102 86.9726C78.1654 84.4468 85.6097 78.8304 95.1809 72.4496C102.725 73.9451 108.973 75.208 112.097 75.8727C124.027 78.3319 140.91 77.1023 142.572 89.0663C143.868 98.4048 143.137 154.37 142.738 178.298C143.702 177.7 144.665 177.135 145.729 176.47C147.955 175.107 149.983 173.878 151.844 172.748C153.273 171.884 154.602 171.053 155.832 170.322C156.663 151.213 158.025 115.653 157.427 107.61ZM128.846 14.2248C135.593 8.34254 148.886 8.50871 150.215 15.0224C151.146 19.6751 132.568 38.5184 121.834 48.8872C121.103 48.6878 120.339 48.4552 119.574 48.2558C119.275 48.1561 118.943 48.0896 118.644 47.9899C116.783 48.9869 114.755 50.0504 112.628 51.2135C115.154 43.4369 123.197 19.1766 128.846 14.2248ZM64.573 29.5786C60.9506 24.9592 59.7542 16.2853 68.3948 17.7143C77.0355 19.1101 94.1507 53.1411 94.1507 53.1411L93.3531 55.1351C93.3531 55.1351 68.1954 34.1981 64.573 29.5786Z" fill="#BB54F7"/>
</svg>
