<svg width="201" height="200" viewBox="0 0 201 200" fill="none" xmlns="http://www.w3.org/2000/svg">
<path d="M136.026 81.7879C136.026 81.7879 134.165 69.3254 130.177 60.5185C126.188 51.7117 122.4 44.7992 112.131 44.0348C101.862 43.2705 90.7285 51.7449 87.5049 63.0443C84.2813 74.3104 88.801 101.296 95.2483 117.348C101.662 133.366 111.632 154.669 113.693 159.554C115.72 164.439 122.367 183.715 122.367 183.715C122.367 183.715 148.189 140.312 155.068 128.281C161.948 116.251 175.108 87.9693 184.314 71.4191C193.519 54.8689 200.399 38.7507 191.791 30.7415C183.184 22.7655 153.872 14.0916 143.802 35.8262C133.699 57.5275 136.026 81.7879 136.026 81.7879Z" fill="#C10065"/>
<path d="M58.2261 192.854C58.2261 192.854 41.8089 186.407 18.612 153.439C-4.58488 120.472 8.11026 108.441 15.2554 105.251C22.4006 102.06 34.9296 115.021 37.8209 121.103C37.8209 121.103 38.9508 100.798 49.0205 92.9545C59.057 85.1114 72.5829 83.9482 75.9395 97.2083C79.3293 110.435 66.3351 160.618 64.9393 167.896C63.5767 175.207 58.2261 192.854 58.2261 192.854Z" fill="#500D59"/>
<path d="M46.5946 31.5725C42.241 22.8321 34.5309 18.8441 29.28 20.7052C25.5911 22.0013 23.2316 26.1554 22.7331 29.8443C21.8025 36.4578 26.7875 42.0077 36.0929 52.0442C41.6761 58.0927 46.5281 62.1804 48.1898 63.5429C57.761 71.5189 68.7612 78.1988 68.7612 78.1988C69.1933 73.7123 69.6585 67.398 69.6918 59.8208C69.7582 51.2466 69.7582 42.1407 67.3322 31.1072C64.9726 20.3396 62.8125 11.1007 55.6673 8.10973C55.335 7.9768 50.1173 5.84986 46.4949 8.30913C42.0084 11.4331 41.3105 20.9378 46.5946 31.5725Z" fill="#E59AE0"/>
</svg>
