<svg width="200" height="200" viewBox="0 0 200 200" fill="none" xmlns="http://www.w3.org/2000/svg">
<path d="M85.5118 18.6772C80.6265 20.2392 75.4089 22.1003 71.1882 23.9946C70.59 24.2604 69.2607 24.9251 67.7652 26.055C66.7682 26.8194 66.17 27.4508 65.9706 27.6502C65.9706 27.6502 64.8406 28.8466 63.9766 30.3754C63.8104 30.608 63.611 30.8406 63.4449 31.1065C54.9371 43.7352 64.741 62.3458 80.4603 120.006C82.4211 127.151 84.116 133.665 85.6447 139.613C80.6597 142.006 76.1732 143.801 73.6475 144.798C70.4903 146.061 44.4686 156.263 40.5803 150.148C39.1181 147.822 41.3447 143.934 44.5019 138.384C51.6138 125.988 59.5233 122.166 58.194 118.543C57.8949 117.746 57.0308 116.649 45.5321 114.722C36.5259 113.226 33.8007 113.359 28.3505 112.362C24.861 111.731 9.57362 109.039 9.44069 105.15C9.30775 100.996 26.5226 97.2408 27.8852 96.9417C40.9459 94.1501 49.3539 95.9115 49.8524 93.851C50.2845 91.9567 43.4052 89.9295 30.9427 82.2858C24.4289 78.2978 18.7128 74.1769 13.2625 69.0922C7.47992 63.6752 1.86349 58.4575 3.15959 55.7324C3.85749 54.2701 6.48292 53.8381 28.8822 56.1977C47.0941 58.092 51.5806 57.3276 52.8102 54.9016C53.6743 53.1734 52.4446 51.4453 48.5563 44.7654C46.9611 42.0403 39.2842 28.8466 34.3989 16.4174C31.6073 9.3719 30.2448 5.81593 31.707 3.85516C35.3295 -1.16307 50.7497 4.25396 61.185 7.90963C67.9314 10.2692 76.2729 13.659 85.5118 18.6772Z" fill="#FA0018"/>
<path d="M145.365 4.98497C141.144 2.89127 138.785 3.55594 100.566 14.2571C100.566 14.2571 93.521 16.0849 85.545 18.6771C80.6597 20.2391 75.4421 22.1001 71.2215 23.9944C70.6233 24.2603 69.2939 24.925 67.7984 26.0549C66.8014 26.8193 66.2032 27.4507 66.0038 27.6501C66.0038 27.6501 64.8739 28.8465 64.0098 30.3752C66.0371 27.8495 69.2607 26.8193 89.8321 21.0699C91.1615 20.7043 92.5573 20.3055 94.0195 19.9067C126.588 10.8008 133.135 8.97297 136.957 9.93674C137.489 10.0697 138.02 10.3023 138.818 10.6679C152.41 16.6499 152.078 32.0037 163.743 69.5906C166.269 77.6995 167.166 79.8264 170.456 90.727C172.583 97.8057 174.777 105.35 177.867 116.848C188.934 157.858 189.931 168.061 183.75 176.103C182.952 177.134 182.32 177.898 181.656 178.43C181.39 178.629 181.091 178.829 180.792 179.028C185.179 177.067 187.937 173.777 187.937 173.777C188.269 173.378 189.698 171.683 190.729 169.224C192.723 164.605 192.324 159.952 189.864 146.526C188.502 139.148 188.17 137.819 188.17 137.819C183.251 116.981 180.825 106.579 174.411 82.8174C161.417 34.4629 160.985 12.7283 145.365 4.98497Z" fill="#4E02C6"/>
<path d="M138.818 10.6348C138.021 10.2692 137.489 10.0366 136.957 9.90364C133.102 8.9731 126.555 10.8009 93.9867 19.9069C92.5244 20.3057 91.1286 20.7045 89.7993 21.07C69.2278 26.8194 66.0042 27.8496 63.977 30.3754C63.8108 30.608 63.6114 30.8406 63.4452 31.1065C54.9375 43.7352 64.7413 62.3458 80.4607 120.006C82.4215 127.151 84.1164 133.665 85.6451 139.613C95.2163 176.934 97.5759 191.391 108.41 196.575C114.126 199.3 116.286 196.609 143.604 188.965C169.028 181.82 176.771 181.454 180.792 179.061C181.091 178.862 181.39 178.696 181.656 178.463C182.321 177.931 182.919 177.167 183.75 176.137C189.965 168.094 188.934 157.892 177.868 116.882C174.744 105.35 172.584 97.8058 170.457 90.7603C167.133 79.8266 166.236 77.6996 163.743 69.6239C152.079 31.9706 152.411 16.6168 138.818 10.6348Z" fill="#04B25F"/>
<path d="M116.053 71.1527C114.325 77.5999 106.415 76.0047 87.5388 82.2858C86.0101 82.7843 82.5538 83.9807 80.0281 82.02C77.9012 80.3915 77.4027 77.5002 77.2033 76.3371C74.6111 60.3851 66.5021 44.7986 71.3542 41.5085C71.753 41.2427 74.744 40.3454 80.7592 38.584C80.9919 38.5175 81.1248 38.4843 81.3242 38.4178C82.8529 37.9526 86.0101 37.0885 92.2247 35.593C98.8714 33.9978 102.228 33.2002 102.992 33.5325C106.914 35.2274 106.947 40.4118 112.863 58.7566C115.953 68.2614 116.618 69.0257 116.053 71.1527Z" fill="#FFF200"/>
<path d="M113.727 69.8566C112.198 75.6392 105.086 74.2102 88.1703 79.8266C86.7745 80.2919 83.7171 81.3221 81.424 79.594C79.5297 78.1317 79.0644 75.5395 78.8982 74.4761C76.5719 60.1857 69.2938 46.1945 73.6474 43.27C74.0129 43.0373 76.7048 42.2397 82.0886 40.6445C82.288 40.5781 82.421 40.5448 82.5871 40.4784C83.9829 40.0796 86.7745 39.282 92.3577 37.9526C98.3065 36.5236 101.331 35.8257 101.995 36.1248C105.518 37.6535 105.518 42.273 110.835 58.7235C113.627 67.2644 114.259 67.9623 113.727 69.8566Z" fill="#4E02C6"/>
<path d="M91.2944 49.4511C91.959 53.6385 88.968 58.9226 84.5148 59.2549C81.7896 59.4543 79.2639 57.7594 77.8681 55.6657C76.3061 53.3394 75.7744 50.0493 77.1702 47.3241C78.6657 44.3331 81.6235 43.602 82.4543 43.4358C83.0193 43.3361 86.1432 42.7047 88.7354 44.8981C88.9681 45.0643 90.8623 46.7259 91.2944 49.4511Z" fill="white"/>
<path d="M95.1497 72.9474C92.7237 76.2707 86.9411 77.6001 83.5513 74.4429C81.4908 72.5154 80.8594 69.4911 81.2914 66.9986C81.7899 64.2403 83.6842 61.6481 86.5423 60.8172C89.6662 59.9532 92.2917 61.6481 92.9896 62.1798C93.4881 62.5454 96.1135 64.4397 96.4458 67.8959C96.5123 68.2283 96.7117 70.754 95.1497 72.9474Z" fill="white"/>
<path d="M91.6931 73.5789C89.0344 74.9747 84.7141 73.9112 83.3848 70.6876C82.5872 68.7268 83.0857 66.5002 84.1491 65.0379C85.3123 63.3762 87.406 62.2795 89.5994 62.7116C91.9922 63.1768 93.2218 65.2041 93.5542 65.769C93.7868 66.1678 94.9832 68.328 94.1524 70.7208C94.0527 70.9202 93.388 72.6816 91.6931 73.5789Z" fill="#FFF200"/>
<path d="M89.167 54.0042C87.6382 56.6629 83.4508 58.0587 80.7257 55.9982C79.064 54.7353 78.3994 52.5419 78.5323 50.6809C78.6985 48.6204 79.9281 46.5267 81.9886 45.6959C84.2152 44.7986 86.2757 45.8953 86.8406 46.1944C87.2394 46.427 89.2999 47.6234 89.7984 50.1824C89.8316 50.415 90.164 52.2761 89.167 54.0042Z" fill="#FFF200"/>
<path d="M102.294 59.6205C100.201 59.9861 97.4423 58.2912 97.1764 55.8319C97.0102 54.3364 97.8078 52.9406 98.8381 52.1763C99.968 51.3122 101.63 51.0463 103.059 51.8107C104.621 52.6415 105.053 54.3032 105.152 54.7685C105.219 55.1008 105.618 56.7957 104.554 58.258C104.454 58.3577 103.657 59.3879 102.294 59.6205Z" fill="white"/>
<path d="M121.603 109.969C121.171 110.102 120.739 108.141 119.011 106.745C116.618 104.818 113.461 105.416 113.295 105.449C112.863 105.549 109.872 106.18 108.509 108.839C107.512 110.833 107.944 112.827 108.277 114.19C109.739 120.138 114.89 123.561 116.219 124.426C117.283 125.123 116.585 124.492 122.334 127.35C124.727 128.546 125.624 129.045 126.887 128.812C128.117 128.613 128.915 127.849 130.742 125.755C133.8 122.265 135.329 120.537 135.894 119.441C137.921 115.519 137.921 111.93 137.921 110.301C137.921 107.044 137.156 105.483 136.591 104.618C136.392 104.286 135.86 103.555 135.03 102.791C134.531 102.359 131.042 99.4673 126.921 100.863C124.162 101.794 122.334 104.319 121.869 106.579C121.537 108.274 122.002 109.836 121.603 109.969Z" fill="#FA0018"/>
</svg>
