<svg
  width="current"
  height="current"
  class="w-10 h-10"
  viewBox="0 0 145 100"
  fill="none"
  xmlns="http://www.w3.org/2000/svg"
>
  <path
    d="M144.8 12.5C136 19.6 127.6 18.6 121.4 17.9C115.9 17.3 113.3 17.1 109.8 19.9C106.3 22.7 105.9 25.3 105.3 30.8C104.6 36.9 103.7 45.3 94.9 52.4C86.1 59.5 77.7 58.5 71.5 57.8C66 57.2 63.4 57 59.9 59.8C56.4 62.6 56 65.2 55.4 70.7C54.7 76.8 53.8 85.2 45 92.3C36.2 99.4 27.8 98.4 21.6 97.7C16.1 97.1 13.5 96.9 10 99.7L0 87.2C8.8 80.1 17.2 81.1 23.4 81.8C28.9 82.4 31.5 82.6 35 79.8C38.5 77 38.9 74.4 39.5 68.9C40.2 62.8 41.1 54.4 49.9 47.3C58.7 40.2 67.1 41.2 73.3 41.9C78.8 42.5 81.4 42.7 84.9 39.9C88.4 37.1 88.8 34.5 89.4 29C90.1 22.9 91 14.5 99.8 7.39999C108.6 0.299994 117 1.3 123.2 2C128.7 2.6 131.3 2.8 134.8 0L144.8 12.5Z"
    fill="#9D9D9D"
  ></path>
</svg>
